<?xml version="1.0" encoding="UTF-8"?>
<!DOCTYPE svg PUBLIC "-//W3C//DTD SVG 1.1//EN" "http://www.w3.org/Graphics/SVG/1.1/DTD/svg11.dtd">
<svg version="1.1" xmlns="http://www.w3.org/2000/svg" xmlns:xlink="http://www.w3.org/1999/xlink" x="0" y="0" width="400" height="124" viewBox="0, 0, 400, 124">
  <g id="Layer_1">
    <g>
      <g>
        <path d="M136.811,71.832 L136.811,39.011 L158.168,39.011 L158.168,41.137 L139.169,41.137 L139.169,54.173 L155.302,54.173 L155.302,56.206 L139.169,56.206 L139.169,71.832 L136.811,71.832 z" fill="#4D4D4D"/>
        <path d="M176.935,49.874 C174.748,49.936 172.851,50.576 171.25,51.792 C169.648,53.01 168.522,54.682 167.875,56.808 L167.875,71.832 L165.565,71.832 L165.565,47.794 L167.737,47.794 L167.737,53.711 C168.569,52.017 169.67,50.636 171.043,49.573 C172.414,48.51 173.885,47.902 175.457,47.747 C175.765,47.747 176.042,47.739 176.289,47.724 C176.536,47.709 176.751,47.701 176.937,47.701 L176.937,49.874 z" fill="#4D4D4D"/>
        <path d="M183.638,42.34 L183.638,38.087 L185.949,38.087 L185.949,42.34 L183.638,42.34 z M183.638,71.832 L183.638,47.794 L185.949,47.794 L185.949,71.832 L183.638,71.832 z" fill="#4D4D4D"/>
        <path d="M205.641,72.295 C203.946,72.295 202.374,71.963 200.926,71.3 C199.477,70.638 198.222,69.729 197.159,68.572 C196.096,67.417 195.263,66.084 194.663,64.574 C194.062,63.065 193.762,61.448 193.762,59.72 C193.762,58.025 194.062,56.432 194.663,54.935 C195.264,53.441 196.088,52.132 197.135,51.007 C198.183,49.883 199.432,48.996 200.881,48.349 C202.329,47.701 203.885,47.379 205.55,47.379 C207.245,47.379 208.809,47.711 210.243,48.373 C211.675,49.036 212.915,49.929 213.963,51.054 C215.011,52.18 215.834,53.489 216.435,54.983 C217.038,56.479 217.338,58.058 217.338,59.721 C217.338,59.876 217.329,60.067 217.315,60.299 C217.3,60.53 217.293,60.676 217.293,60.738 L196.166,60.738 C196.26,62.125 196.582,63.412 197.136,64.599 C197.692,65.785 198.393,66.81 199.24,67.672 C200.087,68.535 201.066,69.214 202.176,69.706 C203.285,70.2 204.472,70.445 205.735,70.445 C206.566,70.445 207.39,70.331 208.208,70.099 C209.024,69.868 209.78,69.552 210.472,69.151 C211.165,68.751 211.783,68.266 212.322,67.695 C212.86,67.125 213.284,66.501 213.594,65.823 L215.626,66.378 C215.257,67.241 214.74,68.035 214.078,68.759 C213.415,69.483 212.644,70.107 211.767,70.631 C210.888,71.155 209.925,71.563 208.878,71.855 C207.83,72.148 206.751,72.295 205.641,72.295 z M215.071,58.888 C214.979,57.471 214.664,56.178 214.124,55.006 C213.584,53.835 212.891,52.826 212.044,51.979 C211.197,51.132 210.217,50.468 209.109,49.991 C208,49.514 206.813,49.274 205.55,49.274 C204.286,49.274 203.1,49.514 201.99,49.991 C200.882,50.469 199.902,51.132 199.055,51.979 C198.207,52.826 197.53,53.844 197.022,55.029 C196.514,56.216 196.213,57.502 196.12,58.888 L215.071,58.888 z" fill="#4D4D4D"/>
        <path d="M244.333,71.832 L242.022,71.832 L242.022,58.426 C242.022,55.313 241.582,53.049 240.705,51.631 C239.826,50.214 238.416,49.504 236.475,49.504 C235.458,49.504 234.449,49.689 233.448,50.059 C232.445,50.429 231.52,50.953 230.675,51.631 C229.826,52.31 229.08,53.103 228.433,54.011 C227.785,54.92 227.307,55.899 226.999,56.947 L226.999,71.831 L224.688,71.831 L224.688,47.793 L226.815,47.793 L226.815,53.525 C227.306,52.601 227.924,51.762 228.663,51.006 C229.403,50.25 230.219,49.604 231.114,49.064 C232.007,48.526 232.969,48.109 234.003,47.817 C235.035,47.523 236.091,47.377 237.168,47.377 C239.788,47.377 241.636,48.294 242.716,50.127 C243.795,51.961 244.334,54.588 244.334,58.009 L244.334,71.832 z" fill="#4D4D4D"/>
        <path d="M263.425,72.295 C261.759,72.295 260.219,71.948 258.802,71.254 C257.383,70.561 256.158,69.635 255.127,68.481 C254.096,67.326 253.294,66 252.724,64.505 C252.153,63.011 251.869,61.462 251.869,59.859 C251.869,58.195 252.146,56.609 252.7,55.098 C253.255,53.588 254.025,52.263 255.013,51.122 C255.999,49.983 257.161,49.073 258.502,48.395 C259.842,47.717 261.314,47.378 262.917,47.378 C263.964,47.378 264.957,47.532 265.899,47.839 C266.838,48.149 267.7,48.556 268.487,49.065 C269.272,49.573 269.989,50.167 270.635,50.845 C271.284,51.523 271.838,52.247 272.299,53.017 L272.299,38.087 L274.612,38.087 L274.612,68.597 C274.612,69.367 274.934,69.752 275.583,69.752 L275.583,71.833 C275.428,71.863 275.289,71.879 275.166,71.879 C275.044,71.879 274.919,71.879 274.796,71.879 C274.117,71.879 273.57,71.664 273.156,71.232 C272.74,70.8 272.532,70.323 272.532,69.798 L272.532,67.025 C271.544,68.628 270.227,69.907 268.58,70.861 C266.93,71.817 265.211,72.295 263.425,72.295 z M263.84,70.215 C264.673,70.215 265.566,70.045 266.521,69.706 C267.478,69.367 268.371,68.898 269.204,68.297 C270.035,67.695 270.735,67.01 271.307,66.238 C271.877,65.469 272.208,64.637 272.3,63.742 L272.3,55.837 C271.962,54.975 271.477,54.15 270.845,53.364 C270.213,52.579 269.496,51.9 268.697,51.331 C267.893,50.761 267.031,50.306 266.108,49.967 C265.183,49.629 264.289,49.459 263.427,49.459 C262.039,49.459 260.783,49.759 259.659,50.36 C258.533,50.962 257.562,51.747 256.746,52.717 C255.93,53.688 255.305,54.798 254.874,56.046 C254.443,57.294 254.227,58.581 254.227,59.905 C254.227,61.293 254.474,62.602 254.966,63.835 C255.459,65.068 256.145,66.163 257.024,67.117 C257.903,68.074 258.918,68.828 260.075,69.382 C261.229,69.937 262.483,70.215 263.84,70.215 z" fill="#4D4D4D"/>
        <path d="M291.947,72.295 C290.097,72.295 288.326,71.986 286.631,71.37 C284.935,70.755 283.456,69.83 282.192,68.598 L283.35,67.026 C284.643,68.198 285.984,69.06 287.37,69.615 C288.758,70.169 290.283,70.446 291.948,70.446 C294.043,70.446 295.731,70.007 297.009,69.129 C298.287,68.251 298.927,67.026 298.927,65.454 C298.927,64.715 298.765,64.091 298.442,63.583 C298.117,63.074 297.633,62.643 296.986,62.287 C296.337,61.933 295.536,61.617 294.582,61.34 C293.625,61.063 292.517,60.77 291.254,60.461 C289.898,60.153 288.718,59.846 287.716,59.537 C286.716,59.23 285.89,58.86 285.244,58.428 C284.597,57.997 284.113,57.472 283.788,56.856 C283.464,56.24 283.303,55.454 283.303,54.499 C283.303,53.298 283.533,52.249 283.996,51.355 C284.458,50.462 285.098,49.723 285.914,49.136 C286.73,48.55 287.669,48.112 288.733,47.819 C289.796,47.527 290.929,47.38 292.131,47.38 C294.01,47.38 295.676,47.696 297.124,48.328 C298.572,48.96 299.697,49.768 300.498,50.754 L299.204,52.001 C298.402,51.078 297.362,50.383 296.083,49.921 C294.804,49.46 293.44,49.229 291.992,49.229 C291.099,49.229 290.258,49.321 289.473,49.506 C288.686,49.691 288,49.984 287.415,50.384 C286.829,50.786 286.368,51.302 286.029,51.933 C285.69,52.566 285.52,53.313 285.52,54.176 C285.52,54.884 285.634,55.454 285.866,55.886 C286.097,56.317 286.467,56.688 286.976,56.996 C287.484,57.303 288.138,57.572 288.94,57.804 C289.742,58.034 290.698,58.289 291.807,58.567 C293.316,58.937 294.657,59.292 295.828,59.631 C297,59.969 297.978,60.386 298.763,60.878 C299.55,61.371 300.15,61.958 300.566,62.634 C300.983,63.313 301.191,64.176 301.191,65.223 C301.191,67.38 300.35,69.099 298.67,70.378 C296.994,71.655 294.751,72.295 291.947,72.295 z" fill="#4D4D4D"/>
        <path d="M346.538,71.832 L342.332,67.441 C341.067,68.919 339.581,70.098 337.87,70.977 C336.16,71.855 334.288,72.294 332.254,72.294 C330.866,72.294 329.557,72.093 328.324,71.692 C327.091,71.292 325.997,70.715 325.042,69.959 C324.085,69.203 323.332,68.295 322.778,67.232 C322.224,66.168 321.945,64.959 321.945,63.601 C321.945,62.492 322.136,61.475 322.523,60.551 C322.908,59.628 323.432,58.765 324.095,57.963 C324.756,57.162 325.527,56.414 326.405,55.721 C327.284,55.028 328.215,54.342 329.202,53.664 C328.34,52.74 327.607,51.9 327.006,51.144 C326.405,50.389 325.912,49.704 325.527,49.087 C325.142,48.47 324.866,47.878 324.696,47.307 C324.526,46.736 324.441,46.174 324.441,45.619 C324.441,44.665 324.65,43.764 325.066,42.916 C325.48,42.069 326.051,41.321 326.776,40.674 C327.5,40.026 328.348,39.517 329.318,39.149 C330.289,38.778 331.343,38.594 332.483,38.594 C333.532,38.594 334.51,38.755 335.418,39.079 C336.327,39.403 337.114,39.842 337.777,40.396 C338.438,40.95 338.956,41.614 339.325,42.384 C339.696,43.153 339.88,43.986 339.88,44.88 C339.88,45.803 339.679,46.674 339.279,47.491 C338.879,48.308 338.332,49.071 337.639,49.78 C336.945,50.489 336.143,51.182 335.234,51.86 C334.324,52.538 333.363,53.2 332.345,53.848 L342.237,64.202 C342.945,62.97 343.484,61.645 343.855,60.227 C344.226,58.81 344.41,57.314 344.41,55.743 L346.398,55.743 C346.398,57.592 346.158,59.356 345.681,61.035 C345.201,62.716 344.516,64.248 343.622,65.634 L349.586,71.829 L346.538,71.829 z M332.485,70.399 C334.243,70.399 335.837,70.006 337.27,69.22 C338.703,68.434 339.944,67.379 340.99,66.054 L330.545,55.052 C329.65,55.669 328.826,56.293 328.07,56.924 C327.315,57.556 326.646,58.218 326.06,58.912 C325.474,59.604 325.02,60.346 324.697,61.131 C324.372,61.917 324.21,62.772 324.21,63.697 C324.21,64.806 324.457,65.777 324.95,66.609 C325.442,67.442 326.083,68.142 326.868,68.712 C327.655,69.282 328.539,69.706 329.527,69.984 C330.514,70.26 331.5,70.399 332.485,70.399 z M326.615,45.575 C326.615,45.976 326.668,46.377 326.777,46.776 C326.883,47.178 327.1,47.648 327.424,48.186 C327.749,48.725 328.194,49.335 328.766,50.013 C329.335,50.691 330.083,51.508 331.006,52.463 C332.023,51.785 332.941,51.146 333.757,50.545 C334.573,49.944 335.275,49.35 335.861,48.765 C336.445,48.18 336.9,47.579 337.224,46.963 C337.547,46.346 337.709,45.684 337.709,44.975 C337.709,43.681 337.216,42.61 336.23,41.762 C335.244,40.916 333.995,40.49 332.485,40.49 C331.654,40.49 330.883,40.629 330.175,40.906 C329.466,41.184 328.841,41.553 328.303,42.016 C327.764,42.478 327.347,43.018 327.054,43.634 C326.76,44.25 326.615,44.898 326.615,45.575 z" fill="#4D4D4D"/>
        <path d="M136.811,113.341 L136.811,80.52 L158.168,80.52 L158.168,82.647 L139.169,82.647 L139.169,95.683 L155.302,95.683 L155.302,97.717 L139.169,97.717 L139.169,113.341 L136.811,113.341 z" fill="#4D4D4D"/>
        <path d="M168.432,113.804 C167.321,113.804 166.282,113.611 165.31,113.227 C164.339,112.842 163.491,112.317 162.767,111.655 C162.044,110.993 161.482,110.207 161.082,109.298 C160.68,108.388 160.48,107.41 160.48,106.362 C160.48,105.316 160.726,104.359 161.219,103.497 C161.711,102.634 162.405,101.886 163.3,101.254 C164.193,100.623 165.248,100.13 166.466,99.775 C167.683,99.421 169.032,99.244 170.51,99.244 C171.804,99.244 173.115,99.36 174.439,99.591 C175.764,99.822 176.95,100.138 177.999,100.538 L177.999,98.181 C177.999,95.9 177.35,94.09 176.056,92.75 C174.763,91.408 173.005,90.738 170.786,90.738 C169.585,90.738 168.329,90.985 167.019,91.478 C165.708,91.97 164.391,92.679 163.067,93.604 L162.144,92.033 C165.256,89.936 168.183,88.889 170.927,88.889 C173.822,88.889 176.111,89.73 177.791,91.408 C179.469,93.088 180.31,95.407 180.31,98.366 L180.31,110.107 C180.31,110.877 180.634,111.263 181.281,111.263 L181.281,113.343 C181.126,113.373 180.981,113.389 180.842,113.389 C180.703,113.389 180.571,113.389 180.449,113.389 C179.894,113.389 179.385,113.198 178.923,112.812 C178.462,112.427 178.23,111.927 178.23,111.309 L178.23,109.322 C177.12,110.77 175.711,111.881 174.001,112.65 C172.29,113.417 170.434,113.804 168.432,113.804 z M168.893,111.955 C170.68,111.955 172.329,111.624 173.839,110.961 C175.349,110.299 176.474,109.398 177.213,108.257 C177.737,107.641 178,107.024 178,106.408 L178,102.154 C175.657,101.292 173.253,100.86 170.787,100.86 C168.383,100.86 166.443,101.353 164.963,102.339 C163.483,103.326 162.744,104.62 162.744,106.222 C162.744,107.024 162.897,107.778 163.206,108.487 C163.514,109.196 163.945,109.804 164.5,110.313 C165.054,110.821 165.708,111.223 166.465,111.515 C167.22,111.808 168.03,111.955 168.893,111.955 z" fill="#4D4D4D"/>
        <path d="M225.012,113.341 L222.7,113.341 L222.7,99.935 C222.7,96.884 222.23,94.635 221.29,93.186 C220.35,91.738 218.91,91.014 216.967,91.014 C215.95,91.014 214.996,91.199 214.102,91.568 C213.209,91.939 212.4,92.454 211.676,93.117 C210.951,93.781 210.319,94.567 209.78,95.475 C209.24,96.384 208.817,97.393 208.508,98.503 L208.508,113.342 L206.198,113.342 L206.198,99.936 C206.198,96.854 205.735,94.598 204.81,93.164 C203.885,91.731 202.453,91.015 200.511,91.015 C199.525,91.015 198.585,91.192 197.692,91.546 C196.798,91.9 195.982,92.409 195.241,93.071 C194.502,93.734 193.854,94.52 193.3,95.429 C192.744,96.338 192.313,97.347 192.005,98.456 L192.005,113.341 L189.694,113.341 L189.694,89.303 L191.82,89.303 L191.82,95.035 C192.837,93.094 194.147,91.584 195.75,90.505 C197.351,89.427 199.124,88.887 201.066,88.887 C203.1,88.887 204.741,89.488 205.989,90.69 C207.236,91.891 207.984,93.463 208.232,95.405 C210.573,91.06 213.717,88.887 217.662,88.887 C220.312,88.887 222.199,89.819 223.324,91.684 C224.448,93.55 225.012,96.161 225.012,99.519 L225.012,113.341 z" fill="#4D4D4D"/>
        <path d="M234.164,83.85 L234.164,79.597 L236.474,79.597 L236.474,83.85 L234.164,83.85 z M234.164,113.341 L234.164,89.303 L236.474,89.303 L236.474,113.341 L234.164,113.341 z" fill="#4D4D4D"/>
        <path d="M246.043,79.597 L248.401,79.597 L248.401,108.581 C248.401,109.474 248.656,110.183 249.165,110.707 C249.673,111.232 250.373,111.493 251.267,111.493 C251.606,111.493 252.014,111.454 252.493,111.378 C252.97,111.3 253.409,111.185 253.81,111.031 L254.272,112.88 C253.747,113.096 253.1,113.273 252.33,113.411 C251.56,113.55 250.896,113.619 250.342,113.619 C249.049,113.619 248.007,113.227 247.222,112.441 C246.435,111.655 246.043,110.6 246.043,109.275 L246.043,79.597 z" fill="#4D4D4D"/>
        <path d="M260.791,121.523 C261.067,121.523 261.477,121.507 262.015,121.477 C262.554,121.446 262.964,121.353 263.24,121.2 C263.364,121.137 263.509,120.991 263.681,120.76 C263.849,120.529 264.073,120.136 264.35,119.582 C264.628,119.027 264.982,118.248 265.413,117.247 C265.844,116.244 266.383,114.943 267.031,113.34 L256.307,89.302 L258.758,89.302 L268.281,111.075 L277.202,89.302 L279.466,89.302 L266.292,120.922 C265.83,122.032 265.221,122.763 264.466,123.117 C263.71,123.471 262.795,123.649 261.715,123.649 C261.56,123.649 261.407,123.649 261.252,123.649 C261.1,123.649 260.945,123.633 260.792,123.602 L260.792,121.523 z" fill="#4D4D4D"/>
        <path d="M324.859,85.097 L313.95,85.097 L313.95,113.341 L308.773,113.341 L308.773,85.097 L297.817,85.097 L297.817,80.52 L324.859,80.52 L324.859,85.097 z" fill="#4D4D4D"/>
        <path d="M341.963,113.804 C340.083,113.804 338.371,113.472 336.832,112.81 C335.292,112.148 333.974,111.247 332.88,110.106 C331.785,108.967 330.937,107.641 330.337,106.131 C329.737,104.62 329.436,103.017 329.436,101.322 C329.436,99.628 329.736,98.017 330.337,96.492 C330.938,94.967 331.785,93.626 332.88,92.47 C333.974,91.314 335.292,90.406 336.832,89.742 C338.372,89.08 340.099,88.748 342.009,88.748 C343.888,88.748 345.591,89.087 347.117,89.765 C348.642,90.443 349.945,91.345 351.023,92.469 C352.101,93.594 352.927,94.903 353.496,96.398 C354.066,97.893 354.35,99.457 354.35,101.09 C354.35,101.461 354.335,101.807 354.304,102.131 C354.275,102.455 354.244,102.725 354.212,102.939 L334.843,102.939 C334.937,104.019 335.191,104.989 335.606,105.851 C336.022,106.715 336.563,107.463 337.224,108.094 C337.887,108.726 338.641,109.212 339.49,109.55 C340.337,109.889 341.224,110.059 342.147,110.059 C342.825,110.059 343.496,109.974 344.159,109.804 C344.82,109.634 345.431,109.388 345.985,109.065 C346.54,108.74 347.032,108.348 347.463,107.885 C347.894,107.423 348.233,106.916 348.48,106.36 L352.826,107.608 C351.993,109.427 350.613,110.914 348.687,112.069 C346.763,113.226 344.52,113.804 341.963,113.804 z M349.313,99.427 C349.22,98.41 348.967,97.47 348.55,96.607 C348.133,95.745 347.602,95.013 346.954,94.412 C346.307,93.811 345.552,93.341 344.69,93.002 C343.828,92.664 342.917,92.494 341.963,92.494 C341.006,92.494 340.105,92.664 339.258,93.002 C338.411,93.341 337.665,93.811 337.016,94.412 C336.368,95.013 335.846,95.745 335.446,96.607 C335.044,97.47 334.797,98.41 334.705,99.427 L349.313,99.427 z" fill="#4D4D4D"/>
        <path d="M369.792,113.804 C368.804,113.804 367.811,113.727 366.809,113.573 C365.808,113.418 364.823,113.197 363.851,112.902 C362.881,112.61 361.955,112.255 361.079,111.839 C360.2,111.424 359.42,110.954 358.744,110.43 L360.87,107.009 C363.828,109.073 366.77,110.106 369.698,110.106 C371.24,110.106 372.456,109.813 373.35,109.227 C374.243,108.642 374.691,107.81 374.691,106.731 C374.691,105.714 374.19,104.967 373.189,104.488 C372.186,104.011 370.591,103.511 368.404,102.986 C366.893,102.616 365.6,102.239 364.522,101.853 C363.442,101.468 362.564,101.037 361.887,100.559 C361.207,100.082 360.716,99.513 360.408,98.849 C360.099,98.186 359.946,97.392 359.946,96.468 C359.946,95.235 360.193,94.141 360.684,93.186 C361.178,92.232 361.847,91.423 362.697,90.76 C363.542,90.098 364.545,89.598 365.7,89.257 C366.858,88.919 368.098,88.749 369.422,88.749 C371.178,88.749 372.873,89.026 374.508,89.582 C376.14,90.136 377.605,90.892 378.899,91.846 L376.726,94.943 C374.414,93.217 371.949,92.354 369.33,92.354 C368.034,92.354 366.94,92.624 366.048,93.163 C365.152,93.702 364.706,94.558 364.706,95.729 C364.706,96.221 364.799,96.638 364.983,96.977 C365.168,97.316 365.469,97.609 365.885,97.855 C366.3,98.102 366.848,98.325 367.525,98.526 C368.202,98.727 369.036,98.95 370.021,99.196 C371.685,99.597 373.118,99.998 374.32,100.398 C375.523,100.799 376.517,101.268 377.301,101.807 C378.088,102.347 378.667,102.979 379.035,103.702 C379.406,104.428 379.59,105.297 379.59,106.315 C379.59,107.455 379.36,108.488 378.898,109.412 C378.435,110.336 377.781,111.122 376.933,111.769 C376.086,112.417 375.052,112.918 373.836,113.272 C372.618,113.626 371.269,113.804 369.792,113.804 z" fill="#4D4D4D"/>
        <path d="M399.606,112.093 C398.928,112.401 398.027,112.748 396.903,113.134 C395.778,113.518 394.552,113.711 393.228,113.711 C392.426,113.711 391.68,113.603 390.985,113.387 C390.293,113.172 389.675,112.849 389.137,112.417 C388.598,111.985 388.174,111.423 387.866,110.73 C387.556,110.036 387.403,109.197 387.403,108.21 L387.403,93.095 L384.167,93.095 L384.167,89.166 L387.403,89.166 L387.403,81.215 L392.489,81.215 L392.489,89.166 L397.759,89.166 L397.759,93.095 L392.489,93.095 L392.489,106.593 C392.489,107.456 392.734,108.081 393.228,108.465 C393.719,108.85 394.322,109.043 395.03,109.043 C395.739,109.043 396.417,108.919 397.064,108.672 C397.713,108.426 398.189,108.226 398.498,108.071 L399.606,112.093 z" fill="#4D4D4D"/>
      </g>
      <path d="M0.394,75.823 L38.13,75.823 L38.13,113.559 L0.394,113.559 z" fill="#C30080"/>
      <path d="M42.847,38.087 L80.583,38.087 L80.583,113.559 L42.847,113.559 z" fill="#274695"/>
      <path d="M85.3,0.351 L123.035,0.351 L123.035,113.559 L85.3,113.559 z" fill="#00A4E8"/>
    </g>
  </g>
</svg>
