<?xml version="1.0" encoding="UTF-8"?>
<!DOCTYPE svg PUBLIC "-//W3C//DTD SVG 1.1//EN" "http://www.w3.org/Graphics/SVG/1.1/DTD/svg11.dtd">
<svg version="1.1" xmlns="http://www.w3.org/2000/svg" xmlns:xlink="http://www.w3.org/1999/xlink" x="0" y="0" width="424" height="160" viewBox="0, 0, 424, 160">
  <g id="Layer_1">
    <g>
      <g>
        <path d="M145.019,75.773 L145.019,40.983 L167.658,40.983 L167.658,43.237 L147.519,43.237 L147.519,57.055 L164.62,57.055 L164.62,59.21 L147.519,59.21 L147.519,75.773 L145.019,75.773 z" fill="#4D4D4D"/>
        <path d="M187.551,52.499 C185.232,52.565 183.222,53.243 181.524,54.532 C179.826,55.823 178.633,57.595 177.947,59.849 L177.947,75.774 L175.498,75.774 L175.498,50.294 L177.801,50.294 L177.801,56.566 C178.683,54.77 179.85,53.307 181.305,52.18 C182.758,51.053 184.318,50.409 185.984,50.244 C186.31,50.244 186.604,50.236 186.866,50.22 C187.128,50.204 187.356,50.196 187.553,50.196 L187.553,52.499 z" fill="#4D4D4D"/>
        <path d="M194.656,44.512 L194.656,40.004 L197.105,40.004 L197.105,44.512 L194.656,44.512 z M194.656,75.773 L194.656,50.293 L197.105,50.293 L197.105,75.773 L194.656,75.773 z" fill="#4D4D4D"/>
        <path d="M217.979,76.264 C216.182,76.264 214.516,75.912 212.981,75.21 C211.445,74.508 210.115,73.544 208.988,72.318 C207.861,71.093 206.978,69.681 206.342,68.08 C205.705,66.48 205.387,64.766 205.387,62.935 C205.387,61.138 205.705,59.449 206.342,57.863 C206.979,56.279 207.853,54.891 208.963,53.699 C210.074,52.507 211.397,51.567 212.933,50.881 C214.468,50.195 216.118,49.853 217.882,49.853 C219.679,49.853 221.337,50.205 222.857,50.907 C224.375,51.61 225.689,52.556 226.8,53.749 C227.911,54.942 228.784,56.33 229.421,57.914 C230.06,59.499 230.378,61.173 230.378,62.936 C230.378,63.1 230.368,63.303 230.353,63.548 C230.338,63.793 230.33,63.948 230.33,64.014 L207.936,64.014 C208.035,65.484 208.376,66.848 208.964,68.106 C209.553,69.364 210.296,70.45 211.194,71.364 C212.092,72.279 213.13,72.998 214.306,73.521 C215.482,74.043 216.74,74.303 218.079,74.303 C218.96,74.303 219.833,74.182 220.7,73.936 C221.565,73.692 222.366,73.357 223.1,72.932 C223.834,72.508 224.489,71.993 225.061,71.388 C225.631,70.785 226.081,70.123 226.409,69.404 L228.563,69.993 C228.172,70.907 227.624,71.749 226.922,72.516 C226.219,73.285 225.402,73.945 224.473,74.5 C223.541,75.056 222.52,75.488 221.41,75.799 C220.299,76.108 219.156,76.264 217.979,76.264 z M227.975,62.053 C227.877,60.551 227.543,59.18 226.971,57.938 C226.399,56.697 225.664,55.627 224.766,54.729 C223.868,53.831 222.83,53.128 221.655,52.622 C220.479,52.116 219.221,51.862 217.882,51.862 C216.543,51.862 215.286,52.116 214.109,52.622 C212.934,53.129 211.896,53.831 210.998,54.729 C210.099,55.627 209.381,56.706 208.843,57.962 C208.304,59.22 207.985,60.584 207.887,62.053 L227.975,62.053 z" fill="#4D4D4D"/>
        <path d="M258.992,75.773 L256.543,75.773 L256.543,61.564 C256.543,58.264 256.076,55.864 255.147,54.361 C254.215,52.859 252.721,52.107 250.663,52.107 C249.585,52.107 248.515,52.303 247.454,52.695 C246.391,53.087 245.411,53.643 244.515,54.361 C243.615,55.081 242.824,55.922 242.138,56.884 C241.452,57.848 240.945,58.885 240.618,59.996 L240.618,75.772 L238.169,75.772 L238.169,50.293 L240.423,50.293 L240.423,56.369 C240.944,55.39 241.599,54.5 242.382,53.699 C243.167,52.898 244.032,52.213 244.98,51.64 C245.927,51.07 246.947,50.628 248.043,50.318 C249.137,50.007 250.256,49.852 251.398,49.852 C254.175,49.852 256.134,50.824 257.279,52.767 C258.422,54.711 258.994,57.496 258.994,61.122 L258.994,75.773 z" fill="#4D4D4D"/>
        <path d="M279.23,76.264 C277.464,76.264 275.832,75.896 274.33,75.161 C272.826,74.426 271.527,73.445 270.434,72.221 C269.341,70.997 268.491,69.592 267.887,68.007 C267.282,66.423 266.981,64.781 266.981,63.082 C266.981,61.318 267.274,59.637 267.862,58.035 C268.45,56.435 269.266,55.03 270.313,53.821 C271.358,52.613 272.59,51.649 274.012,50.93 C275.432,50.212 276.992,49.852 278.692,49.852 C279.801,49.852 280.854,50.015 281.852,50.341 C282.848,50.669 283.762,51.101 284.596,51.64 C285.428,52.179 286.188,52.808 286.873,53.527 C287.561,54.246 288.148,55.013 288.637,55.83 L288.637,40.004 L291.088,40.004 L291.088,72.344 C291.088,73.16 291.43,73.569 292.117,73.569 L292.117,75.774 C291.953,75.806 291.806,75.823 291.676,75.823 C291.546,75.823 291.414,75.823 291.283,75.823 C290.564,75.823 289.984,75.595 289.545,75.137 C289.104,74.68 288.883,74.174 288.883,73.617 L288.883,70.678 C287.836,72.377 286.44,73.733 284.694,74.744 C282.945,75.758 281.123,76.264 279.23,76.264 z M279.67,74.059 C280.553,74.059 281.5,73.879 282.512,73.52 C283.526,73.161 284.473,72.663 285.356,72.026 C286.237,71.388 286.979,70.662 287.585,69.844 C288.189,69.029 288.54,68.147 288.638,67.198 L288.638,58.819 C288.279,57.905 287.765,57.031 287.095,56.197 C286.425,55.365 285.665,54.646 284.818,54.042 C283.966,53.438 283.052,52.956 282.074,52.597 C281.094,52.238 280.146,52.058 279.232,52.058 C277.761,52.058 276.429,52.376 275.238,53.013 C274.045,53.651 273.015,54.483 272.15,55.512 C271.285,56.541 270.623,57.717 270.166,59.04 C269.709,60.363 269.48,61.727 269.48,63.131 C269.48,64.602 269.742,65.99 270.263,67.297 C270.786,68.604 271.513,69.764 272.445,70.776 C273.377,71.79 274.453,72.589 275.679,73.176 C276.902,73.765 278.232,74.059 279.67,74.059 z" fill="#4D4D4D"/>
        <path d="M309.464,76.264 C307.503,76.264 305.625,75.937 303.828,75.284 C302.031,74.632 300.464,73.651 299.123,72.345 L300.35,70.679 C301.721,71.921 303.143,72.835 304.612,73.423 C306.083,74.011 307.701,74.304 309.464,74.304 C311.685,74.304 313.474,73.839 314.829,72.908 C316.184,71.978 316.862,70.679 316.862,69.013 C316.862,68.229 316.69,67.568 316.348,67.029 C316.004,66.49 315.491,66.033 314.805,65.656 C314.117,65.281 313.268,64.946 312.257,64.652 C311.242,64.358 310.067,64.048 308.729,63.72 C307.292,63.394 306.042,63.068 304.979,62.741 C303.918,62.415 303.043,62.023 302.358,61.565 C301.672,61.108 301.159,60.552 300.815,59.899 C300.471,59.246 300.301,58.413 300.301,57.4 C300.301,56.127 300.546,55.015 301.035,54.068 C301.525,53.121 302.203,52.338 303.068,51.716 C303.934,51.094 304.929,50.63 306.056,50.32 C307.184,50.01 308.384,49.854 309.658,49.854 C311.65,49.854 313.417,50.189 314.951,50.859 C316.486,51.529 317.678,52.386 318.527,53.431 L317.156,54.753 C316.306,53.774 315.203,53.038 313.848,52.548 C312.492,52.059 311.046,51.814 309.511,51.814 C308.564,51.814 307.673,51.912 306.841,52.108 C306.007,52.304 305.28,52.615 304.659,53.039 C304.038,53.465 303.55,54.012 303.19,54.681 C302.831,55.351 302.651,56.143 302.651,57.058 C302.651,57.809 302.772,58.413 303.018,58.871 C303.262,59.328 303.655,59.721 304.194,60.047 C304.733,60.373 305.426,60.658 306.276,60.904 C307.126,61.148 308.139,61.418 309.315,61.713 C310.915,62.105 312.336,62.481 313.577,62.84 C314.819,63.199 315.856,63.641 316.688,64.162 C317.522,64.685 318.159,65.307 318.6,66.024 C319.042,66.743 319.262,67.658 319.262,68.768 C319.262,71.054 318.371,72.876 316.59,74.232 C314.813,75.586 312.436,76.264 309.464,76.264 z" fill="#4D4D4D"/>
        <path d="M367.33,75.774 L362.871,71.12 C361.531,72.687 359.955,73.936 358.142,74.868 C356.329,75.799 354.345,76.264 352.189,76.264 C350.718,76.264 349.33,76.051 348.023,75.626 C346.716,75.202 345.556,74.59 344.544,73.789 C343.53,72.988 342.731,72.025 342.144,70.898 C341.557,69.771 341.261,68.489 341.261,67.05 C341.261,65.874 341.464,64.796 341.874,63.817 C342.282,62.838 342.837,61.923 343.54,61.073 C344.241,60.224 345.058,59.431 345.989,58.697 C346.921,57.962 347.907,57.235 348.954,56.516 C348.04,55.537 347.263,54.646 346.626,53.845 C345.989,53.045 345.466,52.319 345.058,51.665 C344.65,51.011 344.357,50.383 344.177,49.778 C343.997,49.173 343.907,48.577 343.907,47.989 C343.907,46.977 344.128,46.022 344.569,45.123 C345.008,44.226 345.614,43.433 346.382,42.747 C347.15,42.06 348.048,41.521 349.077,41.13 C350.106,40.737 351.223,40.542 352.432,40.542 C353.543,40.542 354.58,40.713 355.543,41.056 C356.506,41.4 357.34,41.865 358.043,42.452 C358.744,43.04 359.293,43.743 359.684,44.559 C360.077,45.375 360.272,46.258 360.272,47.205 C360.272,48.184 360.059,49.107 359.635,49.973 C359.211,50.839 358.631,51.648 357.897,52.399 C357.161,53.151 356.311,53.885 355.348,54.604 C354.383,55.323 353.364,56.025 352.285,56.711 L362.771,67.687 C363.521,66.381 364.093,64.976 364.486,63.473 C364.879,61.971 365.074,60.385 365.074,58.72 L367.181,58.72 C367.181,60.68 366.927,62.55 366.421,64.33 C365.913,66.111 365.187,67.735 364.239,69.205 L370.561,75.771 L367.33,75.771 z M352.434,74.255 C354.297,74.255 355.987,73.839 357.506,73.006 C359.025,72.173 360.34,71.054 361.449,69.65 L350.377,57.988 C349.428,58.642 348.555,59.303 347.754,59.972 C346.953,60.642 346.244,61.344 345.623,62.079 C345.002,62.813 344.521,63.599 344.178,64.431 C343.834,65.264 343.662,66.171 343.662,67.151 C343.662,68.327 343.924,69.356 344.447,70.238 C344.968,71.121 345.648,71.863 346.48,72.467 C347.314,73.071 348.251,73.521 349.298,73.815 C350.344,74.108 351.389,74.255 352.434,74.255 z M346.211,47.942 C346.211,48.367 346.268,48.792 346.383,49.215 C346.496,49.641 346.725,50.139 347.069,50.71 C347.413,51.281 347.885,51.928 348.491,52.646 C349.095,53.365 349.887,54.231 350.866,55.243 C351.944,54.525 352.917,53.847 353.782,53.21 C354.647,52.573 355.391,51.944 356.012,51.323 C356.631,50.703 357.114,50.066 357.457,49.413 C357.799,48.759 357.971,48.058 357.971,47.306 C357.971,45.934 357.448,44.799 356.403,43.9 C355.358,43.003 354.034,42.552 352.434,42.552 C351.553,42.552 350.735,42.699 349.985,42.993 C349.233,43.288 348.571,43.679 348.001,44.169 C347.429,44.659 346.987,45.232 346.677,45.884 C346.365,46.538 346.211,47.224 346.211,47.942 z" fill="#4D4D4D"/>
        <path d="M145.019,119.774 L145.019,84.984 L167.658,84.984 L167.658,87.238 L147.519,87.238 L147.519,101.056 L164.62,101.056 L164.62,103.212 L147.519,103.212 L147.519,119.774 L145.019,119.774 z" fill="#4D4D4D"/>
        <path d="M178.537,120.265 C177.36,120.265 176.258,120.06 175.228,119.653 C174.199,119.245 173.3,118.689 172.533,117.987 C171.766,117.285 171.17,116.452 170.746,115.488 C170.32,114.524 170.108,113.487 170.108,112.376 C170.108,111.267 170.369,110.253 170.892,109.339 C171.413,108.424 172.149,107.632 173.097,106.962 C174.044,106.293 175.162,105.77 176.453,105.394 C177.743,105.019 179.173,104.831 180.74,104.831 C182.112,104.831 183.501,104.954 184.905,105.199 C186.309,105.444 187.567,105.779 188.678,106.203 L188.678,103.704 C188.678,101.287 187.991,99.368 186.619,97.947 C185.248,96.525 183.385,95.815 181.033,95.815 C179.76,95.815 178.428,96.077 177.04,96.599 C175.65,97.121 174.254,97.872 172.851,98.853 L171.872,97.187 C175.171,94.965 178.273,93.855 181.182,93.855 C184.251,93.855 186.677,94.746 188.458,96.525 C190.237,98.306 191.128,100.764 191.128,103.9 L191.128,116.346 C191.128,117.162 191.472,117.571 192.157,117.571 L192.157,119.776 C191.993,119.808 191.839,119.825 191.692,119.825 C191.545,119.825 191.405,119.825 191.275,119.825 C190.687,119.825 190.148,119.622 189.658,119.213 C189.169,118.805 188.923,118.275 188.923,117.62 L188.923,115.514 C187.747,117.049 186.253,118.226 184.441,119.041 C182.627,119.855 180.66,120.265 178.537,120.265 z M179.026,118.305 C180.92,118.305 182.668,117.954 184.269,117.251 C185.869,116.549 187.062,115.594 187.845,114.385 C188.401,113.732 188.679,113.078 188.679,112.425 L188.679,107.916 C186.196,107.002 183.648,106.544 181.034,106.544 C178.486,106.544 176.429,107.067 174.86,108.112 C173.292,109.158 172.508,110.53 172.508,112.228 C172.508,113.078 172.67,113.877 172.998,114.629 C173.324,115.38 173.781,116.025 174.369,116.564 C174.957,117.103 175.65,117.529 176.452,117.838 C177.253,118.149 178.111,118.305 179.026,118.305 z" fill="#4D4D4D"/>
        <path d="M238.512,119.774 L236.061,119.774 L236.061,105.564 C236.061,102.33 235.563,99.946 234.567,98.41 C233.572,96.875 232.044,96.107 229.985,96.107 C228.908,96.107 227.895,96.303 226.949,96.695 C226.001,97.088 225.143,97.634 224.376,98.337 C223.608,99.04 222.938,99.873 222.367,100.836 C221.794,101.8 221.345,102.869 221.018,104.046 L221.018,119.775 L218.569,119.775 L218.569,105.565 C218.569,102.298 218.079,99.906 217.098,98.386 C216.118,96.867 214.6,96.108 212.541,96.108 C211.496,96.108 210.5,96.296 209.553,96.671 C208.605,97.047 207.74,97.586 206.955,98.288 C206.173,98.991 205.485,99.824 204.897,100.787 C204.309,101.751 203.852,102.82 203.525,103.996 L203.525,119.774 L201.076,119.774 L201.076,94.294 L203.329,94.294 L203.329,100.37 C204.408,98.312 205.796,96.712 207.494,95.568 C209.192,94.425 211.072,93.853 213.13,93.853 C215.285,93.853 217.025,94.49 218.348,95.764 C219.671,97.037 220.464,98.703 220.725,100.762 C223.207,96.156 226.539,93.853 230.721,93.853 C233.531,93.853 235.531,94.841 236.723,96.818 C237.914,98.795 238.512,101.563 238.512,105.123 L238.512,119.774 z" fill="#4D4D4D"/>
        <path d="M248.213,88.513 L248.213,84.005 L250.662,84.005 L250.662,88.513 L248.213,88.513 z M248.213,119.774 L248.213,94.294 L250.662,94.294 L250.662,119.774 L248.213,119.774 z" fill="#4D4D4D"/>
        <path d="M260.805,84.004 L263.305,84.004 L263.305,114.727 C263.305,115.674 263.575,116.426 264.114,116.981 C264.653,117.537 265.395,117.814 266.343,117.814 C266.702,117.814 267.134,117.773 267.642,117.692 C268.148,117.61 268.613,117.488 269.038,117.324 L269.528,119.284 C268.971,119.513 268.286,119.701 267.469,119.847 C266.653,119.994 265.949,120.068 265.362,120.068 C263.991,120.068 262.887,119.652 262.055,118.819 C261.221,117.986 260.805,116.867 260.805,115.463 L260.805,84.004 z" fill="#4D4D4D"/>
        <path d="M276.438,128.446 C276.731,128.446 277.165,128.429 277.735,128.397 C278.307,128.364 278.741,128.266 279.034,128.103 C279.165,128.037 279.319,127.882 279.501,127.637 C279.679,127.392 279.917,126.976 280.21,126.388 C280.505,125.8 280.88,124.974 281.337,123.913 C281.794,122.85 282.366,121.471 283.052,119.772 L271.685,94.292 L274.283,94.292 L284.377,117.371 L293.834,94.292 L296.234,94.292 L282.269,127.809 C281.779,128.985 281.134,129.76 280.333,130.136 C279.532,130.511 278.562,130.699 277.417,130.699 C277.253,130.699 277.091,130.699 276.927,130.699 C276.765,130.699 276.601,130.682 276.439,130.65 L276.439,128.446 z" fill="#4D4D4D"/>
        <path d="M344.35,89.835 L332.787,89.835 L332.787,119.774 L327.299,119.774 L327.299,89.835 L315.686,89.835 L315.686,84.984 L344.35,84.984 L344.35,89.835 z" fill="#4D4D4D"/>
        <path d="M362.48,120.264 C360.488,120.264 358.673,119.912 357.042,119.21 C355.409,118.508 354.012,117.553 352.852,116.344 C351.692,115.136 350.793,113.731 350.158,112.13 C349.521,110.529 349.202,108.83 349.202,107.033 C349.202,105.237 349.52,103.53 350.158,101.913 C350.794,100.296 351.692,98.875 352.852,97.65 C354.012,96.424 355.409,95.462 357.042,94.758 C358.674,94.056 360.504,93.704 362.529,93.704 C364.521,93.704 366.326,94.064 367.943,94.782 C369.56,95.501 370.941,96.457 372.085,97.649 C373.227,98.841 374.102,100.229 374.705,101.813 C375.31,103.398 375.611,105.056 375.611,106.787 C375.611,107.18 375.595,107.547 375.562,107.89 C375.531,108.234 375.498,108.52 375.464,108.747 L354.934,108.747 C355.033,109.892 355.302,110.92 355.742,111.834 C356.184,112.749 356.757,113.542 357.457,114.211 C358.16,114.881 358.96,115.396 359.859,115.755 C360.757,116.114 361.697,116.294 362.675,116.294 C363.395,116.294 364.105,116.204 364.809,116.024 C365.509,115.844 366.156,115.583 366.744,115.24 C367.332,114.896 367.853,114.48 368.31,113.99 C368.767,113.5 369.126,112.962 369.388,112.373 L373.995,113.696 C373.112,115.624 371.649,117.2 369.608,118.425 C367.568,119.651 365.191,120.264 362.48,120.264 z M370.271,105.024 C370.173,103.946 369.904,102.95 369.462,102.035 C369.021,101.121 368.458,100.345 367.771,99.708 C367.085,99.071 366.285,98.573 365.371,98.214 C364.457,97.855 363.492,97.675 362.48,97.675 C361.466,97.675 360.511,97.855 359.613,98.214 C358.715,98.573 357.924,99.071 357.236,99.708 C356.55,100.345 355.996,101.121 355.572,102.035 C355.146,102.95 354.884,103.946 354.787,105.024 L370.271,105.024 z" fill="#4D4D4D"/>
        <path d="M391.979,120.265 C390.932,120.265 389.879,120.183 388.818,120.02 C387.757,119.855 386.712,119.62 385.682,119.309 C384.654,118.999 383.672,118.623 382.743,118.182 C381.811,117.742 380.986,117.243 380.268,116.688 L382.522,113.062 C385.658,115.25 388.776,116.345 391.879,116.345 C393.514,116.345 394.803,116.034 395.75,115.412 C396.698,114.793 397.172,113.91 397.172,112.767 C397.172,111.688 396.642,110.896 395.581,110.39 C394.517,109.883 392.827,109.354 390.508,108.798 C388.906,108.405 387.535,108.006 386.393,107.597 C385.249,107.188 384.318,106.731 383.6,106.225 C382.879,105.718 382.358,105.116 382.033,104.411 C381.704,103.71 381.542,102.868 381.542,101.889 C381.542,100.582 381.805,99.422 382.326,98.41 C382.848,97.397 383.557,96.541 384.458,95.838 C385.354,95.135 386.417,94.605 387.642,94.244 C388.87,93.887 390.184,93.706 391.587,93.706 C393.448,93.706 395.245,94 396.978,94.589 C398.708,95.176 400.262,95.978 401.633,96.989 L399.329,100.271 C396.879,98.443 394.266,97.528 391.49,97.528 C390.116,97.528 388.956,97.813 388.01,98.384 C387.061,98.957 386.589,99.864 386.589,101.104 C386.589,101.627 386.686,102.069 386.882,102.427 C387.078,102.786 387.397,103.098 387.839,103.359 C388.277,103.62 388.858,103.856 389.577,104.07 C390.294,104.283 391.178,104.519 392.223,104.78 C393.986,105.204 395.505,105.63 396.779,106.054 C398.055,106.479 399.107,106.977 399.939,107.548 C400.773,108.119 401.387,108.79 401.777,109.557 C402.171,110.326 402.366,111.246 402.366,112.326 C402.366,113.535 402.121,114.63 401.632,115.609 C401.142,116.589 400.448,117.422 399.549,118.107 C398.651,118.794 397.555,119.326 396.267,119.701 C394.975,120.076 393.546,120.265 391.979,120.265 z" fill="#4D4D4D"/>
        <path d="M423.583,118.451 C422.863,118.778 421.909,119.145 420.717,119.554 C419.525,119.962 418.225,120.166 416.822,120.166 C415.971,120.166 415.181,120.052 414.445,119.823 C413.711,119.595 413.056,119.252 412.486,118.794 C411.914,118.337 411.465,117.741 411.138,117.006 C410.81,116.271 410.648,115.381 410.648,114.335 L410.648,98.313 L407.217,98.313 L407.217,94.148 L410.648,94.148 L410.648,85.72 L416.039,85.72 L416.039,94.148 L421.625,94.148 L421.625,98.313 L416.039,98.313 L416.039,112.621 C416.039,113.536 416.299,114.198 416.822,114.605 C417.342,115.014 417.982,115.218 418.732,115.218 C419.484,115.218 420.203,115.087 420.888,114.825 C421.576,114.564 422.081,114.352 422.408,114.188 L423.583,118.451 z" fill="#4D4D4D"/>
      </g>
      <g>
        <path d="M149.891,155.545 C149.471,155.545 149.054,155.482 148.642,155.357 C148.228,155.23 147.836,155.059 147.466,154.841 C147.095,154.624 146.759,154.369 146.458,154.075 C146.156,153.78 145.901,153.459 145.69,153.108 L145.69,155.335 L145.018,155.335 L145.018,140.005 L145.733,140.005 L145.733,146.894 C146.264,146.109 146.887,145.472 147.602,144.982 C148.315,144.493 149.148,144.248 150.1,144.248 C150.884,144.248 151.588,144.416 152.211,144.752 C152.833,145.088 153.361,145.522 153.796,146.054 C154.23,146.586 154.563,147.192 154.793,147.871 C155.024,148.55 155.14,149.232 155.14,149.918 C155.14,150.66 155.007,151.371 154.741,152.049 C154.475,152.729 154.104,153.327 153.629,153.845 C153.153,154.364 152.597,154.777 151.96,155.084 C151.323,155.391 150.633,155.545 149.891,155.545 z M149.807,154.873 C150.48,154.873 151.095,154.729 151.656,154.442 C152.216,154.155 152.702,153.78 153.115,153.319 C153.528,152.856 153.846,152.329 154.07,151.733 C154.295,151.138 154.406,150.533 154.406,149.917 C154.406,149.272 154.299,148.649 154.082,148.048 C153.864,147.446 153.563,146.914 153.178,146.452 C152.793,145.989 152.328,145.619 151.782,145.339 C151.237,145.06 150.641,144.919 149.998,144.919 C149.508,144.919 149.046,145.003 148.612,145.171 C148.177,145.339 147.778,145.564 147.415,145.843 C147.051,146.123 146.728,146.446 146.448,146.81 C146.169,147.173 145.93,147.558 145.735,147.964 L145.735,151.765 C145.776,152.185 145.934,152.584 146.208,152.962 C146.48,153.34 146.816,153.673 147.216,153.96 C147.614,154.247 148.045,154.471 148.507,154.632 C148.967,154.792 149.402,154.873 149.807,154.873 z" fill="#4D4D4D"/>
        <path d="M159.279,159.346 C159.531,159.346 159.752,159.331 159.94,159.303 C160.128,159.277 160.258,159.234 160.328,159.178 C160.371,159.15 160.424,159.079 160.486,158.967 C160.549,158.857 160.646,158.663 160.78,158.391 C160.913,158.118 161.085,157.736 161.295,157.245 C161.505,156.756 161.777,156.118 162.113,155.335 L157.136,144.415 L157.913,144.415 L162.491,154.579 L166.817,144.415 L167.53,144.415 L161.272,159.03 C161.104,159.423 160.891,159.682 160.631,159.807 C160.372,159.934 160.061,159.995 159.697,159.995 L159.277,159.995 L159.277,159.346 z" fill="#4D4D4D"/>
        <path d="M187.083,154.663 L187.083,155.335 L177.234,155.335 L177.234,140.424 L186.893,140.424 L186.893,141.097 L177.947,141.097 L177.947,147.376 L185.781,147.376 L185.781,148.048 L177.947,148.048 L177.947,154.663 L187.083,154.663 z" fill="#4D4D4D"/>
        <path d="M190.967,140.005 L191.659,140.005 L191.659,153.465 C191.659,153.872 191.786,154.195 192.038,154.433 C192.29,154.671 192.618,154.789 193.024,154.789 C193.178,154.789 193.364,154.771 193.581,154.736 C193.798,154.702 193.997,154.648 194.18,154.579 L194.348,155.167 C194.138,155.237 193.875,155.299 193.56,155.355 C193.246,155.411 192.976,155.439 192.751,155.439 C192.22,155.439 191.789,155.275 191.46,154.946 C191.131,154.618 190.967,154.173 190.967,153.612 L190.967,140.005 z" fill="#4D4D4D"/>
        <path d="M201.446,155.544 C200.704,155.544 200.011,155.395 199.367,155.092 C198.722,154.791 198.16,154.38 197.677,153.854 C197.194,153.329 196.817,152.72 196.543,152.027 C196.27,151.335 196.133,150.596 196.133,149.811 C196.133,149.041 196.267,148.321 196.533,147.649 C196.799,146.977 197.17,146.389 197.645,145.884 C198.121,145.38 198.673,144.981 199.304,144.688 C199.934,144.393 200.619,144.247 201.362,144.247 C202.105,144.247 202.797,144.393 203.441,144.688 C204.086,144.981 204.645,145.384 205.121,145.895 C205.598,146.408 205.975,147.005 206.256,147.69 C206.535,148.377 206.676,149.104 206.676,149.875 C206.676,149.903 206.672,149.959 206.665,150.043 C206.658,150.127 206.654,150.177 206.654,150.19 L196.869,150.19 C196.91,150.862 197.064,151.49 197.33,152.069 C197.596,152.65 197.935,153.151 198.35,153.571 C198.762,153.992 199.235,154.324 199.767,154.568 C200.299,154.813 200.866,154.936 201.467,154.936 C201.873,154.936 202.269,154.883 202.655,154.778 C203.04,154.673 203.4,154.522 203.736,154.327 C204.072,154.132 204.366,153.896 204.618,153.624 C204.87,153.352 205.073,153.054 205.227,152.731 L205.877,152.899 C205.723,153.276 205.496,153.63 205.195,153.96 C204.893,154.288 204.547,154.568 204.155,154.8 C203.763,155.03 203.336,155.212 202.875,155.346 C202.412,155.479 201.936,155.544 201.446,155.544 z M205.96,149.58 C205.919,148.895 205.772,148.264 205.52,147.689 C205.268,147.117 204.935,146.619 204.523,146.199 C204.109,145.779 203.636,145.453 203.105,145.222 C202.573,144.992 202,144.875 201.382,144.875 C200.767,144.875 200.193,144.994 199.661,145.231 C199.128,145.469 198.659,145.798 198.253,146.219 C197.847,146.639 197.523,147.135 197.276,147.709 C197.032,148.283 196.888,148.906 196.846,149.578 L205.96,149.578 z" fill="#4D4D4D"/>
        <path d="M215.201,155.545 C214.724,155.545 214.273,155.475 213.846,155.335 C213.42,155.195 213.02,155.007 212.649,154.769 C212.278,154.531 211.939,154.25 211.63,153.928 C211.321,153.607 211.056,153.263 210.832,152.9 L210.832,159.808 L210.118,159.808 L210.118,144.415 L210.79,144.415 L210.79,146.683 C211.014,146.333 211.28,146.008 211.588,145.706 C211.896,145.405 212.235,145.146 212.607,144.93 C212.978,144.712 213.363,144.544 213.762,144.425 C214.162,144.307 214.571,144.247 214.991,144.247 C215.761,144.247 216.468,144.408 217.112,144.729 C217.757,145.051 218.309,145.479 218.772,146.01 C219.233,146.542 219.594,147.148 219.852,147.826 C220.112,148.506 220.241,149.195 220.241,149.894 C220.241,150.65 220.118,151.372 219.874,152.058 C219.63,152.744 219.286,153.342 218.845,153.853 C218.404,154.365 217.876,154.774 217.259,155.082 C216.643,155.391 215.957,155.545 215.201,155.545 z M215.096,154.873 C215.768,154.873 216.377,154.729 216.922,154.442 C217.469,154.155 217.932,153.778 218.309,153.308 C218.688,152.838 218.981,152.307 219.192,151.711 C219.401,151.117 219.506,150.512 219.506,149.895 C219.506,149.251 219.387,148.628 219.149,148.026 C218.911,147.424 218.586,146.893 218.172,146.43 C217.76,145.968 217.274,145.601 216.713,145.328 C216.152,145.055 215.551,144.918 214.906,144.918 C214.5,144.918 214.066,145.006 213.605,145.181 C213.142,145.356 212.712,145.587 212.313,145.873 C211.914,146.16 211.578,146.493 211.305,146.871 C211.032,147.249 210.874,147.648 210.832,148.068 L210.832,151.827 C211.014,152.247 211.252,152.642 211.546,153.014 C211.84,153.386 212.173,153.707 212.544,153.98 C212.914,154.252 213.318,154.47 213.752,154.631 C214.186,154.792 214.633,154.873 215.096,154.873 z" fill="#4D4D4D"/>
        <path d="M232.568,155.335 L231.853,155.335 L231.853,149.244 C231.853,146.359 230.894,144.919 228.976,144.919 C228.499,144.919 228.031,145.01 227.57,145.191 C227.107,145.373 226.679,145.626 226.289,145.947 C225.896,146.27 225.553,146.65 225.26,147.092 C224.965,147.533 224.748,148.005 224.61,148.509 L224.61,155.335 L223.895,155.335 L223.895,140.005 L224.61,140.005 L224.61,147.145 C224.833,146.71 225.11,146.315 225.438,145.957 C225.768,145.602 226.124,145.296 226.51,145.044 C226.895,144.792 227.307,144.596 227.748,144.456 C228.189,144.316 228.641,144.246 229.103,144.246 C230.292,144.246 231.167,144.674 231.728,145.527 C232.287,146.382 232.568,147.591 232.568,149.16 L232.568,155.335 z" fill="#4D4D4D"/>
        <path d="M239.498,155.544 C238.992,155.544 238.523,155.458 238.09,155.281 C237.656,155.107 237.277,154.87 236.957,154.568 C236.635,154.266 236.383,153.913 236.199,153.507 C236.017,153.102 235.928,152.66 235.928,152.184 C235.928,151.723 236.039,151.299 236.264,150.913 C236.487,150.529 236.799,150.195 237.198,149.915 C237.596,149.637 238.073,149.419 238.626,149.266 C239.179,149.111 239.792,149.035 240.464,149.035 C241.066,149.035 241.683,149.083 242.312,149.182 C242.943,149.279 243.501,149.426 243.992,149.622 L243.992,148.445 C243.992,147.353 243.681,146.482 243.058,145.831 C242.435,145.18 241.599,144.855 240.548,144.855 C240.017,144.855 239.452,144.969 238.859,145.201 C238.263,145.432 237.658,145.764 237.043,146.199 L236.707,145.674 C238.119,144.723 239.416,144.245 240.592,144.245 C241.865,144.245 242.869,144.624 243.606,145.38 C244.34,146.135 244.708,147.172 244.708,148.488 L244.708,154.2 C244.708,154.508 244.835,154.661 245.087,154.661 L245.087,155.333 C245.044,155.348 244.987,155.355 244.919,155.355 C244.681,155.355 244.474,155.266 244.298,155.09 C244.124,154.917 244.036,154.702 244.036,154.451 L244.036,153.484 C243.546,154.143 242.899,154.65 242.093,155.006 C241.285,155.366 240.422,155.544 239.498,155.544 z M239.602,154.937 C240.485,154.937 241.29,154.771 242.018,154.443 C242.745,154.115 243.291,153.669 243.655,153.109 C243.88,152.816 243.991,152.536 243.991,152.269 L243.991,150.21 C242.913,149.79 241.753,149.581 240.507,149.581 C239.345,149.581 238.409,149.814 237.702,150.284 C236.995,150.753 236.641,151.38 236.641,152.163 C236.641,152.555 236.719,152.919 236.873,153.256 C237.025,153.592 237.232,153.885 237.492,154.137 C237.75,154.389 238.062,154.585 238.426,154.725 C238.789,154.866 239.182,154.937 239.602,154.937 z" fill="#4D4D4D"/>
        <path d="M257.746,155.335 L257.033,155.335 L257.033,149.245 C257.033,147.747 256.822,146.651 256.402,145.958 C255.982,145.266 255.31,144.919 254.386,144.919 C253.882,144.919 253.388,145.011 252.906,145.192 C252.422,145.374 251.974,145.626 251.562,145.948 C251.148,146.27 250.785,146.647 250.47,147.082 C250.154,147.517 249.927,147.992 249.786,148.51 L249.786,155.335 L249.073,155.335 L249.073,144.415 L249.745,144.415 L249.745,147.145 C249.968,146.71 250.251,146.315 250.595,145.957 C250.939,145.601 251.32,145.296 251.74,145.044 C252.16,144.792 252.605,144.596 253.074,144.456 C253.543,144.316 254.021,144.246 254.512,144.246 C255.66,144.246 256.487,144.655 256.991,145.475 C257.495,146.293 257.747,147.522 257.747,149.161 L257.747,155.335 z" fill="#4D4D4D"/>
        <path d="M266.546,154.83 C266.518,154.844 266.444,154.883 266.324,154.945 C266.206,155.007 266.052,155.078 265.863,155.155 C265.674,155.232 265.457,155.299 265.211,155.355 C264.967,155.41 264.698,155.439 264.402,155.439 C264.137,155.439 263.882,155.396 263.637,155.312 C263.391,155.229 263.177,155.11 262.996,154.956 C262.814,154.803 262.665,154.613 262.555,154.389 C262.444,154.165 262.387,153.913 262.387,153.633 L262.387,145.044 L260.832,145.044 L260.832,144.414 L262.387,144.414 L262.387,140.654 L263.102,140.654 L263.102,144.414 L265.706,144.414 L265.706,145.044 L263.102,145.044 L263.102,153.527 C263.129,153.933 263.284,154.242 263.562,154.452 C263.841,154.662 264.164,154.767 264.53,154.767 C264.753,154.767 264.967,154.742 265.171,154.693 C265.374,154.645 265.556,154.589 265.716,154.525 C265.878,154.462 266.003,154.403 266.095,154.347 C266.185,154.29 266.245,154.255 266.272,154.242 L266.546,154.83 z" fill="#4D4D4D"/>
        <path d="M276.414,155.334 L276.414,140.445 L277.129,140.445 L277.129,149.81 L286.242,140.423 L287.146,140.423 L280.867,146.954 L287.461,155.333 L286.6,155.333 L280.383,147.395 L277.129,150.712 L277.129,155.332 L276.414,155.332 z" fill="#4D4D4D"/>
        <path d="M290.275,141.768 L290.275,140.005 L290.988,140.005 L290.988,141.768 L290.275,141.768 z M290.275,155.335 L290.275,144.414 L290.988,144.414 L290.988,155.335 L290.275,155.335 z" fill="#4D4D4D"/>
        <path d="M299.914,155.544 C299.173,155.544 298.483,155.395 297.846,155.092 C297.207,154.792 296.651,154.387 296.177,153.876 C295.699,153.363 295.328,152.766 295.064,152.079 C294.798,151.393 294.665,150.673 294.665,149.917 C294.665,149.146 294.802,148.419 295.074,147.732 C295.346,147.047 295.721,146.445 296.199,145.926 C296.673,145.408 297.229,144.997 297.867,144.697 C298.504,144.396 299.186,144.245 299.915,144.245 C300.643,144.245 301.329,144.396 301.973,144.697 C302.617,144.997 303.177,145.408 303.655,145.926 C304.13,146.445 304.505,147.047 304.777,147.732 C305.051,148.419 305.186,149.146 305.186,149.917 C305.186,150.673 305.051,151.394 304.777,152.079 C304.505,152.766 304.13,153.363 303.655,153.876 C303.177,154.387 302.617,154.792 301.973,155.092 C301.328,155.395 300.642,155.544 299.914,155.544 z M295.378,149.939 C295.378,150.611 295.496,151.247 295.734,151.848 C295.973,152.452 296.296,152.975 296.702,153.424 C297.105,153.872 297.587,154.225 298.139,154.484 C298.693,154.743 299.276,154.874 299.893,154.874 C300.509,154.874 301.095,154.741 301.647,154.475 C302.201,154.208 302.682,153.852 303.096,153.404 C303.509,152.956 303.837,152.428 304.082,151.818 C304.327,151.21 304.449,150.568 304.449,149.896 C304.449,149.225 304.327,148.583 304.082,147.975 C303.837,147.367 303.509,146.838 303.096,146.391 C302.682,145.941 302.203,145.585 301.658,145.318 C301.112,145.053 300.531,144.921 299.915,144.921 C299.298,144.921 298.719,145.053 298.172,145.318 C297.626,145.585 297.147,145.945 296.733,146.4 C296.319,146.855 295.992,147.387 295.746,147.997 C295.5,148.605 295.378,149.251 295.378,149.939 z" fill="#4D4D4D"/>
        <path d="M312.178,155.544 C311.338,155.544 310.553,155.404 309.826,155.124 C309.097,154.844 308.453,154.41 307.892,153.822 L308.292,153.339 C308.88,153.871 309.481,154.27 310.097,154.536 C310.714,154.803 311.4,154.936 312.156,154.936 C313.177,154.936 314.004,154.718 314.635,154.285 C315.264,153.849 315.58,153.242 315.58,152.457 C315.58,152.094 315.498,151.789 315.338,151.543 C315.178,151.299 314.942,151.089 314.635,150.914 C314.326,150.738 313.946,150.584 313.49,150.451 C313.034,150.318 312.513,150.181 311.926,150.042 C311.324,149.902 310.803,149.766 310.362,149.633 C309.921,149.5 309.553,149.342 309.258,149.16 C308.965,148.979 308.748,148.747 308.608,148.467 C308.467,148.188 308.397,147.83 308.397,147.397 C308.397,146.85 308.502,146.382 308.713,145.99 C308.922,145.598 309.205,145.272 309.563,145.013 C309.921,144.755 310.333,144.561 310.803,144.436 C311.272,144.309 311.772,144.247 312.303,144.247 C313.186,144.247 313.946,144.393 314.582,144.688 C315.219,144.981 315.684,145.352 315.978,145.8 L315.496,146.158 C315.187,145.736 314.736,145.415 314.141,145.191 C313.545,144.966 312.912,144.855 312.241,144.855 C311.807,144.855 311.401,144.9 311.022,144.992 C310.645,145.082 310.313,145.229 310.026,145.432 C309.739,145.635 309.51,145.89 309.342,146.199 C309.174,146.508 309.09,146.871 309.09,147.291 C309.09,147.627 309.147,147.908 309.258,148.132 C309.371,148.356 309.549,148.541 309.795,148.688 C310.039,148.834 310.348,148.962 310.719,149.066 C311.088,149.171 311.541,149.287 312.073,149.413 C312.745,149.567 313.341,149.722 313.858,149.875 C314.376,150.029 314.817,150.212 315.18,150.421 C315.545,150.632 315.821,150.89 316.01,151.199 C316.199,151.507 316.293,151.897 316.293,152.374 C316.293,152.865 316.195,153.302 316,153.688 C315.803,154.072 315.527,154.405 315.17,154.686 C314.813,154.964 314.379,155.177 313.867,155.326 C313.357,155.471 312.793,155.544 312.178,155.544 z" fill="#4D4D4D"/>
        <path d="M327.845,155.335 L323.392,149.286 L320.599,151.827 L320.599,155.335 L319.885,155.335 L319.885,140.005 L320.599,140.005 L320.599,150.986 L327.656,144.456 L328.536,144.456 L323.876,148.824 L328.664,155.335 L327.845,155.335 z" fill="#4D4D4D"/>
        <path d="M334.921,155.544 C334.081,155.544 333.298,155.404 332.569,155.124 C331.84,154.844 331.198,154.41 330.637,153.822 L331.035,153.339 C331.622,153.871 332.225,154.27 332.841,154.536 C333.458,154.802 334.145,154.936 334.901,154.936 C335.922,154.936 336.749,154.718 337.378,154.285 C338.009,153.849 338.323,153.242 338.323,152.457 C338.323,152.094 338.242,151.789 338.083,151.543 C337.921,151.299 337.686,151.089 337.378,150.914 C337.07,150.738 336.689,150.584 336.233,150.451 C335.777,150.318 335.258,150.181 334.669,150.042 C334.066,149.902 333.546,149.766 333.104,149.633 C332.665,149.5 332.296,149.342 332.003,149.16 C331.708,148.979 331.491,148.747 331.353,148.467 C331.212,148.188 331.142,147.83 331.142,147.397 C331.142,146.85 331.246,146.382 331.456,145.99 C331.667,145.598 331.949,145.272 332.307,145.013 C332.665,144.755 333.078,144.561 333.546,144.436 C334.014,144.309 334.514,144.247 335.048,144.247 C335.931,144.247 336.689,144.393 337.327,144.688 C337.964,144.981 338.428,145.352 338.723,145.8 L338.238,146.158 C337.932,145.736 337.479,145.415 336.884,145.191 C336.289,144.966 335.656,144.855 334.984,144.855 C334.548,144.855 334.145,144.9 333.766,144.992 C333.389,145.082 333.055,145.229 332.768,145.432 C332.48,145.635 332.254,145.89 332.086,146.199 C331.918,146.508 331.833,146.871 331.833,147.291 C331.833,147.627 331.889,147.908 332.001,148.132 C332.113,148.356 332.293,148.541 332.536,148.688 C332.781,148.835 333.09,148.962 333.461,149.066 C333.832,149.171 334.283,149.287 334.815,149.413 C335.488,149.567 336.082,149.722 336.6,149.875 C337.118,150.029 337.56,150.212 337.923,150.421 C338.285,150.632 338.564,150.89 338.753,151.199 C338.94,151.507 339.035,151.897 339.035,152.374 C339.035,152.865 338.938,153.302 338.741,153.688 C338.546,154.072 338.268,154.405 337.913,154.686 C337.556,154.964 337.121,155.177 336.609,155.326 C336.098,155.473 335.538,155.544 334.921,155.544 z" fill="#4D4D4D"/>
      </g>
      <path d="M0.417,80.004 L40.417,80.004 L40.417,120.004 L0.417,120.004 z" fill="#C30080"/>
      <path d="M45.417,40.004 L85.417,40.004 L85.417,120.004 L45.417,120.004 z" fill="#274695"/>
      <path d="M90.417,0.004 L130.417,0.004 L130.417,120.004 L90.417,120.004 z" fill="#00A4E8"/>
    </g>
  </g>
</svg>
