<?xml version="1.0" encoding="UTF-8"?>
<!DOCTYPE svg PUBLIC "-//W3C//DTD SVG 1.1//EN" "http://www.w3.org/Graphics/SVG/1.1/DTD/svg11.dtd">
<svg version="1.1" xmlns="http://www.w3.org/2000/svg" xmlns:xlink="http://www.w3.org/1999/xlink" x="0" y="0" width="1430" height="380" viewBox="0, 0, 1430, 380">
  <g id="house_hill">
    <path d="M967.042,215.007 C1129.059,215.735 1335.375,260.175 1429.414,380 L504.67,380 C601.713,259.248 802.067,216.133 967.042,215.007 z" fill="#8AAC00"/>
    <path d="M840.918,225.873 C839.837,231.162 836.991,239.547 829.489,251.67 C833.223,251.896 836.946,252.155 840.655,252.471 C843.05,247.212 845.933,238.594 848.767,224.55 C846.146,224.977 843.53,225.418 840.918,225.873" fill="#A9A9A9"/>
    <path d="M881.514,257.821 C881.539,256.467 881.545,255.05 881.545,253.584 C881.545,248.589 878.871,237.001 876.404,237.001 C873.939,237.001 871.325,248.882 871.325,253.584 C871.325,254.455 871.332,255.303 871.347,256.137 C874.749,256.66 878.137,257.224 881.514,257.821" fill="#6D8900"/>
    <path d="M901.683,214.417 C901.683,220.538 901.607,225.501 898.246,225.501 C895.262,225.501 894.853,220.538 894.853,214.417 C894.853,211.275 896.599,203.334 898.246,203.334 C899.897,203.334 901.683,211.078 901.683,214.417" fill="#6D8900"/>
    <path d="M977.536,213.941 C977.536,219.799 977.464,224.549 974.247,224.549 C971.391,224.549 970.999,219.799 970.999,213.941 C970.999,210.934 972.67,203.334 974.247,203.334 C975.826,203.334 977.536,210.746 977.536,213.941" fill="#6D8900"/>
    <g id="wind_thing">
      <path d="M815.242,243.017 L815.242,237.083 L818.652,237.083 L818.655,237.108 z M810.929,237.282 L810.953,237.083 L814.242,237.083 L814.242,243.017 z M814.242,214.416 L813.625,214.416 L814.242,209.18 z M815.242,236.468 L817.999,231.694 L818.592,236.583 L815.242,236.583 z M811.684,230.875 L814.242,230.875 L814.242,235.467 L811.669,231.012 z M812.775,221.625 L814.242,221.625 L814.242,224.26 L812.765,221.704 z M813.084,219.004 L814.242,221.01 L814.242,221.125 L812.834,221.125 z M813.439,215.994 L814.242,217.385 L814.242,217.5 L813.262,217.5 z M814.242,216.384 L813.537,215.163 L813.566,214.916 L814.242,214.916 z M815.242,214.416 L815.242,208.947 L815.905,214.416 z M815.966,214.916 L815.987,215.094 L815.242,216.384 L815.242,214.916 z M816.279,217.5 L815.242,217.5 L815.242,217.385 L816.087,215.92 z M815.242,220.009 L815.242,218 L816.34,218 L816.35,218.09 z M815.242,230.875 L817.894,230.875 L815.242,235.467 z M814.242,229.26 L812.287,225.875 L814.242,225.875 z M815.242,225.875 L817.197,225.875 L815.242,229.26 z M815.242,221.625 L816.763,221.625 L815.242,224.26 z M814.242,220.009 L813.181,218.173 L813.202,218 L814.242,218 z M817.839,230.375 L815.242,230.375 L815.242,230.26 L817.377,226.563 z M817.233,225.375 L815.242,225.375 L815.242,225.26 L816.876,222.43 z M816.718,221.125 L815.242,221.125 L815.242,221.01 L816.45,218.916 z M812.668,222.534 L814.242,225.26 L814.242,225.375 L812.333,225.375 z M812.179,226.687 L814.242,230.26 L814.242,230.375 L811.743,230.375 z M811.571,231.842 L814.242,236.468 L814.242,236.583 L811.012,236.583 z M815.238,200.606 C815.235,200.585 815.224,200.569 815.22,200.55 C815.211,200.514 815.201,200.48 815.185,200.447 C815.172,200.42 815.156,200.398 815.138,200.374 C815.119,200.348 815.099,200.324 815.075,200.301 C815.051,200.278 815.024,200.26 814.995,200.243 C814.971,200.229 814.949,200.216 814.925,200.206 C814.889,200.192 814.853,200.184 814.815,200.179 C814.801,200.176 814.787,200.168 814.771,200.167 C814.756,200.165 814.74,200.172 814.723,200.173 C814.71,200.174 814.696,200.168 814.681,200.17 C814.669,200.172 814.658,200.18 814.645,200.182 C814.609,200.19 814.575,200.201 814.541,200.217 C814.511,200.23 814.484,200.246 814.458,200.264 C814.437,200.279 814.421,200.294 814.403,200.311 C814.374,200.339 814.348,200.368 814.327,200.402 C814.312,200.422 814.304,200.445 814.293,200.468 C814.278,200.501 814.265,200.535 814.259,200.571 C814.256,200.584 814.248,200.594 814.246,200.608 L809.013,245 C808.98,245.275 809.177,245.523 809.451,245.555 C809.471,245.558 809.491,245.559 809.511,245.559 C809.761,245.559 809.976,245.371 810.006,245.118 L810.832,238.112 L814.242,244.018 L814.242,245.059 C814.242,245.335 814.466,245.559 814.742,245.559 C815.018,245.559 815.242,245.335 815.242,245.059 L815.242,244.018 L818.755,237.934 L819.626,245.12 C819.656,245.372 819.872,245.559 820.121,245.559 C820.141,245.559 820.162,245.558 820.182,245.555 C820.456,245.522 820.651,245.273 820.618,244.998 z" fill="#4180FF"/>
      <path d="M815.569,186.412 L821.587,180.394 C820.827,179.578 819.952,178.888 818.994,178.344 z" fill="#4180FF"/>
      <path d="M812.72,186.491 L809.339,178.126 C808.279,178.666 807.312,179.382 806.475,180.246 z" fill="#4180FF"/>
      <path d="M813.604,177.019 C812.428,177.06 811.303,177.302 810.252,177.715 L813.604,186.011 z" fill="#4180FF"/>
      <path d="M822.235,181.16 L816.198,187.197 L823.902,184.084 C823.483,183.017 822.917,182.035 822.235,181.16" fill="#4180FF"/>
      <path d="M822.235,196.007 C822.88,195.18 823.416,194.253 823.827,193.253 L816.276,190.048 z" fill="#4180FF"/>
      <path d="M811.933,187.118 L805.813,180.998 C805.133,181.838 804.566,182.781 804.132,183.806 z" fill="#4180FF"/>
      <path d="M816.677,188.083 L824.724,188.083 C824.682,187.023 824.516,186 824.226,185.033 z" fill="#4180FF"/>
      <path d="M816.561,189.083 L824.165,192.311 C824.488,191.291 824.678,190.208 824.724,189.083 z" fill="#4180FF"/>
      <path d="M813.604,191.041 L810.065,199.378 C811.168,199.837 812.359,200.104 813.604,200.147 z" fill="#4180FF"/>
      <path d="M814.604,191.156 L814.604,200.132 C815.767,200.057 816.88,199.79 817.916,199.351 z" fill="#4180FF"/>
      <path d="M814.604,177.035 L814.604,186.127 L818.101,177.889 C817.014,177.403 815.835,177.114 814.604,177.035" fill="#4180FF"/>
      <path d="M815.489,190.675 L818.818,198.914 C819.844,198.357 820.782,197.638 821.587,196.773 z" fill="#4180FF"/>
      <path d="M812.015,189.967 L804.054,193.184 C804.495,194.279 805.094,195.28 805.813,196.169 z" fill="#4180FF"/>
      <path d="M812.64,190.756 L806.476,196.921 C807.265,197.736 808.17,198.42 809.161,198.949 z" fill="#4180FF"/>
      <path d="M811.531,189.083 L803.187,189.083 C803.231,190.182 803.412,191.24 803.721,192.238 z" fill="#4180FF"/>
      <path d="M811.647,188.083 L803.783,184.745 C803.438,185.797 803.234,186.917 803.187,188.083 z" fill="#4180FF"/>
      <path d="M815.789,188.583 C815.789,189.796 814.968,190.779 813.955,190.779 C812.943,190.779 812.122,189.796 812.122,188.583 C812.122,187.371 812.943,186.388 813.955,186.388 C814.968,186.388 815.789,187.371 815.789,188.583" fill="#4180FF"/>
      <path d="M825.081,187.118 L836.081,182.916 L836.081,191.5 L825.081,189.083 z" fill="#4180FF"/>
    </g>
    <g id="house">
      <path d="M904.164,224.917 L931.998,236.833 L931.998,211.25 L947.831,196.417 L958.164,207.917 L958.164,212.167 L962.248,212.167 L962.248,208.167 L948.664,192.833 L919.247,193.417 L919.247,198.75 L915.414,203.334 L915.414,189.083 L912.164,189.083 L912.164,196.156 L899.175,209 L904.166,209.5 z" fill="#4180FF"/>
      <path d="M907.207,215.979 L908.29,216.236 L908.29,211.102 L907.207,210.958 z" fill="#3B5BBE"/>
      <path d="M911.207,216.93 L912.249,217.178 L912.249,211.624 L911.207,211.487 z" fill="#3B5BBE"/>
      <path d="M915.332,217.91 L917.165,218.346 L917.165,212.273 L915.332,212.031 z" fill="#3B5BBE"/>
      <path d="M925.415,213.364 L925.415,220.306 L928.332,221 L928.332,213.75 z" fill="#3B5BBE"/>
      <path d="M920.29,219.089 L922.29,219.565 L922.29,212.951 L920.29,212.687 z" fill="#3B5BBE"/>
      <path d="M958.164,232.738 L931.998,236.833 L931.998,211.25 L947.831,196.417 L958.164,207.917 z" fill="#76D6FF"/>
      <path d="M942.247,223.083 L942.247,235.229 L950.406,233.952 L950.406,222.25 z" fill="#4180FF"/>
      <path d="M915.414,189.083 L915.414,203.334 L919.247,198.75 L919.247,189.083 z" fill="#76D6FF"/>
    </g>
  </g>
  <g id="hill_3">
    <path d="M143.081,380 L983.081,380 C862.666,292.541 710.615,242.734 550.406,242.734 C399.587,242.734 259.449,288.45 143.081,366.772 z" fill="#8AAC00"/>
    <path d="M524.706,231.667 C524.706,243.203 524.56,252.555 518.23,252.555 C512.604,252.555 511.831,243.203 511.831,231.667 C511.831,225.742 515.124,210.779 518.23,210.779 C521.338,210.779 524.706,225.375 524.706,231.667" fill="#6D8900"/>
  </g>
  <g id="hill_2">
    <path d="M804.295,250.808 C910.373,251.378 1045.455,286.175 1107.025,380 L501.565,380 C565.103,285.449 696.281,251.69 804.295,250.808 z" fill="#A4C601"/>
    <path d="M706.878,260.602 C675.697,283.029 658.979,319.695 655.522,327.897 C661.135,330.118 666.723,332.389 672.27,334.738 C672.275,334.688 672.282,334.642 672.288,334.592 C675.746,304.885 715.509,264.494 726.354,257.107 C726.462,257.033 726.56,256.966 726.665,256.894 C720.02,257.987 713.423,259.225 706.878,260.602" fill="#A9A9A9"/>
    <path d="M650.178,282.559 C650.178,296.732 649.999,308.222 642.222,308.222 C635.31,308.222 634.36,296.732 634.36,282.559 C634.36,275.279 638.406,256.895 642.222,256.895 C646.04,256.895 650.178,274.828 650.178,282.559" fill="#6D8900"/>
    <path d="M749.748,284.333 L748.748,334.738 L753.581,334.738 L752.748,287 L775.081,307 L753.581,282.375 L754.581,281.25 C755.581,280.125 754.581,277.5 752.581,278 C750.581,278.5 751.081,279.055 751.081,279.055 L754.081,252.471 L747.331,279.375 L748.046,280.998 L719.581,288.833 L747.331,285.5 z" fill="#FFFFFF"/>
    <path d="M1017.931,305.269 C1019.593,306.165 1021.254,307.065 1022.905,307.981 L1021.914,257.333 L1024.081,257.688 L1024.081,258.5 L1052.247,262.666 L1023.414,255 L1022.914,253 L1023.414,250.833 L1017.914,224.55 L1020.519,250.25 L1021.519,251.438 C1021.519,251.438 1019.48,250.638 1018.748,250.782 C1017.875,250.953 1016.247,251.666 1017.914,254.166 C1019.581,256.666 1019.581,256 1018.081,256.5 C1016.581,257 996.581,279.666 996.581,279.666 L1018.747,260.333 z" fill="#FFFFFF"/>
    <path d="M964.581,248.125 L963.907,280.554 C965.289,281.079 966.667,281.614 968.043,282.153 L967.331,245.875 L968.081,245.375 L984.956,259.5 L969.075,243.127 L968.706,217.5 L966.456,241 L967.374,242.07 C967.374,242.07 964.769,242.187 963.581,243.25 C962.872,243.885 962.788,244.815 963.081,245.375 C963.262,245.72 963.367,245.903 963.435,246.006 L949.206,257.438 z" fill="#FFFFFF"/>
    <path d="M687.03,258.194 C687.03,269.715 686.884,279.054 680.562,279.054 C674.944,279.054 674.173,269.715 674.173,258.194 C674.173,252.278 677.461,237.334 680.562,237.334 C683.667,237.334 687.03,251.911 687.03,258.194" fill="#6D8900"/>
  </g>
  <g id="cyclist_hill">
    <path d="M381.357,274.489 C498.206,274.817 615.829,299.948 719.428,354.976 C739.356,365.561 743.334,368.413 762.129,380 L0.586,380 C114.007,307.407 247.688,275.752 381.357,274.489 z" fill="#9FBD02"/>
    <path d="M548.87,294.543 L548.665,294.917 C548.665,294.917 307.581,284.5 172.081,380 L390.581,380 C390.581,380 438.081,316.25 566.081,299 L566.215,298.784 C560.462,297.297 554.674,295.898 548.87,294.543" fill="#A9A9A9"/>
    <g id="cyclist">
      <path d="M352.081,154 C352.081,154 356.498,153.583 358.998,156.25 C361.498,158.917 363.748,159.833 366.748,158.167 C369.183,156.814 370.577,156.398 373.498,154.833 C375.831,153.583 375.126,146.607 375.126,146.607 C375.126,146.607 384.998,143.833 388.331,143.833 C389.218,143.833 388.248,159.001 386.331,161.917 C384.414,164.833 380.414,169.167 377.248,170 C374.081,170.833 365.276,170.498 363.831,170.667 C362.414,170.833 354.664,172 351.664,171.25 C348.664,170.5 347.664,171.083 346.331,166.083 C344.998,161.083 345.176,161.718 343.887,160.453 C342.663,159.251 341.336,158.198 341.578,156.816 C341.998,154.417 344.164,154.168 345.664,156.334 C347.164,158.5 348.748,154.333 352.081,154" fill="#76D6FF"/>
      <path d="M467.245,269.833 C467.105,272.462 467.295,272.812 465.279,272.113 C463.264,271.415 467.524,267.783 466.895,265.548 C467.524,266.386 467.385,267.204 467.245,269.833 M466.081,276.812 L460.204,276.237 C460.204,276.237 465.424,273.669 466.111,273.669 C466.111,273.669 466.237,276.156 466.081,276.812 M456.489,271.974 L456.14,271.5 C456.14,271.5 459.353,267.853 460.33,268.132 C461.308,268.411 462.496,270.506 461.937,270.716 C461.378,270.926 456.838,272.447 456.489,271.974 M444.956,253.875 L449.225,253.875 L449.225,250.978 C449.225,250.978 445.845,251.438 445.595,248.438 C445.345,245.438 446.224,234.33 446.224,234.33 L447.26,234.749 C449.01,236.624 459.581,265.125 459.581,265.125 C459.581,265.125 448.937,270 444.956,272.75 z M440.331,249.001 C440.331,250.584 435.414,252.168 435.414,252.168 L435.414,253.584 L439.164,253.584 L439.164,265.584 C439.164,266.75 438.081,266 438.081,266 L400.664,180.166 L443.581,212.834 C441.081,230.833 440.331,247.418 440.331,249.001 M378.956,259.875 L366.206,259.875 C383.581,230.875 390.956,195.25 390.956,195.25 L392.331,195.25 C392.331,220.125 378.956,259.875 378.956,259.875 M391.075,136.084 L391.075,132.423 C391.075,132.423 394.186,135.443 395.285,135.626 C396.383,135.81 392.081,135.719 391.075,136.084 M457.344,122.821 C458.261,128.973 455.67,123.577 454.375,120.878 C453.08,118.179 453.026,110.84 453.026,110.84 C454.861,110.894 456.426,116.668 457.344,122.821 M482.518,252.875 C480.706,250.75 479.456,247 478.914,247.333 C478.372,247.666 479.081,252.167 478.914,253.292 C478.747,254.417 469.873,252.875 468.706,253.125 C467.539,253.375 467.373,254.667 465.164,256.125 C462.955,257.583 463.081,257.583 463.789,257.833 C464.498,258.083 466.748,256.917 467.164,256.917 C467.58,256.917 466.539,258.333 465.831,258.75 C465.123,259.167 464.039,260 463.539,261.292 C463.039,262.584 462.356,262.336 462.356,262.336 C461.398,257.544 449.081,218.958 449.081,218.958 L449.081,216 L451.278,217.899 L455.081,223 L451.581,210.5 L402.143,171.125 L402.143,163.125 C402.143,163.125 403.893,162.187 405.643,161.5 C407.393,160.812 406.768,155.875 406.393,154.25 C406.018,152.625 403.706,152.625 402.206,151.875 C400.706,151.125 400.018,148.437 398.456,145.937 C396.893,143.437 397.456,143.75 397.518,141.625 C397.581,139.5 398.956,140 400.081,140.125 C401.206,140.25 401.206,142.062 405.268,142.875 C409.331,143.687 411.039,143.208 411.956,142.916 C412.872,142.624 414.289,142.458 415.039,142.875 C415.789,143.292 427.622,150.541 420.414,152.416 C413.206,154.291 409.456,164.791 408.789,165.666 C408.123,166.541 409.164,166.833 409.164,166.833 L434.497,180.25 L442.747,180.708 L471.123,173.416 C471.123,173.416 472.575,173.138 473.123,172.875 C473.671,172.612 475.79,165.458 475.956,162.041 C476.122,158.624 475.373,156.083 474.456,152.583 C473.539,149.083 471.373,145 469.998,142.5 C468.623,140 462.623,132 461.164,129.958 C459.706,127.917 458.354,127.281 458.956,125.562 C459.558,123.844 461.643,116.875 457.081,112.75 C452.518,108.625 453.393,107.437 453.456,105 C453.518,102.562 453.456,101 451.143,99.125 C448.831,97.25 447.268,94.312 446.143,91.875 C445.018,89.437 447.143,87.625 444.331,87 C441.518,86.375 441.643,85.875 435.581,82.187 C429.518,78.5 429.143,72.875 423.393,71 C417.643,69.125 415.768,68.437 413.956,62.75 C412.143,57.062 405.956,53.875 397.456,52.812 C388.956,51.75 384.893,54.75 382.15,58.437 C379.406,62.125 379.956,71 379.956,71 C378.331,71.437 375.706,72.25 375.706,75.5 C375.706,78.75 378.331,82 379.706,82.5 C381.081,83 382.206,90.25 383.956,93 C385.706,95.75 391.331,96.75 391.331,96.75 C391.331,96.75 386.331,101.833 381.664,105.416 C376.998,108.999 374.081,112.416 373.831,120.333 C373.581,128.25 375.164,141.916 375.164,141.916 C375.164,141.916 363.247,145.166 356.664,145.25 C350.081,145.334 347.997,141.916 346.247,138.916 C344.497,135.916 341.247,134.583 337.747,134.583 C334.247,134.583 334.581,137.916 335.581,139.75 C336.581,141.583 339.664,143.25 337.414,145.666 C335.164,148.082 336.664,152.833 337.247,156.75 C337.83,160.667 336.664,161.666 335.581,162.583 C334.497,163.5 334.914,164.666 337.831,163 C340.747,161.334 339.747,152.666 339.664,150.916 C339.581,149.166 338.497,144.583 342.331,147.916 C346.164,151.249 347.497,153.833 349.247,161.333 C350.997,168.833 359.081,175.833 362.997,177.833 C366.914,179.833 368.373,178.791 369.164,178 C369.956,177.209 370.997,175.25 368.081,173.834 C361.51,170.644 357.998,165.001 354.164,158.584 C350.331,152.167 353.498,150.167 355.748,150.001 C357.998,149.835 364.164,150.334 367.164,149.501 C370.164,148.668 387.899,143.848 390.081,143.833 C392.263,143.818 393.164,145.584 393.164,145.584 C393.164,145.584 393.081,153.667 393.164,154.834 C393.248,156.001 398.081,159.834 398.081,159.834 L397.914,161.584 L396.997,162.917 L394.081,162.917 L394.081,165.751 L395.164,165.751 C395.164,165.751 391.581,180.084 391.497,181.667 C391.414,183.25 391.331,183.501 389.747,184.129 C388.164,184.757 384.247,184.917 383.581,184.129 C382.914,183.341 383.247,182.834 381.497,182.834 C379.747,182.834 380.997,184.584 381.831,185.167 C382.664,185.75 384.664,186.334 382.997,187.001 C381.33,187.668 381.581,189 381.581,189 C384.331,201 380.748,210.5 379.581,215.416 C378.414,220.332 367.414,248.833 364.164,254.083 C360.914,259.333 355.081,262.583 353.664,263.583 C352.248,264.583 353.164,265.583 354.382,265.583 C355.6,265.583 356.914,265.5 357.581,266.667 C358.247,267.834 357.747,268.917 361.081,268.917 C364.414,268.917 364.497,266.25 364.497,266.25 L368.331,266.25 C371.331,266.25 372.081,269.833 374.581,269.833 C377.081,269.833 376.373,269.458 377.748,268.083 C379.123,266.708 384.164,264.583 385.414,263 C386.664,261.417 387.081,259.25 385.998,259.25 L382.831,259.25 C382.831,259.25 392.831,233.834 394.414,227.084 C395.998,220.334 398.831,197.834 398.831,197.834 L427.914,262.001 C425.998,262.334 423.331,268.082 423.331,268.082 L421.849,268.082 L420.581,266.918 L413.581,262.334 C406.497,259.25 393.164,264.834 388.248,267.501 C383.331,270.168 387.998,272.918 389.748,274.418 C391.498,275.918 393.081,278.501 394.914,280.918 C396.748,283.335 401.248,284.334 404.498,283.418 C407.748,282.502 412.664,281.834 412.664,281.834 L421.997,281.834 C421.997,287.834 425.081,298.084 432.081,298.084 C439.081,298.084 441.553,284.334 441.553,284.334 C442.524,284.334 443.664,283.334 443.664,283.334 L465.248,280.751 C463.831,284.585 463.643,285.937 466.893,287.875 C470.143,289.812 473.706,286.687 476.518,285.625 C479.331,284.562 484.331,279 485.518,276.5 C486.706,274 484.206,269.375 483.956,267.5 C483.706,265.625 486.518,262.375 486.706,259.562 C486.893,256.75 484.331,255 482.518,252.875" fill="#4180FF"/>
      <path d="M384.998,93.5 C384.998,93.5 381.915,87.5 382.165,83 C382.165,83 387.08,80.917 386.498,74 L388.165,73.167 C388.165,73.167 390.665,79.5 396.08,77.583 C401.498,75.667 402.248,71.833 402.248,69.833 C402.248,69.833 403.748,69.083 409.831,73.5 C409.831,73.5 411.164,74.333 411.831,73.833 C412.498,73.333 414.582,72.167 415.164,73.167 C415.748,74.167 416.414,79.083 415.914,80.583 C415.414,82.083 413.498,82.833 413.498,84.667 C413.498,86.5 413.081,90.75 414.081,94.333 C415.081,97.917 414.748,102.583 414.081,104.667 C413.414,106.75 412.082,110.833 406.664,109.333 C401.248,107.833 405.082,112.833 400.914,112.667 C396.748,112.5 395.165,110.833 394.248,106.25 C393.33,101.667 393.165,99.583 389.915,98.083 C386.665,96.583 384.998,93.5 384.998,93.5" fill="#76D6FF"/>
      <path d="M383.164,70.666 C383.164,70.666 383.832,70.499 385.164,70.666 L387.164,69.785 C387.164,69.785 388.914,66.083 392.332,65.999 C392.332,65.999 402.164,65.666 402.164,67.166 L402.164,68.317 C402.164,68.317 406.664,69.416 408.248,70.999 C408.248,70.999 408.748,68.083 405.664,65.583 C402.581,63.083 403.998,61.667 399.498,61.25 C394.998,60.833 388.332,59.667 384.582,64.416 C383.709,65.521 383.832,67.166 383.164,70.666" fill="#76D6FF"/>
      <path d="M424.165,132.833 C421.496,132.885 414.998,133.917 414.248,135.333 C413.498,136.751 413.165,139.833 413.582,141.583 C413.998,143.333 414.498,144.001 413.748,144.833 C412.998,145.667 411.832,146.751 413.915,149.333 C415.998,151.917 418.582,154.501 421.915,153.833 C425.248,153.167 426.332,151.501 428.082,153.251 C429.832,155.001 435.998,158.417 442.998,158.083 C449.998,157.751 461.832,156.667 463.332,153.667 C464.832,150.667 465.332,147.001 463.665,144.001 C461.998,141.001 460.248,135.751 459.498,131.251 C458.748,126.75 454.332,118.333 454.332,118.333 C454.332,118.333 449.332,123.416 438.165,126.833 C438.165,126.833 438.082,132.417 441.082,136.333 C444.082,140.251 446.415,143.417 441.248,143.501 C436.082,143.583 432.665,143.167 431.415,142.333 C430.165,141.501 429.248,141.167 428.998,139.083 C428.748,137.001 428.165,136.751 427.082,135.501 C425.998,134.251 425.239,132.812 424.165,132.833" fill="#76D6FF"/>
      <path d="M404.191,182.851 C404.146,183.09 404.108,183.311 404.081,183.5 C403.973,184.282 403.824,185.527 403.662,187.041 L424.236,234.24 C424.579,230.093 424.831,226.189 424.831,223.625 C424.831,216.625 423.581,209.75 423.206,204.625 C423.044,202.406 423.75,200.351 424.764,198.511 z" fill="#76D6FF"/>
      <path d="M402.535,206.006 C402.545,206.438 402.559,206.857 402.581,207.25 C402.956,214.125 405.706,226.625 407.081,233.25 C408.456,239.875 410.206,262 410.206,262 C417.456,264.375 418.581,268.75 419.456,269.5 C420.331,270.25 421.831,269.5 421.831,269.5 C421.831,269.5 421.956,256.875 422.456,252.25 C422.509,251.764 422.577,251.134 422.656,250.4 z" fill="#76D6FF"/>
      <path d="M479.706,249 C478.581,246 477.331,241.375 476.706,235.5 C476.081,229.625 476.581,224.125 474.456,216.375 C472.331,208.625 467.456,201.5 463.956,197.375 C460.456,193.25 462.706,190.5 466.706,184.75 C470.706,179 472.706,172.75 472.706,172.75 C472.706,172.75 471.831,160.5 455.206,159.5 C438.581,158.5 438.956,178.75 438.956,178.75 C430.831,166.25 429.706,164.625 421.206,162.5 C412.706,160.375 408.831,166.5 408.831,166.5 C408.831,166.5 407.602,170.367 406.389,174.506 L429.043,192.55 C429.056,192.534 429.069,192.516 429.081,192.5 C431.081,189.75 438.331,184.75 438.331,184.75 C438.331,184.75 438.081,186.75 437.956,190.5 C437.831,194.25 439.456,198.25 444.709,204.25 C449.963,210.25 449.956,216.125 453.331,222.875 C456.706,229.625 460.956,235.5 464.206,239.375 C467.456,243.25 467.706,254.533 467.706,254.533 C468.206,253.566 476.456,254.125 478.831,254.5 C481.206,254.875 480.831,252 479.706,249" fill="#76D6FF"/>
      <path d="M379.041,259.62 C379.133,259.341 379.303,258.826 379.543,258.08 L376.867,259.875 L378.661,259.875 z" fill="#76D6FF"/>
      <path d="M402.066,309.016 L383.884,290.989 L377.675,278.571 L377.302,273.943 L405.559,298.96 C404.533,302.456 403.368,305.814 402.066,309.016 M397.599,318.42 L385.281,293.784 L401.659,310.022 C400.423,312.965 399.066,315.765 397.599,318.42 M389.846,329.771 L379.587,302.246 L378.349,286.91 L383.064,291.584 L397.015,319.487 C394.859,323.249 392.466,326.693 389.846,329.771 M382.394,337.004 L379.883,305.904 L389.093,330.615 C386.999,332.981 384.765,335.117 382.394,337.004 M371.378,343.518 L366.541,313.706 L370.232,281.56 L370.566,280.906 L378.602,302.466 L381.452,337.76 C378.322,340.126 374.96,342.058 371.378,343.518 M362.834,345.988 L366.121,317.364 L370.423,343.877 C367.991,344.801 365.463,345.514 362.834,345.988 M351.457,346.602 C351.026,346.574 350.601,346.511 350.172,346.467 L355.541,310.375 L362.706,296.321 L365.532,313.733 L361.809,346.153 C358.503,346.668 355.057,346.842 351.457,346.602 M338.676,343.453 L354.113,313.175 L349.177,346.363 C345.585,345.898 342.071,344.907 338.676,343.453 M326.945,336.211 L343.867,294.974 L359.386,277.725 L354.576,310.066 L337.753,343.06 C333.969,341.334 330.35,339.016 326.945,336.211 M316.608,325.272 L341.881,297.182 L326.139,335.542 C322.704,332.602 319.505,329.152 316.608,325.272 M308.161,310.87 L348.142,281.926 L343.008,294.435 L316.007,324.446 C313.034,320.343 310.391,315.791 308.161,310.87 M302.805,295.241 L349.629,278.302 L348.862,280.17 L307.751,309.933 C305.725,305.315 304.054,300.396 302.805,295.241 M300.277,277.084 L351.588,273.527 L350.141,277.054 L302.566,294.265 C301.296,288.762 300.519,283.001 300.277,277.084 M300.647,263.809 C300.972,260.539 301.413,257.38 301.944,254.312 L355.332,264.528 L352.012,272.495 L300.231,276.085 C300.109,272.054 300.235,267.954 300.647,263.809 M357.463,264.935 L358.763,272.027 L353.124,272.417 L356.358,264.724 z M351.41,276.595 L352.7,273.45 L358.721,273.033 L356.187,274.868 z M353.253,276.991 L350.399,279.057 L350.898,277.843 z M359.437,276.175 L344.995,292.227 L349.678,280.814 L356.663,275.757 L359.219,274.832 z M360.058,280.003 L362.435,294.651 L356.003,307.267 z M360.043,273.311 L360.017,273.482 L360.013,273.483 L359.991,273.348 z M368.933,284.107 L365.951,310.076 L363.475,294.814 z M360.597,276.379 L363.324,273.348 L364.311,272.991 L369.553,278.189 L369.599,278.311 L369.26,281.265 L363.204,293.143 L360.543,276.745 z M360.918,274.218 L361.332,274.069 L360.863,274.589 z M361.119,272.867 L361.86,272.815 L361.085,273.095 z M361.513,270.217 L361.976,270.676 L361.381,271.107 z M362.696,271.39 L363.04,271.73 L362.139,271.792 z M365.567,269.36 L363.919,271.193 L363.517,270.795 z M366.453,269.87 L366.875,271.001 L365.29,271.575 L364.895,271.602 z M367.407,272.43 L368.72,275.953 L365.352,272.614 L365.493,272.563 z M370.297,272.23 L369.85,276.12 L368.448,272.358 z M370.465,270.764 L370.413,271.219 L368.922,271.323 z M371.311,272.16 L373.283,272.023 L373.624,272.704 L370.878,278.092 L370.655,277.872 z M371.515,270.384 L372.319,270.094 L372.798,271.054 L371.427,271.149 z M373.948,270.974 L373.879,270.979 L373.82,270.861 z M374.333,271.315 L374.189,271.597 L374.074,271.368 L374.053,271.067 z M376.694,278.844 L377.134,284.296 L371.623,278.831 L374.18,273.817 z M375.107,271.999 L376.221,272.986 L376.479,276.177 L374.745,272.709 z M376,270.247 L376.105,271.548 L375.575,271.079 z M377.891,281.238 L381.667,288.79 L378.225,285.377 z M377.258,285.828 L378.306,298.809 L371.247,279.869 z M352.552,192.304 L367.477,252.571 L329.368,202.419 C336.391,196.892 344.27,193.462 352.552,192.304 M362.168,191.961 C365.063,192.166 367.997,192.883 370.916,194.033 L374.403,249.562 L372.982,259.815 L369.005,254.581 L353.547,192.164 C356.383,191.831 359.262,191.755 362.168,191.961 M381.273,200.02 L375.093,244.588 L371.944,194.452 C375.105,195.811 378.237,197.689 381.273,200.02 M374.023,259.585 L374.718,254.571 L374.898,257.445 z M397.604,207.123 C397.199,210.088 396.73,213.41 396.253,216.561 C397.699,218.766 399.056,221.101 400.331,223.527 L388.635,244.075 C387.864,246.145 387.098,248.175 386.384,250.05 L400.878,224.586 C403.271,229.291 405.319,234.363 406.912,239.722 L384.608,254.683 C384.38,255.271 384.17,255.816 383.979,256.308 L407.196,240.735 C408.444,245.12 409.405,249.678 409.994,254.376 L386.338,261.359 C386.275,261.527 386.206,261.694 386.122,261.865 L386.285,262.417 L410.1,255.388 C410.716,260.799 410.849,266.377 410.431,272.051 L383.138,264.738 C382.75,264.974 382.342,265.211 381.927,265.449 L410.353,273.066 C410.316,273.493 410.298,273.916 410.255,274.344 C409.633,280.556 408.646,286.53 407.328,292.211 L380.955,266 C380.921,266.02 380.889,266.038 380.856,266.057 L380.228,266.688 L407.067,293.362 C406.695,294.9 406.291,296.409 405.868,297.9 L377.186,272.505 L376.908,269.097 C376.503,269.656 376.301,269.833 374.581,269.833 C373.739,269.833 373.096,269.424 372.498,268.884 L371.643,269.276 L371.737,268.138 C371.438,267.83 371.132,267.524 370.802,267.245 L370.593,269.656 L367.816,270.661 L366.971,268.378 L369.635,266.513 C369.248,266.353 368.821,266.25 368.331,266.25 L368.268,266.25 L366.613,267.41 L366.184,266.25 L365.116,266.25 L365.762,268.005 L362.797,270.081 L361.568,268.863 C361.364,268.917 361.128,268.951 360.874,268.951 C360.812,268.951 360.752,268.946 360.692,268.943 L360.249,271.924 L359.765,271.957 L358.517,265.137 L361.875,265.78 C361.178,265.35 361.252,264.67 361.714,263.919 L306.927,235.743 L306.47,236.631 L360.747,264.545 L302.124,253.328 C304.358,241.008 308.205,230.359 313.251,221.546 L363.066,262.349 C363.311,262.118 363.566,261.891 363.821,261.674 L313.759,220.67 C315.993,216.883 318.45,213.449 321.097,210.375 L366.174,259.897 C366.194,259.883 366.206,259.875 366.206,259.875 L367.507,259.875 L321.753,209.611 C323.914,207.18 326.192,204.98 328.577,203.032 L368.084,255.022 L369.286,259.875 L370.316,259.875 L369.612,257.034 L371.772,259.875 L373.982,259.875 L373.988,259.834 L374.088,259.875 L374.984,259.875 L375.042,259.735 L375.051,259.875 L376.053,259.875 L375.911,257.612 L387.492,229.303 C387.927,227.418 388.351,225.505 388.755,223.571 L375.767,255.322 L375.407,249.597 L382.183,200.735 C385.329,203.26 388.363,206.261 391.2,209.684 C391.629,206.572 391.956,203.521 392.144,200.603 C383.27,191.116 373.018,185.149 363.118,184.316 C329.411,181.481 298.414,211.001 292.39,264.433 C286.972,312.495 315.046,355.919 348.764,358.622 C386.747,361.667 410.962,326.061 416.414,278.001 C419.524,250.578 410.834,224.716 397.604,207.123" fill="#76D6FF"/>
      <path d="M465.592,258.933 C465.671,258.873 465.753,258.796 465.831,258.75 C465.831,258.75 466.143,258.421 466.472,258.044 L466.323,257.187 C465.843,257.373 465.261,257.601 464.745,257.743 z" fill="#76D6FF"/>
      <path d="M464.013,274.449 L464.013,276.61 L465.019,276.709 L465.056,274.007 z" fill="#76D6FF"/>
      <path d="M464.932,256.28 L457.554,245.907 C457.872,246.938 458.184,247.954 458.486,248.942 L464.105,256.842 C464.324,256.687 464.597,256.502 464.932,256.28" fill="#76D6FF"/>
      <path d="M450.502,274.751 L462.743,273.538 L462.379,272.569 L450.473,273.749 C450.458,273.005 450.449,272.256 450.449,271.5 C450.449,269.383 450.517,267.332 450.636,265.338 L461.549,269.205 L460.602,267.843 L450.698,264.298 C450.948,260.74 451.385,257.398 451.973,254.284 L457.333,259.139 C457.086,258.485 456.825,257.798 456.552,257.08 L452.198,253.138 C452.521,251.565 452.888,250.064 453.288,248.622 C452.59,246.843 451.893,245.09 451.23,243.456 C448.758,250.932 447.259,260.373 447.259,271.5 C447.259,273.061 447.29,274.603 447.346,276.125 L450.565,276.125 C450.545,275.666 450.516,275.216 450.502,274.751" fill="#76D6FF"/>
      <path d="M481.027,305.117 L479.438,288.767 L485.109,297.07 C483.949,300.173 482.576,302.884 481.027,305.117 M476.143,310.138 L476.143,297.524 L480.07,305.615 L480.139,306.326 C478.899,307.903 477.56,309.181 476.143,310.138 M475.143,310.752 C474.246,311.247 473.319,311.611 472.369,311.838 L471.584,295.809 L472.21,289.419 L475.143,295.464 z M470.041,312.125 C470.022,312.125 470.005,312.123 469.987,312.123 L470.917,302.621 L471.378,312.023 C470.935,312.084 470.491,312.125 470.041,312.125 M463.806,284.066 L455.061,299.37 C453.777,296.314 452.752,292.8 451.997,288.922 L463.88,281.226 z M463.466,297.153 L459.036,306.291 C457.736,304.66 456.575,302.721 455.56,300.513 L463.751,286.179 z M463.131,310.068 C461.92,309.29 460.788,308.305 459.742,307.126 L463.403,299.574 z M469.581,223.821 C463.974,223.821 458.532,228.054 454.423,235.849 C454.947,237.521 455.483,239.232 456.015,240.942 C457.506,237.629 459.229,234.888 461.105,232.81 L465.129,256.148 C465.141,256.139 465.15,256.134 465.164,256.125 C465.5,255.903 465.776,255.687 466.028,255.476 L461.965,231.914 C464.485,229.448 467.239,228.125 470.041,228.125 C474.423,228.125 477.832,230.254 480.481,233.632 L476.733,244.524 L477.678,244.85 L481.202,234.609 C483.129,237.378 484.62,240.833 485.758,244.604 L481.737,251.818 C481.944,252.132 482.16,252.43 482.385,252.709 L486.15,245.955 C486.69,247.916 487.138,249.944 487.514,251.99 L484.53,255.013 C484.761,255.261 484.985,255.51 485.197,255.763 L487.731,253.194 C488.298,256.541 488.665,259.9 488.893,263.054 L484.388,265.534 C484.181,266.028 484.031,266.489 483.972,266.905 L488.968,264.155 C489.091,266.107 489.161,267.963 489.188,269.672 L485.124,271.275 C485.224,271.593 485.321,271.914 485.409,272.237 L489.201,270.742 C489.203,270.995 489.206,271.255 489.206,271.5 C489.206,272.258 489.196,273.009 489.178,273.755 L485.784,274.091 C485.823,274.435 485.838,274.77 485.825,275.092 L489.143,274.763 C489.047,277.561 488.826,280.263 488.492,282.847 L482.417,280.743 C482.175,281.013 481.93,281.281 481.678,281.547 L488.36,283.861 C488.01,286.317 487.555,288.659 487.009,290.872 L480.392,282.83 C480.146,283.062 479.899,283.289 479.653,283.505 L486.699,292.067 C486.342,293.4 485.954,294.685 485.53,295.911 L479.237,286.699 L478.982,284.071 C478.662,284.33 478.349,284.559 478.045,284.77 L478.065,284.982 L477.96,284.828 C477.666,285.028 477.378,285.21 477.107,285.353 L478.266,287.051 L479.792,302.748 L476.143,295.231 L476.143,285.78 C475.818,285.919 475.485,286.078 475.143,286.252 L475.143,293.171 L472.45,287.622 C472.082,287.791 471.71,287.944 471.336,288.075 L471.249,288.962 L471.208,288.12 C470.88,288.23 470.549,288.315 470.219,288.38 L470.582,295.773 L468.985,312.078 C467.248,311.938 465.626,311.444 464.116,310.644 L464.461,297.393 L468.783,288.478 C468.445,288.452 468.109,288.377 467.774,288.266 L464.523,294.972 L464.755,286.084 C464.022,284.998 464.201,283.772 464.865,281.827 L464.891,280.794 L462.214,281.114 L451.797,287.859 C451.486,286.127 451.24,284.312 451.037,282.452 L447.789,282.841 C449.787,303.695 457.416,319.179 469.581,319.179 C481.909,319.179 491.414,297.832 491.414,271.5 C491.414,254.917 487.998,223.821 469.581,223.821" fill="#76D6FF"/>
      <path d="M467.226,270.213 L465.466,269.583 L465.055,270.445 L467.168,271.308 C467.23,270.976 467.176,270.549 467.226,270.213" fill="#76D6FF"/>
      <path d="M462.356,262.336 L462.91,264.189 L467.32,268.497 C467.341,268.015 467.433,267.489 467.393,267.063 z" fill="#76D6FF"/>
    </g>
  </g>
  <g id="sky">
    <g id="kite">
      <path d="M624.358,90.16 L635.943,105.842 L655.14,97.001 z" fill="#BCDD29"/>
      <path d="M655.141,97.001 L635.944,105.842 L660.116,138.562 z" fill="#34B2EA"/>
      <path d="M624.358,90.16 L614.409,115.76 L635.943,105.842 z" fill="#FB4F3C"/>
      <path d="M635.943,105.842 L614.409,115.76 L660.115,138.561 z" fill="#FFD300"/>
    </g>
    <path d="M459.304,46.34 C460.183,47.484 467.396,51.09 470.738,52.057 C474.079,53.024 476.805,54.607 477.597,56.718 C478.389,58.829 480.587,63.05 483.665,62.874 C483.665,62.874 482.17,60.851 482.346,59.796 C482.522,58.741 483.138,58.477 484.721,59.972 C486.304,61.467 494.658,66.48 498.617,66.48 C498.617,66.48 491.316,61.994 488.502,58.477 C485.689,54.959 481.643,56.894 481.643,56.894 C481.643,56.894 478.565,50.034 471.441,49.154 C464.317,48.275 459.304,46.34 459.304,46.34" fill="#D6D6D6"/>
    <path d="M736.51,62.259 C736.51,62.259 743.721,53.641 745.92,53.289 C748.119,52.937 755.683,54.608 756.298,53.728 C756.913,52.849 757.443,51.794 760.08,51.354 C762.718,50.914 763.07,48.364 764.389,48.012 C765.708,47.66 772.832,49.683 774.152,51.969 C775.471,54.256 773.712,52.497 772.129,52.145 C770.546,51.794 765.532,51.266 763.598,51.794 C761.663,52.321 761.399,52.408 760.783,53.992 C760.168,55.575 758.937,57.774 757.705,58.477 C756.474,59.181 756.386,60.94 756.386,61.644 C756.386,62.347 751.726,62.435 751.285,61.204 C750.845,59.972 751.197,60.237 752.34,59.357 C753.484,58.477 754.277,56.983 754.1,56.367 C753.923,55.751 753.835,55.575 751.989,55.751 C750.142,55.927 748.47,54.784 743.106,58.654 C737.741,62.523 735.073,63.926 736.51,62.259" fill="#D6D6D6"/>
  </g>
</svg>
