<?xml version="1.0" encoding="UTF-8"?>
<!DOCTYPE svg PUBLIC "-//W3C//DTD SVG 1.1//EN" "http://www.w3.org/Graphics/SVG/1.1/DTD/svg11.dtd">
<svg version="1.1" xmlns="http://www.w3.org/2000/svg" xmlns:xlink="http://www.w3.org/1999/xlink" x="0" y="0" width="200" height="200" viewBox="0, 0, 200, 200">
  <defs>
    <linearGradient id="Gradient_1" gradientUnits="userSpaceOnUse" x1="100" y1="245" x2="100" y2="-45">
      <stop offset="0" stop-color="#F75C1E"/>
      <stop offset="1" stop-color="#FFCA00"/>
    </linearGradient>
  </defs>
  <g id="backdrop">
    <path d="M-55,245 L255,245 L255,-45 L-55,-45 z" fill="url(#Gradient_1)" display="none"/>
  </g>
  <g id="vector">
    <path d="M82.156,73.593 C87.955,73.593 92.656,68.892 92.656,63.093 C92.656,57.294 87.955,52.593 82.156,52.593 C76.357,52.593 71.656,57.294 71.656,63.093 C71.656,68.892 76.357,73.593 82.156,73.593" fill="#FFFFFF"/>
    <path d="M82.156,47.593 C90.703,47.593 97.656,54.546 97.656,63.093 C97.656,71.64 90.703,78.593 82.156,78.593 C73.609,78.593 66.656,71.64 66.656,63.093 C66.656,54.546 73.609,47.593 82.156,47.593 M80.654,80.517 C78.771,84.869 76.227,92.197 81.44,97.541 C85.202,101.398 83.508,106.856 82.013,111.671 C81.818,112.3 81.628,112.911 81.457,113.501 C81.302,114.031 81.622,114.578 82.156,114.718 C82.69,114.858 83.237,114.537 83.392,114.007 C83.556,113.445 83.738,112.863 83.923,112.264 C85.501,107.18 87.466,100.854 82.872,96.145 C78.757,91.926 80.346,86.192 82.823,80.559 C92.162,80.204 99.656,72.517 99.656,63.093 C99.656,53.444 91.805,45.593 82.156,45.593 C72.507,45.593 64.656,53.444 64.656,63.093 C64.656,72.236 71.707,79.751 80.654,80.517" fill="#FFFFFF"/>
    <path d="M79.512,138.218 L79.512,118.107 C79.512,117.554 79.067,117.165 78.527,117.278 C69.303,119.204 62.243,129.916 62.243,142.843 L62.243,157.968 C62.243,163.49 66.72,167.968 72.243,167.968 L90.781,167.968 C96.304,167.968 100.781,163.49 100.781,157.968 L100.781,142.843 C100.781,141.61 100.713,140.398 100.588,139.212 C100.529,138.662 100.02,138.218 99.468,138.218 z" fill="#FFFFFF"/>
    <path d="M84.496,117.278 C83.955,117.165 83.512,117.555 83.512,118.107 L83.512,134.218 L83.512,135.093 L98.9,135.093 C99.453,135.093 99.8,134.657 99.658,134.123 C97.316,125.338 91.537,118.748 84.496,117.278" fill="#FFFFFF"/>
    <path d="M128.163,19.227 C128.287,20.302 129.258,21.074 130.333,20.95 L137.625,21.004 C138.7,20.881 139.472,19.909 139.349,18.834 L138.53,11.696 C138.406,10.622 137.434,9.849 136.359,9.973 L129.143,12.088 C128.068,12.211 127.296,13.183 127.42,14.258 z" fill="#FFFFFF"/>
    <path d="M152.828,21.004 L160.12,20.95 C161.195,21.074 162.166,20.302 162.29,19.227 L163.033,14.258 C163.157,13.183 162.385,12.211 161.309,12.088 L154.094,9.973 C153.018,9.849 152.047,10.622 151.923,11.696 L151.104,18.834 C150.981,19.909 151.753,20.881 152.828,21.004" fill="#FFFFFF"/>
    <path d="M120.287,96.093 L121.371,96.093 C121.924,96.093 122.267,95.658 122.139,95.121 C115.458,67.179 111.532,43.641 111.532,31.218 C111.532,26.826 112.554,24.654 113.429,24.129 C114.736,23.344 120.613,21.184 125.224,19.572 C125.745,19.39 126.1,18.801 126.018,18.255 C125.969,17.921 125.913,17.55 125.863,17.216 C125.782,16.67 125.293,16.372 124.771,16.554 C121.434,17.714 113.746,20.44 111.885,21.557 C109.723,22.854 108.532,26.285 108.532,31.218 C108.532,43.753 112.424,67.26 119.055,95.121 C119.183,95.658 119.735,96.093 120.287,96.093" fill="#FFFFFF"/>
    <path d="M178.569,21.557 C176.707,20.44 169.019,17.714 165.682,16.554 C165.161,16.372 164.672,16.67 164.59,17.216 L164.438,18.238 C164.357,18.784 164.713,19.374 165.234,19.558 C169.84,21.184 175.718,23.345 177.025,24.129 C177.9,24.654 178.922,26.826 178.922,31.218 C178.922,43.641 174.995,67.179 168.315,95.121 C168.187,95.658 168.53,96.093 169.082,96.093 L170.167,96.093 C170.719,96.093 171.271,95.659 171.399,95.121 C178.029,67.26 181.922,43.753 181.922,31.218 C181.922,26.286 180.731,22.854 178.569,21.557" fill="#FFFFFF"/>
    <path d="M168.108,104.093 L167.067,104.093 C166.515,104.093 165.99,104.535 165.875,105.075 C163.537,116.005 155.201,124.114 145.302,124.114 C135.403,124.114 127.066,116.005 124.729,105.075 C124.614,104.535 124.089,104.093 123.537,104.093 L122.494,104.093 C121.941,104.093 121.564,104.536 121.669,105.078 C123.937,116.79 132.453,125.768 142.899,126.973 C142.17,159.665 115.369,186.04 82.505,186.04 C49.186,186.04 22.078,158.933 22.078,125.614 C22.078,102.121 36.174,81.447 57.164,71.594 C57.664,71.36 57.926,70.753 57.746,70.231 L57.089,68.332 C56.909,67.81 56.352,67.568 55.851,67.799 C33.256,78.226 18.078,100.424 18.078,125.614 C18.078,161.139 46.98,190.04 82.505,190.04 C117.55,190.04 146.13,161.91 146.897,127.046 C157.709,126.221 166.607,117.088 168.933,105.077 C169.038,104.535 168.66,104.093 168.108,104.093" fill="#FFFFFF"/>
    <path d="M60.403,71.317 C60.63,71.917 61.2,72.287 61.806,72.287 C61.983,72.287 62.162,72.255 62.337,72.189 C63.111,71.896 63.502,71.03 63.209,70.255 C62.621,68.701 62.227,67.073 62.038,65.417 C61.944,64.593 61.198,63.997 60.378,64.097 C59.554,64.191 58.963,64.934 59.057,65.757 C59.275,67.66 59.727,69.53 60.403,71.317" fill="#FFFFFF"/>
  </g>
</svg>
