<?xml version="1.0" encoding="UTF-8"?>
<!DOCTYPE svg PUBLIC "-//W3C//DTD SVG 1.1//EN" "http://www.w3.org/Graphics/SVG/1.1/DTD/svg11.dtd">
<svg version="1.1" xmlns="http://www.w3.org/2000/svg" xmlns:xlink="http://www.w3.org/1999/xlink" x="0" y="0" width="302" height="282" viewBox="0, 0, 302, 282">
  <g id="backcolour" display="none">
    <path d="M0,282 L302,282 L302,0 L0,0 z" fill="#008ECE"/>
  </g>
  <g id="vectors">
    <path d="M283.236,77.506 C283.565,79.02 282.887,81.039 281.042,80.98 C281.633,88.964 279.574,96.309 282.871,101.458 C284.591,104.145 287.53,106.299 290.002,108.772 C291.725,110.496 296.721,113.952 295.852,117.183 C295.334,119.11 290.76,119.842 287.807,120.291 C280.839,121.351 273.888,121.345 266.964,120.291 C263.896,119.824 259.037,119.245 258.551,117 C257.827,113.635 262.602,110.757 264.769,108.589 C267.174,106.184 270.411,103.729 271.9,101.093 C274.699,96.138 272.76,89.24 273.362,81.163 C273.424,80.187 271.785,80.912 271.717,80.066 C271.642,79.287 271.632,78.444 271.351,77.871 C273.966,76.354 280.067,76.839 283.236,77.506" fill="#0067AB"/>
    <path d="M81.288,16.431 C82.019,17.279 83.396,16.306 82.646,15.242 C82.114,15.599 81.991,15.599 81.457,15.242 C81.223,15.461 81.289,15.979 81.288,16.431 M82.307,14.052 C83.769,15.106 83.799,18.418 85.025,19.15 C85.811,17.274 85.143,13.944 85.365,11.504 C83.137,11.144 81.864,11.742 82.307,14.052 M88.423,11.504 C87.679,13.635 88.374,17.603 88.083,20.169 C91.893,25.219 88.973,36.083 88.254,43.275 C87.517,50.641 88.254,58.098 88.254,65.701 C88.254,67.709 88.926,71.909 86.555,71.647 C84.46,71.415 85.365,62.632 85.365,60.434 L85.365,48.031 C84.437,47.956 83.34,49.177 81.797,49.051 C81.404,49.734 81.147,50.552 80.608,51.09 C82.572,51.904 80.889,54.945 79.248,54.827 C78.684,59.337 79.46,62.062 77.72,65.361 C76.323,68.008 71.722,69.868 72.112,73.516 C72.368,75.881 75.906,77.534 77.72,78.613 C81.091,80.618 84.205,82.516 86.044,85.578 C86.491,86.322 87.171,87.499 86.894,88.467 C85.358,88.679 85.451,87.065 84.685,85.918 C82.649,82.865 79.064,81.103 75.681,78.952 C73.731,77.713 70.867,75.815 70.754,73.346 C70.564,69.185 75.164,67.86 76.701,64.681 C78.166,61.647 77.411,59.064 78.059,54.827 C76.939,54.044 74.935,53.92 74.662,52.449 C74.483,51.491 75.353,50.982 75.342,49.73 C71.61,49.708 68.661,48.31 68.545,44.293 C68.477,41.92 69.877,38.427 70.075,34.1 C70.259,30.038 69.296,24.983 70.584,22.547 C71.525,20.766 74.114,19.681 76.191,19.829 C78.368,18.155 79.498,15.435 81.797,13.883 C82.004,12.769 81.503,12.364 81.457,11.504 C79.865,11.509 78.49,11.656 78.399,10.654 C78.252,9.034 80.655,10.12 81.797,9.295 C83.477,9.818 86.288,9.635 89.611,9.635 C91.648,9.635 94.94,9.185 95.05,10.484 C95.209,12.396 90.317,11.15 88.423,11.504" fill="#0067AB"/>
    <path d="M107.135,15.927 C109.192,15.284 112.413,15.807 114.943,15.638 C115.742,15.812 115.448,14.889 116.1,14.916 C118.639,15.095 121.118,14.556 122.751,15.059 C123.376,15.155 122.798,14.047 123.184,13.903 L160.053,13.903 C160.483,13.321 159.913,11.738 160.343,11.156 L160.92,11.156 C161.882,11.592 161.103,13.77 161.354,14.916 C163.042,15.251 165.355,14.964 167.283,15.059 C167.618,14.431 167.333,13.183 167.427,12.312 L168.873,12.312 L168.873,22 L167.717,22 C167.148,21.504 167.761,20.258 167.427,19.253 C165.692,18.916 163.33,19.204 161.354,19.108 C161.26,20.411 161.546,22.095 161.21,23.156 L160.487,23.156 C159.84,22.791 160.37,21.248 160.198,20.409 C148.15,19.976 135.089,20.553 123.04,20.12 L123.04,16.506 C121.182,16.94 118.936,16.522 116.244,16.65 C114.391,15.227 110.117,16.223 107.135,15.927" fill="#0067AB"/>
    <path d="M12.231,96.492 C14.694,95.183 18.868,95.31 20.276,97.223 C22.97,100.88 19.408,106.735 16.437,108.377 C14.888,109.232 12.426,109.27 11.682,110.754 C10.388,113.333 12.54,118.387 12.961,120.627 C13.484,123.392 13.882,127.207 15.705,129.587 C17.309,129.542 18.269,128.465 19.911,127.941 C21.546,127.419 23.428,127.667 25.03,127.21 C26.325,126.84 26.792,125.313 28.138,125.381 C30.147,126.308 31.44,130.561 29.785,132.878 C28.73,133.293 27.14,133.07 26.676,132.329 C24.434,133.989 20.539,133.993 16.985,134.341 C14.287,136.676 17.707,143.841 15.523,146.774 C16.352,155.183 14.413,164.893 15.523,172.921 C15.643,173.802 16.033,174.091 16.072,174.931 C15.217,177.655 15.523,182.28 15.523,187 C15.523,190.594 15.168,194.414 15.523,197.056 C15.757,198.803 16.75,200.613 15.523,201.992 C15.385,211.21 15.235,220.442 17.35,227.409 C15.853,228.668 12.1,228.596 10.585,227.409 C12.908,219.759 12.728,209.561 12.049,200.53 C11.958,199.321 12.303,198.325 12.415,197.056 C13.056,189.733 11.725,180.308 12.415,172.921 C12.764,169.162 12.415,164.365 12.415,159.939 C12.415,155.415 13.117,150.592 12.415,147.139 C12.27,146.43 11.889,146.208 11.682,145.494 C11.959,137.728 10.344,129.772 9.306,121.908 C8.797,118.063 8.234,114.541 7.111,110.937 C5.937,107.162 5.937,103.29 5.1,99.783 C4.868,98.812 3.863,97.159 4.002,96.126 C4.468,92.7 11.419,93.764 12.231,96.492" fill="#0067AB"/>
    <path d="M272.519,183.572 C272.643,192.761 272.133,201.419 273.068,209.17 C274.011,216.985 277.632,222.743 278.37,230.197 L278.37,206.793 C279.531,206.912 281.171,206.552 282.027,206.976 C282.149,214.655 281.784,222.822 282.209,230.197 C282.655,222.512 286.633,216.781 287.513,208.988 C288.418,200.943 287.744,191.948 287.695,183.023 C283.63,185.447 276.643,185.22 272.519,183.023 z M272.703,151.391 C272.276,160.533 272.641,170.468 272.519,179.915 C276.261,177.748 284.155,177.683 287.878,179.915 L287.878,151.391 z M290.803,151.574 L290.803,179.55 C290.635,180.266 291.769,179.682 291.901,180.098 L291.901,182.657 C292.075,183.318 291.181,182.913 290.803,183.023 C290.569,191.027 291.119,198.72 290.803,205.879 C290.277,217.854 283.657,225.202 284.953,238.608 C285.571,238.312 284.594,236.421 285.501,236.414 C287.267,236.226 285.883,238.39 286.415,239.156 C286.149,239.425 285.218,239.425 284.953,239.156 L284.953,245.008 C285.11,245.46 286.225,244.954 286.415,245.373 L286.415,247.933 C286.149,248.201 285.218,248.201 284.953,247.933 L284.953,251.773 L282.027,251.773 C281.169,258.726 284.398,261.593 283.672,268.411 C285.827,270.159 285.253,274.632 286.415,277.37 C282.698,277.797 278.188,277.432 274.165,277.554 C274.525,274.622 275.24,272.047 275.811,269.325 C275.794,268.76 276.363,268.78 276.909,268.778 C276.775,264.622 276.88,260.704 278.37,258.172 L278.37,251.955 C277.757,251.532 276.363,251.892 275.444,251.773 L275.444,248.116 C275.419,247.814 274.682,248.307 274.165,248.116 L274.165,245.191 L275.444,245.191 L275.444,239.522 C275.367,239.113 274.544,239.448 274.165,239.339 L274.165,236.414 C274.651,236.415 275.209,236.344 275.444,236.596 C276.16,224.021 270.127,217.092 269.594,205.33 C269.283,198.5 269.826,191.071 269.594,183.388 C269.762,182.672 268.63,183.256 268.497,182.841 L268.497,180.098 C268.881,179.652 269.309,180.26 269.594,179.915 L269.594,151.757 C268.167,149.259 265.331,148.792 265.205,146.272 C265.103,144.236 266.772,142.919 268.862,143.529 C270.453,143.993 270.92,145.13 272.154,145.723 C276.611,147.868 284.856,147.62 288.792,145.357 C290.139,144.583 290.967,143.074 292.998,143.346 C293.951,143.474 295.082,144.691 295.193,145.54 C295.633,148.981 292.059,149.414 290.803,151.574" fill="#0067AB"/>
    <path d="M105.94,198.378 C105.639,203.745 105.898,209.669 105.811,215.251 L108.902,215.251 C108.912,209.737 108.912,203.961 108.902,198.378 z M96.538,198.378 C96.237,203.745 96.495,209.669 96.408,215.251 L100.402,215.251 C100.537,208.82 100.398,205.245 100.402,198.378 z M87.136,198.378 C86.835,203.745 87.092,209.669 87.006,215.251 L90.999,215.251 C90.986,210.179 91.022,203.064 90.999,198.378 z M77.605,198.378 C77.304,203.701 77.561,209.583 77.476,215.121 C78.601,215.412 80.259,215.171 81.597,215.251 C81.703,208.814 81.624,205.039 81.597,198.378 z M88.552,191.422 C88.559,192.203 88.373,192.789 88.295,193.483 C87.87,193.574 87.471,193.69 87.006,193.741 L87.006,195.544 C87.811,195.647 89.985,195.365 90.999,195.673 L90.999,193.87 C90.785,193.526 90.111,193.643 89.84,193.355 C89.825,192.64 89.566,192.169 89.583,191.422 C91.849,190.852 95.688,190.852 97.955,191.422 C97.998,192.238 97.715,192.728 97.696,193.483 C97.286,193.589 96.748,193.566 96.408,193.741 L96.408,195.544 C97.444,195.621 99.377,195.42 100.402,195.673 C100.625,195.045 100.328,194.445 100.53,193.741 C100.18,193.533 99.497,193.659 99.242,193.355 C99.228,192.64 98.968,192.169 98.984,191.422 C101.171,190.878 104.906,190.834 107.356,191.422 C107.399,192.238 107.116,192.728 107.098,193.483 C106.584,193.484 106.326,193.741 105.811,193.741 L105.811,195.544 C106.332,195.656 108.173,195.361 108.902,195.673 C109,195.128 108.664,194.148 109.159,193.999 C110.003,193.842 109.568,194.965 109.674,195.544 C110.273,195.853 111.021,196.996 110.963,198.378 L109.674,198.378 L109.674,214.992 C110.339,215.745 111.019,216.482 110.963,217.955 L109.545,217.955 C109.384,218.651 109.923,220.05 109.159,220.144 C108.407,220.08 108.926,218.746 108.773,218.084 C108.314,218.586 107.215,217.652 105.811,217.955 C107.32,223.72 99.012,223.795 100.402,218.084 C99.327,217.784 97.698,218.04 96.408,217.955 C97.938,223.718 89.585,223.809 90.999,218.084 C89.925,217.784 88.295,218.04 87.006,217.955 C88.529,223.741 80.218,223.754 81.597,218.084 C80.651,217.784 79.15,218.04 77.991,217.955 C77.829,218.651 78.368,220.05 77.605,220.144 C76.84,220.05 77.38,218.651 77.218,217.955 C77.118,218.284 76.848,218.443 76.316,218.341 C76.488,217.01 75.758,216.581 75.93,215.251 L76.832,215.251 L76.832,198.636 C76.198,197.982 75.933,196.959 75.93,195.673 C76.103,195.489 76.66,195.489 76.832,195.673 C76.954,195.109 76.515,193.982 77.218,193.999 C77.9,193.96 77.495,195.01 77.605,195.544 C78.656,195.666 80.318,195.38 81.597,195.673 C81.807,195.208 81.398,194.326 81.726,193.741 C81.376,193.533 80.692,193.659 80.439,193.355 C80.433,192.715 80.108,191.856 80.309,191.422 C82.511,190.824 86.34,190.874 88.552,191.422" fill="#0067AB"/>
    <path d="M152.979,151.242 C152.889,153.162 152.396,154.682 152.249,156.544 C153.097,156.914 154.439,156.791 155.173,157.276 C154.956,158.338 154.866,159.527 154.625,160.567 C153.896,160.692 153.38,161.029 152.43,160.932 C152.697,162.738 151.712,165.796 153.346,166.235 C151.452,169.704 149.245,172.861 146.762,175.742 C145.834,174.806 145.15,173.603 144.02,175.011 C142.661,170.877 143.923,166.146 143.655,161.116 C143.056,160.8 142.102,160.839 141.46,160.567 C141.219,159.527 141.13,158.338 140.911,157.276 C141.727,156.932 142.641,156.69 143.837,156.727 C143.734,154.758 143.125,153.295 143.107,151.242 C145.926,150.52 150.161,150.52 152.979,151.242" fill="#0067AB"/>
    <path d="M153.162,168.247 C155.324,169.916 157.98,169.826 159.744,171.538 C160.816,172.579 161.9,174.683 162.122,176.658 C163.047,184.931 161.556,199.146 161.938,206.828 C159.319,209.433 153.326,209.57 148.042,209.57 C142.743,209.57 136.954,209.378 134.145,207.01 C134.501,199.295 133.073,184.915 133.964,176.658 C134.484,171.824 137.861,170.027 142.192,168.796 C142.038,171.081 143.41,173.593 142.923,175.378 C142.457,177.08 140.178,176.978 139.266,178.304 C138.893,183.721 138.528,189.145 137.986,194.394 C141.064,195.46 144.525,196.142 148.042,196.77 C148.37,194.304 148.574,191.215 148.774,187.994 C148.959,185.002 149.701,181.294 149.323,179.218 C149.063,177.797 147.584,177.372 147.311,176.292 C149.614,173.964 151.61,171.327 153.162,168.247" fill="#0067AB"/>
    <path d="M249.699,8.116 L249.994,8.116 C251.199,9.534 251.881,11.413 252.8,13.138 C253.671,14.773 254.928,16.432 255.016,18.308 C254.165,17.141 252.739,16.549 251.324,15.945 C250.428,16.625 250.002,17.774 249.256,18.603 C249.479,19.365 250.32,19.509 250.881,19.933 C249.238,22.525 247.451,24.972 245.711,27.466 C246.316,28.523 247.313,30.469 246.449,32.045 C248.991,35.823 253.748,39.537 253.392,45.634 C253.05,51.505 247.684,53.566 241.132,53.759 C241.356,55.442 242.925,57.487 241.132,58.929 C240.648,59.316 239.714,59.108 239.506,59.963 C239.782,60.528 241.65,60.276 242.165,60.11 C242.616,60.563 242.221,62.011 242.313,62.769 C237.66,62.749 232.192,62.783 227.099,62.769 L227.099,60.259 C227.834,60.082 228.491,60.305 229.906,60.259 C230.236,59.161 229.965,57.462 230.053,56.122 C229.752,55.783 228.825,56.069 228.281,55.974 L228.281,53.759 C225.363,54.868 224.146,50.844 226.803,50.657 L226.803,48.885 C224.935,48.241 222.488,48.177 220.452,47.702 C220.673,46.89 220.76,45.943 220.895,45.044 C226.105,45.889 231.27,46.781 236.553,47.555 C236.597,48.584 236.304,49.277 236.257,50.214 C235.103,50.283 233.865,49.656 233.007,49.918 C233.089,50.968 234.601,50.506 235.223,50.509 C241.093,50.54 250.833,51.366 250.142,44.749 C250.023,43.615 249.298,42.606 248.665,41.794 C246.595,39.138 243.146,37.068 240.689,34.852 C240.645,35.042 239.19,36.328 239.211,36.624 C239.277,37.518 241.135,37.697 241.722,38.545 C241.088,39.437 240.593,40.469 239.802,41.203 C238.731,40.6 237.747,39.909 236.847,39.136 C235.173,41.054 234.078,43.555 232.268,45.339 C231.224,45.005 230.556,44.295 229.758,43.714 C230.679,41.092 232.651,39.518 233.894,37.215 C233.464,36.66 232.679,36.459 232.268,35.886 C230.916,37.143 230.211,39.046 228.871,40.317 C227.896,39.865 227.033,39.301 226.36,38.545 C227.103,36.777 228.415,35.576 229.314,33.966 C228.662,33.486 228.049,32.967 227.246,32.637 C227.851,31.664 228.497,30.736 229.167,29.829 C230.093,30.283 230.74,31.015 231.678,31.454 C235.677,26 239.549,20.418 243.346,14.762 C243.978,15.117 244.465,15.614 245.12,15.945 C247.162,14.147 247.728,10.872 249.845,9.15 C249.831,8.733 249.29,8.523 249.699,8.116" fill="#0067AB"/>
    <path d="M30.924,265.262 C33.775,264.125 34.942,260.494 38.626,258.881 C42.923,256.996 46.76,258.752 50.947,259.102 C54.736,259.416 60.512,259.36 61.067,256.461 C61.887,252.166 54.363,250.387 50.066,250.08 C38.522,249.252 29.245,251.856 21.464,254.26 C19.537,261.588 24.176,267.951 30.924,265.262 M23.663,240.177 C25.022,241.635 24.516,243.376 26.524,243.699 C27.183,243.804 29.342,243.273 29.384,243.259 C30.436,242.887 31.687,242.032 32.243,241.279 C27.746,241.522 25.391,239.624 23.663,237.097 z M39.726,206.514 C29.037,205.221 27.454,211.743 25.865,219.935 C25.026,224.252 23.397,229.355 24.102,234.456 C24.773,239.291 30.002,240.974 34.446,240.177 C36.414,239.824 39.741,237.296 41.706,236.217 C46.757,233.446 51.174,231.297 56.227,228.516 C59.136,226.916 64.13,225.321 63.927,220.816 C63.743,216.687 60.099,215.355 57.987,212.675 C56.036,211.803 53.002,211.185 52.707,208.054 C54.374,205.993 56.156,208.57 57.766,209.155 C58.518,209.61 57.807,210.378 58.207,210.914 C62.668,213.098 69.466,221.406 63.267,226.536 C61.214,228.236 57.913,229.625 55.127,231.157 C47.309,235.453 37.661,240.52 30.485,244.578 C29.823,244.65 30.225,245.787 29.603,245.898 C28.206,246.406 26.998,247.106 24.984,246.998 C24.173,248.754 22.937,250.084 22.123,251.84 C27.674,250.428 37.752,248.026 46.765,248.098 C52.638,248.149 59.156,249.366 61.728,252.5 C66.863,258.764 57.984,261.41 50.726,260.86 C46.484,260.537 43.292,258.858 39.505,260.42 C36.678,261.586 34.82,265.09 32.684,266.362 C25.2,270.819 17.242,263.645 19.704,255.139 C16.941,256.381 13.879,257.819 11.783,260.199 C9.4,262.905 6.757,268.811 12.662,269.662 C22.637,271.1 38.742,264.934 46.765,270.983 C49.115,270.61 52.17,270.657 54.027,271.422 C54.472,271.713 54.691,272.893 54.247,273.401 C55.854,273.879 56.813,273.805 56.887,275.162 C57.054,278.26 43.267,278.283 42.585,275.823 C41.916,273.407 44.222,274.315 45.007,272.961 C43.966,270.44 40.232,270.27 37.526,270.102 C29.907,269.627 19.664,272.153 12.883,271.422 C10.508,271.166 7.641,269.951 7.162,267.903 C6.139,263.526 9.869,259.33 12.223,257.34 C14.66,255.282 17.172,254.276 19.923,252.94 C20.88,250.233 20.95,247.973 22.564,245.898 C20.899,239.544 22.217,230.418 23.663,221.916 C25.565,210.732 27.409,203.865 40.165,204.533 C40.146,204.221 40.13,203.911 40.385,203.874 C42.556,204.351 45.01,203.562 45.666,205.194 C46.687,207.73 41.887,207.842 39.726,206.514" fill="#0067AB"/>
    <path d="M104.857,261.455 C104.122,260.605 104.444,258.699 103.759,257.799 C103.538,259.16 103.407,260.613 102.845,261.639 C99.653,261.576 96.964,261.961 95.167,260.724 C94.596,262.043 93.086,262.423 90.961,262.187 C90.564,260.023 90.142,257.885 89.5,255.97 C89.165,258.012 88.838,260.064 88.402,262.004 C87.889,262.047 87.415,260.559 86.756,260.541 C86.521,260.535 85.671,261.545 85.294,261.639 C82.664,262.285 78.663,260.922 76.699,261.82 C77.218,262.687 79.034,262.369 80.722,262.369 C82.472,262.369 84.653,262.684 85.842,262.369 C86.005,262.326 86.796,261.613 86.939,261.639 C87.893,261.797 88.349,264.268 89.132,263.466 C89.519,262.328 89.254,260.54 89.681,259.443 C89.938,260.528 90.08,261.726 90.23,262.918 C92.512,263.006 94.794,263.094 95.714,261.82 C97.428,262.701 101.97,262.59 103.943,262.004 C103.962,262.472 104.047,262.875 104.308,263.101 C104.676,262.615 104.937,262.023 105.955,262.187 C106.074,261.209 105.713,259.752 106.137,259.078 C106.358,263.827 106.315,267.715 106.868,272.06 C107.449,269.409 107.409,266.139 107.965,263.466 L110.525,263.466 C110.981,262.459 111.59,261.606 112.171,260.724 C112.721,262.091 114.935,263.053 116.194,261.639 C117.077,262.459 119.428,262.588 120.948,262.187 C121.626,263.235 122.069,262.36 122.96,263.283 C123.016,262.671 123.147,262.131 123.507,261.82 C123.596,265.824 123.441,269.293 124.239,272.791 C124.445,269.22 125.18,266.176 125.336,262.553 C125.566,262.295 126.301,262.541 126.068,261.82 C125.931,261.408 125.042,261.75 124.604,261.639 C124.595,262.666 124.705,263.81 124.239,264.381 C124.263,258.687 124.039,253.244 123.69,247.925 C123.837,247.3 123.418,246.881 123.507,247.742 C123.283,252.025 123.112,257.295 122.594,261.82 C121.082,260.605 117.912,262.555 115.829,260.541 C115.405,260.971 115.23,261.648 114.366,261.639 C113.376,261.043 112.946,259.889 111.806,259.443 C111.377,260.66 110.613,261.543 109.976,262.553 C108.893,262.687 107.08,262.092 107.051,263.283 C106.735,257.197 107.014,251.359 106.503,245.73 C105.797,250.814 105.975,256.783 104.857,261.455 M100.286,240.062 L101.75,240.062 C101.75,239.153 100.286,239.153 100.286,240.062 M100.835,238.782 C101.89,238.703 102.021,239.547 102.48,240.062 C103.942,239.881 104.929,240.174 105.406,240.976 C113.448,241.113 121.458,240.74 129.358,241.159 C129.174,247.31 129.358,251.693 129.358,259.261 C129.358,266.928 129.173,270.803 129.358,277.363 C110.948,277.654 91.625,277.661 73.408,277.363 C73.53,264.889 73.173,253.023 73.591,240.976 C77.168,241.006 80.969,240.976 84.926,240.976 C88.642,240.976 92.852,241.621 96.082,240.976 C97.318,240.729 98.285,239.473 99.737,240.062 C99.798,239.636 99.924,239.274 100.286,239.148 C100.42,238.977 100.619,238.871 100.835,238.782" fill="#0067AB"/>
    <path d="M131.93,59.598 L131.93,65.997 C131.775,66.696 130.898,66.673 130.284,66.911 C131.318,67.198 132.705,67.865 133.209,68.924 C133.515,69.566 133.304,70.419 133.575,71.118 C134.086,72.435 135.708,73.117 136.499,74.409 C138.735,78.055 139.274,82.899 141.254,86.659 C137.879,86.879 136.07,88.665 133.575,89.767 C133.593,90.517 133.611,91.266 133.391,91.779 C127.013,93.627 116.28,93.864 110.171,91.596 L110.171,80.625 C110.171,74.71 108.695,67.361 113.462,67.095 C113.044,66.598 112.005,66.723 111.633,66.18 L111.633,59.598 C116.938,57.667 126.634,57.628 131.93,59.598" fill="#0067AB"/>
    <path d="M137.704,36.745 C137.974,38.278 138.403,38.913 138.21,40.54 C137.618,45.527 130.202,45.192 125.94,46.865 C126.877,43.955 125.785,40.558 124.802,38.39 C128.834,37.559 133.158,35.163 137.704,36.745" fill="#0067AB"/>
    <path d="M122.398,36.492 C122.564,36.536 122.597,36.715 122.778,36.744 C120.716,38.008 117.065,38.161 114.682,39.275 C114.532,39.345 111.519,41.121 113.037,41.93 C113.351,42.097 114.265,41.127 114.809,40.919 C117.3,39.964 121.208,39.539 124.043,38.642 C125.118,40.696 126.041,43.933 125.307,46.991 C121.548,47.846 115.371,51.012 112.658,47.497 C111.729,46.292 110.943,43.331 111.519,41.551 C112.715,37.86 119.095,37.748 122.398,36.492" fill="#0067AB"/>
    <path d="M123.157,36.366 C127.303,35.574 133.985,31.664 137.072,35.86 C135.495,33.354 130.553,34.996 127.711,35.733 C126.027,36.17 124.351,36.966 123.157,36.366" fill="#0067AB"/>
    <path d="M175.253,46.864 C172.692,50.702 168.564,54.558 165.563,58.566 C170.473,59.12 171.677,55.577 174.156,52.532 C176.078,50.172 178.226,48.476 178.91,46.864 C178.941,46.79 179.562,46.431 178.544,46.498 C182.922,45.413 184.997,48.212 185.676,51.435 C188.692,51.279 192.643,50.964 195.366,51.617 C191.014,54.093 186.389,56.293 181.835,58.566 C182.821,59.286 184.451,59.364 185.676,59.845 C190.158,57.441 194.754,55.15 199.023,52.532 C198.506,52.683 198.549,52.275 198.108,52.349 C199.855,52.64 202.86,53.458 203.411,55.823 C203.891,57.878 203.938,62.113 203.229,63.868 C202.056,66.77 195.042,67.845 190.429,67.891 C185.062,67.945 179.788,66.731 177.814,63.503 C173.986,64.642 166.95,67.922 163.733,64.966 C162.974,64.267 162.399,62.362 161.905,61.126 C160.886,58.578 159.851,56.574 161.724,54.178 C164.586,50.511 170.378,48.519 175.253,46.864" fill="#0067AB"/>
    <path d="M201.044,203.956 L201.044,204.871 C202.053,204.966 202.767,204.766 203.603,204.687 C203.631,204.234 203.638,203.8 203.237,203.773 C202.783,204.074 201.292,204.026 201.044,203.956 M197.569,204.504 C197.962,204.787 199.859,205.292 200.129,204.504 C200.066,203.532 198.342,204.22 197.753,203.773 C197.793,204.119 197.546,204.177 197.569,204.504 M204.335,203.59 C204.437,203.916 204.428,204.35 204.7,204.504 C205.382,204.029 206.671,204.159 207.078,203.407 C206.935,203.367 206.864,203.254 206.895,203.042 C206.201,202.73 205.322,203.608 204.335,203.59 M194.278,203.59 C194.817,204.149 195.909,204.154 196.655,204.504 C196.58,204.064 196.988,204.107 196.839,203.59 C195.913,203.479 195.231,203.125 194.461,202.859 C194.502,203.205 194.255,203.263 194.278,203.59 M207.809,203.225 C208.666,202.863 209.638,202.616 210.003,201.762 C209.523,201.064 207.134,202.179 207.809,203.225 M191.17,202.128 C191.984,202.41 192.439,203.053 193.365,203.225 C193.459,202.955 193.634,202.764 193.731,202.494 C192.854,202.361 191.531,200.583 191.17,202.128 M210.368,200.848 C210.625,200.896 210.577,201.248 210.733,201.396 C211.659,201.04 212.125,200.228 212.745,199.568 C211.887,198.747 211.029,200.335 210.368,200.848 M190.439,201.396 C190.478,201.191 190.641,201.112 190.805,201.031 C190.432,200.123 189.588,199.687 188.792,199.202 C188.092,199.983 189.692,200.92 190.439,201.396 M212.745,198.471 C213.118,198.525 213.104,198.965 213.477,199.019 C213.657,198.408 214.21,198.168 214.391,197.556 C213.311,197.329 213.113,197.985 212.745,198.471 M209.272,199.385 C209.946,199.089 210.953,198.339 210.733,197.74 C210.197,197.478 208.517,197.405 207.992,197.74 C208.532,198.174 208.861,198.82 209.272,199.385 M206.711,201.031 C207.435,200.656 208.305,200.429 208.723,199.751 C208.009,199.185 207.584,198.331 207.078,197.556 C206.522,197.671 205.503,197.323 205.249,197.74 C205.749,198.824 206.404,199.753 206.711,201.031 M203.97,201.945 C204.84,201.963 205.335,201.604 205.981,201.396 C205.644,199.965 204.855,198.988 204.519,197.556 L203.054,197.556 C203.253,199.126 203.687,200.46 203.97,201.945 M201.044,202.494 C201.74,202.276 202.931,202.552 203.237,201.945 C202.795,200.62 202.562,199.087 202.323,197.556 L201.044,197.556 z M198.118,202.31 C198.99,202.169 199.294,202.596 200.129,202.494 C200.366,201.023 200.319,199.27 200.313,197.556 C197.817,197.378 198.74,200.618 198.118,202.31 M195.192,201.396 C195.867,201.575 196.242,202.053 197.204,201.945 C197.695,200.609 197.808,198.893 198.301,197.556 C195.685,197.255 196.185,200.072 195.192,201.396 M192.633,200.117 C193.33,200.333 193.791,200.786 194.461,201.031 C194.851,199.774 195.599,198.876 195.923,197.556 C195.257,197.553 195.103,197.037 194.644,196.825 C194.122,198.07 193.047,198.763 192.633,200.117 M186.234,197.008 C186.842,197.619 187.147,198.533 187.878,199.019 C187.927,198.763 188.279,198.81 188.427,198.653 C188.013,197.788 187.46,197.06 186.782,196.459 C186.838,196.881 186.253,196.663 186.234,197.008 M199.58,195.911 C199.773,195.721 199.958,194.605 199.58,194.448 C199.686,194.936 199.04,195.591 199.58,195.911 M201.775,195.911 C202.029,195.704 201.565,193.697 201.409,193.9 C201.593,194.508 201.006,195.889 201.775,195.911 M214.758,195.911 C216.14,196.014 215.923,194.517 216.402,193.717 C216.191,193.563 215.912,193.476 215.488,193.534 C215.551,194.566 214.4,195.173 214.758,195.911 M184.77,193.717 C184.815,194.768 185.541,195.142 185.686,196.094 C186.029,196.135 186.088,195.888 186.416,195.911 C186.697,195.248 185.656,194.533 185.686,193.534 C185.169,193.383 185.212,193.791 184.77,193.717 M203.603,195.911 C203.119,194.14 202.338,192.668 201.592,191.157 C202.316,192.687 201.529,195.731 203.603,195.911 M197.569,195.911 L198.666,195.911 C198.84,194.316 199.606,192.343 199.58,191.157 C198.901,192.732 198.188,194.274 197.569,195.911 M205.797,195.728 C204.465,194.196 203.494,192.302 202.141,190.791 C203.361,192.314 203.223,196.169 205.797,195.728 M195.558,195.911 L196.839,195.911 C197.404,194.099 198.789,192.133 199.031,190.609 C198.014,192.515 196.523,193.95 195.558,195.911 M206.711,195.911 C207.267,195.796 208.286,196.145 208.541,195.728 C206.634,194.1 204.526,191.697 202.689,190.609 C204.115,192.291 205.398,194.116 206.711,195.911 M215.854,192.62 C216.295,192.545 216.251,192.954 216.768,192.803 C216.801,191.92 217.42,190.857 217.134,190.243 C215.748,190.076 216.443,191.99 215.854,192.62 M190.256,198.105 C190.886,198.451 191.147,199.164 191.9,199.385 C193.991,196.355 196.916,193.186 198.483,190.243 C195.918,193.039 192.865,195.351 190.256,198.105 M184.404,192.803 C184.921,192.954 184.878,192.545 185.318,192.62 C184.825,191.894 185.429,190.072 184.039,190.243 C183.799,190.811 184.248,192.045 184.404,192.803 M212.745,195.546 C209.506,193.848 206.137,191.306 203.054,190.06 C206.362,191.575 207.806,196.877 212.745,195.546 M188.427,195.546 C188.581,196.367 189.289,196.634 189.524,197.373 C192.399,195.067 195.779,192.293 197.936,189.876 C194.897,191.898 191.659,193.719 188.427,195.546 M203.603,189.511 C206.853,191.259 209.857,193.252 213.294,194.814 C213.466,194.071 213.98,193.671 214.025,192.803 C210.601,191.896 206.228,189.999 203.603,189.511 M197.569,189.694 C197.609,189.464 197.854,189.32 197.387,189.329 C194.195,190.708 190.61,191.694 187.148,192.803 C187.186,193.68 187.601,194.178 187.878,194.814 C191.354,193.352 194.125,191.186 197.569,189.694 M214.391,192.071 C214.393,191.28 214.815,190.912 214.758,190.06 C211.233,189.682 207.243,188.797 203.786,188.963 C207.525,189.795 210.67,191.222 214.391,192.071 M186.416,189.876 C186.318,190.828 186.657,191.343 186.782,192.071 C190.509,191.165 193.919,189.945 197.387,188.78 C193.231,189.05 190.6,189.728 186.416,189.876 M214.574,186.952 C211.128,187.528 206.99,187.414 203.786,188.232 C207.749,188.349 211.44,189.097 214.94,189.145 C214.812,188.419 215.259,187.12 214.574,186.952 M186.234,189.145 C190.14,188.907 193.935,188.558 197.569,188.049 C193.745,187.728 190.016,187.313 186.234,186.952 z M216.768,189.329 C217.879,189.404 217.07,187.559 217.316,186.769 L216.585,186.769 C216.808,187.614 216.189,189.317 216.768,189.329 M183.856,189.329 L184.77,189.329 C184.65,188.451 184.495,187.781 184.77,186.952 C184.558,186.798 184.279,186.71 183.856,186.769 C183.479,187.529 183.781,188.491 183.856,189.329 M199.764,190.609 C198.314,189.407 197.81,186.9 199.764,185.855 C197.524,185.425 197.28,190.498 199.764,190.609 M220.607,190.243 C222.406,188.385 226.761,189.082 230.299,188.963 C230.69,188.136 230.385,186.611 230.482,185.489 L220.607,185.489 C220.837,186.749 220.958,189.003 220.607,190.243 M217.316,185.671 C217.104,185.518 216.827,185.431 216.402,185.489 C216.149,186.376 217.225,186.001 217.316,185.671 M203.603,187.5 C206.364,187.142 209.531,186.952 212.38,186.586 C213.128,186.49 214.46,186.549 214.758,185.671 C210.313,184.824 206.69,186.381 203.603,187.5 M203.603,186.952 C204.706,186.348 206.157,186.093 207.26,185.489 C205.431,185.247 203.994,186.365 203.603,186.952 M204.335,185.489 C202.552,185.995 203.312,186.754 204.335,185.489 M202.689,188.963 C202.408,189.657 201.493,189.717 201.409,190.609 C203.992,190.214 203.809,185.953 201.409,185.489 C201.766,186.717 203.125,186.942 202.689,188.963 M186.416,186.22 C190.055,186.543 194.201,187.333 197.569,187.317 C193.836,186.358 190.386,185.115 186.782,184.026 C186.768,184.865 186.317,185.268 186.416,186.22 M220.791,183.843 C223.277,184.397 228.307,183.708 230.482,183.477 C227.434,183.051 223.594,183.416 220.242,183.294 C220.176,183.901 220.553,183.79 220.791,183.843 M215.854,183.843 L216.768,183.843 C216.739,183.628 216.799,183.324 216.585,183.294 C216.535,183.671 215.775,183.338 215.854,183.843 M208.906,183.843 C210.66,183.768 212.847,184.127 213.842,183.294 C212.232,183.512 209.668,182.778 208.906,183.843 M205.981,183.843 C206.846,183.855 207.779,183.937 207.992,183.294 C207.156,183.313 206.102,183.112 205.981,183.843 M204.151,183.843 C204.849,183.93 205.293,183.766 205.432,183.294 C204.736,183.208 204.29,183.372 204.151,183.843 M183.856,185.855 C184.373,185.704 184.33,186.113 184.77,186.038 C184.84,185.131 185.009,184.326 185.318,183.661 C184.972,183.582 184.86,183.267 184.404,183.294 C184.222,184.147 184.094,185.056 183.856,185.855 M197.936,186.769 C194.438,185.085 191.34,183.003 187.878,181.284 C187.731,182.051 187.236,182.469 187.148,183.294 C190.665,184.411 194.649,186.032 197.936,186.769 M184.77,182.563 C185.09,182.55 185.34,182.605 185.502,182.746 C185.696,181.915 186.663,181.052 186.234,180.186 L185.686,180.186 C185.488,181.087 184.897,181.592 184.77,182.563 M197.753,186.22 C197.863,185.573 196.735,185.129 196.106,184.575 C193.956,182.678 191.791,180.339 189.524,178.907 C189.219,179.515 188.686,179.896 188.427,180.553 C191.471,182.507 194.787,184.188 197.753,186.22 M186.234,179.272 C186.581,179.351 186.692,179.666 187.148,179.638 C187.324,178.718 188.157,178.453 188.427,177.627 C187.4,176.68 186.856,178.673 186.234,179.272 M198.301,185.671 C198.921,186.026 198.126,184.953 198.118,184.94 C196.147,182.143 193.531,179.228 191.719,176.712 C191.469,177.498 190.397,177.462 190.256,178.358 C193.106,180.628 195.612,183.241 198.301,185.671 M194.096,175.249 C193.715,175.662 193.033,175.772 192.633,176.164 C194.598,179.378 196.804,182.353 199.031,185.306 C197.365,181.976 196.219,178.123 194.096,175.249 M188.427,176.529 C189.355,177.791 189.725,175.785 190.805,175.615 C190.744,175.189 190.616,174.827 190.256,174.702 C189.812,175.477 188.826,175.709 188.427,176.529 M197.753,175.981 C197.241,175.578 197.691,174.213 196.839,174.153 C197.047,174.743 197.336,176.206 197.753,175.981 M198.118,173.97 C198.572,176.503 198.81,179.252 199.764,181.284 L199.764,173.787 C199.027,173.661 198.721,173.962 198.118,173.97 M191.17,174.518 C191.941,175.327 192.66,173.801 193.731,173.787 C193.669,173.36 193.543,172.999 193.182,172.873 C192.633,173.544 191.384,173.513 191.17,174.518 M195.923,171.958 C195.947,172.483 196.152,172.827 196.839,172.69 L196.839,171.958 C196.599,171.724 196.165,171.724 195.923,171.958 M197.569,171.592 C197.529,171.938 197.776,171.996 197.753,172.324 C198.625,172.465 198.929,172.038 199.764,172.141 C200.096,170.652 198.297,171.53 197.569,171.592 M194.461,168.667 C195.754,168.375 197.297,168.334 198.301,167.753 C196.548,167.128 195.021,166.28 193.365,165.559 C193.61,166.714 194.215,167.512 194.461,168.667 M216.22,164.645 C210.512,164.176 203.768,164.241 202.506,167.936 C205.31,167.629 207.762,169.845 210.368,170.312 C215.073,171.157 219.771,169.692 224.995,170.312 C223.362,168.123 220.807,165.021 216.22,164.645 M180.382,149.468 C181.335,149.308 180.892,150.543 181.296,150.932 C189.41,150.102 189.951,158.344 192.449,163.73 C195.175,164.907 197.893,166.089 200.496,167.387 C202.108,165.526 203.675,163.619 206.711,163.182 C204.756,162.456 200.77,163.76 199.398,162.45 C199.306,160.558 202.179,161.171 204.151,161.171 L216.22,161.171 C217.781,161.171 221.3,160.527 220.973,162.268 C220.705,163.701 218.417,162.694 217.316,162.999 C221.64,163.65 224.923,167.63 227.922,170.496 C230.516,172.974 233.05,175.584 232.127,181.649 C242.235,180.557 238.847,194.668 241.452,201.762 C244.098,201.177 246.853,200.702 249.497,200.117 C249.617,200.789 249.853,201.346 249.862,202.128 C246.498,202.846 243.173,203.605 239.624,204.139 C239.736,203.313 239.025,202.342 239.806,201.945 C238.481,198.014 238.585,189.95 237.246,185.855 C236.642,184.005 234.938,182.939 232.127,183.294 C231.474,188.852 233.614,193.828 232.127,198.471 C233.831,199.36 235.844,200.545 236.148,202.676 C237.049,208.942 226.658,210.69 226.459,203.773 C226.376,200.92 228.026,199.679 230.482,198.653 C229.849,196.625 229.498,192.566 230.482,190.609 C224.412,189.67 219.583,190.53 220.607,197.191 C220.18,197.555 219.443,197.612 218.597,197.556 C215.334,203.007 209.973,207.775 202.141,208.344 C190.834,209.167 179.388,200.277 180.382,186.403 C180.985,177.988 185.926,173.051 192.084,169.765 C190.199,165.92 188.09,162.301 186.051,158.611 C186.055,157.997 185.325,158.117 184.953,157.879 C185.51,157.035 186.693,156.817 187.695,156.416 C186.873,154.01 185.227,152.426 182.028,152.394 C181.177,152.581 182.483,153.522 181.845,154.04 C178.25,153.413 174.794,155.646 171.24,156.234 C170.944,155.128 170.587,154.082 170.326,152.943 C172.268,151.59 178.036,151.86 179.834,150.017 C180.089,149.754 179.822,149.281 180.382,149.468" fill="#0067AB"/>
    <path d="M102.412,141.229 C108.676,142.964 112.456,145.078 116.595,145.879 C120.356,146.607 123.219,145.387 123.105,142.625 C122.428,145.88 118.805,145.979 115.433,145.182 C112.816,144.563 108.392,142.568 103.807,141.229 C97.236,139.311 90.994,138.346 87.997,135.882 C89.892,138.718 96.555,139.607 102.412,141.229 M95.435,128.442 C95.765,130.112 101.486,131.021 102.878,130.301 C104.849,127.465 94.751,124.939 95.435,128.442 M102.18,120.768 C108.204,120.536 108.686,109.638 101.715,110.307 C95.019,110.947 95.885,121.011 102.18,120.768 M115.664,135.882 C127.329,135.289 123.411,115.571 131.011,109.376 C121.913,114.229 127.56,133.827 115.664,135.882 M100.784,131.929 C93.396,129.289 84.206,128.07 83.347,117.746 C82.98,113.348 83.795,106.518 85.904,103.563 C87.234,101.7 89.777,101.265 91.717,99.611 C94.552,101.116 98.154,101.853 101.482,102.865 C102.512,102.888 101.75,101.118 102.644,101.005 C107.032,101.89 110.952,103.239 115.433,104.028 C115.982,104.606 115.435,105.397 115.433,106.12 C120.675,108.008 129.142,106.671 133.102,109.841 C133.086,117.833 132.691,126.961 133.102,135.65 C131.812,138.967 127.852,139.3 126.128,141.926 C124.628,144.209 124.854,147.281 121.013,147.972 C118.928,148.347 116.427,148.025 114.502,147.506 C110.258,146.364 105.987,144.383 99.388,142.625 C93.804,141.134 86.764,139.813 85.205,135.65 C84.411,133.52 85.079,129.513 84.741,127.976 C84.365,126.267 82.619,124.883 81.951,123.093 C80.022,117.924 80.568,107.619 83.347,102.865 C84.569,100.777 87.589,97.911 91.018,99.378 C89.141,101.512 85.95,101.813 84.741,104.26 C81.959,109.896 81.599,121.309 85.439,125.418 C89.66,129.937 95.505,129.81 100.784,131.929" fill="#0067AB"/>
    <path d="M209.158,73.683 C209.506,76.41 209.872,79.136 209.738,82.19 C209.509,87.392 207.976,93.629 209.931,96.884 C210.699,111.737 208.463,126.476 209.545,140.579 C208.424,141.219 205.818,141.111 204.904,140.386 C206.218,129.293 204.743,115.539 205.291,103.07 C205.413,100.3 205.312,97.143 206.451,95.53 C206.997,94.209 205.859,91.652 206.258,89.923 C206.404,89.291 207.679,88.506 207.611,88.184 C207.755,88.866 206.093,88.993 206.258,89.15 C205.821,88.734 205.472,81.668 205.484,80.643 C205.529,76.791 206.716,75.227 209.158,73.683" fill="#0067AB"/>
    <path d="M196.011,140.578 C194.89,141.218 192.283,141.111 191.371,140.386 C192.366,130.93 191.757,119.591 191.757,108.098 C191.757,104.368 191.477,100.315 192.144,97.27 C192.294,96.586 192.803,95.841 192.917,95.144 C193.719,90.26 191.525,85.392 192.724,80.45 C192.954,79.499 193.739,78.286 194.271,77.356 C194.435,77.32 194.453,77.431 194.464,77.55 C198.004,82.113 194.89,88.961 195.624,94.95 C195.749,95.966 196.447,97.026 196.591,98.043 C197.525,104.627 196.503,112.486 196.011,119.697 C195.518,126.915 195.938,133.933 196.011,140.578" fill="#0067AB"/>
    <path d="M181.123,80.837 C182.645,84.85 181.038,89.492 181.703,94.176 C181.857,95.264 182.637,96.08 182.863,97.077 C183.585,100.264 183.035,104.343 182.863,108.098 C182.371,118.939 181.971,130.194 182.476,140.578 C181.355,141.218 178.749,141.111 177.836,140.386 C178.736,130.286 178.223,118.987 178.223,107.711 C178.223,104.075 177.877,99.985 178.609,97.077 C178.905,95.904 179.877,94.834 179.964,93.597 C180.074,92 179.055,90.627 178.996,89.15 C178.927,87.425 181.002,82.749 181.123,80.837" fill="#0067AB"/>
    <path d="M153.862,85.09 C154.28,87.276 153.919,91.009 154.442,94.369 C154.612,95.46 155.405,96.145 155.602,97.077 C156.264,100.204 155.602,104.436 155.602,108.291 C155.602,118.872 154.022,130.31 155.409,140.385 C154.431,141.245 151.577,141.163 150.575,140.385 C151.153,134.222 150.962,126.71 150.962,119.117 C150.962,111.692 149.906,102.963 151.349,97.077 C151.567,96.188 152.327,95.405 152.509,94.563 C152.722,93.577 152.917,90.905 152.896,90.116 C152.872,89.246 152.226,88.476 152.316,87.602 C152.404,86.745 153.366,85.425 153.862,85.09" fill="#0067AB"/>
    <path d="M165.076,85.476 C169.382,84.872 167.491,90.934 168.169,94.757 C168.328,95.649 169.152,96.524 169.329,97.463 C169.912,100.541 169.329,104.751 169.329,108.677 C169.329,112.268 169.164,116.066 168.943,119.504 C168.452,127.126 168.553,134.301 168.749,140.578 C167.628,141.218 165.023,141.111 164.109,140.386 C165.195,131.414 164.496,121.47 164.496,111.578 C164.496,106.57 163.934,101.133 164.883,97.077 C165.099,96.151 166.042,95.314 166.236,94.37 C166.896,91.164 166.344,87.533 165.076,85.476" fill="#0067AB"/>
    <path d="M203.492,221.221 C203.117,223.167 202.923,225.293 202.61,227.301 C203.933,227.22 204.905,227.491 205.061,228.575 C205.147,226.111 204.525,223.642 204.473,221.221 C203.977,221.228 203.912,221.097 203.492,221.221 M203.786,217.593 C204.232,217.254 203.82,216.057 204.375,215.828 C207.719,216.22 207.426,219.744 207.513,223.378 C207.726,232.265 208.069,240.409 208.69,249.07 C209.022,253.715 209.263,258.494 209.572,263.583 C209.705,265.779 209.901,268.09 210.454,270.349 C210.742,271.522 211.893,275.658 209.67,276.037 C206.239,276.622 207.493,270.653 207.611,268.29 C207.771,265.067 207.324,261.755 207.12,258.288 C206.747,251.936 206.185,245.263 205.846,238.872 C205.711,236.334 206.265,230.542 203.786,230.536 C201.275,230.531 201.72,237.477 201.531,239.95 C200.959,247.453 200.608,254.216 200.158,261.818 C200.044,263.746 199.893,265.566 199.962,267.407 C200.031,269.234 200.504,271.024 200.452,272.703 C200.402,274.323 199.749,276.286 198.099,276.135 C196.871,276.022 196.559,274.393 196.53,273.683 C196.452,271.762 197.416,270.153 197.805,267.603 C198.128,265.489 198.159,263.115 198.295,260.935 C198.847,252.081 199.481,241.698 200.06,233.478 C200.206,231.405 200.452,229.004 200.452,226.516 C200.452,224.156 200.251,221.726 200.354,219.554 C200.446,217.635 201.241,216.523 202.904,215.926 C203.788,215.608 203.879,216.181 203.786,217.593" fill="#0067AB"/>
    <path d="M250.635,140.139 C252.677,139.992 253.932,137.016 254.002,134.372 C254.065,131.978 252.471,127.703 250.162,127.278 C247.616,126.81 245.706,128.971 245.517,132.278 C245.343,135.334 246.622,140.428 250.635,140.139 M222.552,136.568 C227.55,137.1 227.987,126.003 222.998,125.473 C220.476,125.205 219.294,128.337 219.255,131.348 C219.219,134.148 220.093,136.306 222.552,136.568 M235.075,74.296 C235.57,78.877 235.918,84.785 236.479,89.811 C237.573,86.094 237.766,81.816 238.377,77.565 C238.589,76.095 238.489,74.437 239.244,73.822 C240.22,74.671 239.566,76.179 239.502,77.24 C239.295,80.597 239.22,84.412 238.917,88.131 C238.702,90.754 238.228,93.066 238.448,95.496 C239.219,104.016 240.952,112.096 242.67,120.755 C243.03,122.564 243.234,125.856 244.468,126.408 C246.84,127.468 247.939,125.457 250.524,126.281 C254.468,127.538 257.255,136.132 253.538,139.786 C251.337,141.95 247.411,140.599 246.064,138.943 C243.617,135.929 244.52,130.879 242.328,127.434 C240.612,127.045 239.885,128.092 238.192,127.737 C238.16,127.259 238.083,126.813 237.899,126.441 C238.82,125.315 241.102,126.161 241.912,124.874 C240.835,115.628 238.571,107.199 236.647,98.536 C235.398,100.172 235.191,102.437 234.653,104.555 C233.101,110.648 230.992,117.676 230.132,124.303 C230.996,125.643 233.927,124.705 233.654,126.37 C233.365,128.13 231.304,126.014 229.925,126.392 C227.741,129.441 228.064,133.924 226.344,136.201 C225.588,137.204 224.02,138 222.331,137.768 C215.501,136.834 216.982,123.978 223.701,124.538 C224.662,124.618 225.672,125.996 227.413,125.576 C229.21,125.141 230.739,115.455 231.389,112.648 C232.702,106.972 234.518,99.847 234.908,94.491 C235.181,90.744 234.623,87.452 234.509,84.128 C234.42,81.556 234.01,78.993 234.183,76.262 C234.226,75.558 233.938,74.364 235.075,74.296" fill="#0067AB"/>
    <path d="M25.339,16.863 C27.359,17.426 29.091,18.277 30.683,19.268 C32.453,18.143 34.829,16.912 36.027,15.66 C32.869,16.176 28.59,16.072 25.339,16.863 M46.047,12.187 C48.683,11.509 51.669,10.717 54.865,10.985 C56.543,11.125 58.939,11.431 59.541,13.256 C56.972,14.198 53.474,12.912 50.322,13.523 C48.047,13.964 44.846,15.436 42.307,15.927 C41.244,16.133 40.405,16.006 39.634,16.329 C38.831,16.665 38.589,17.28 37.898,17.799 C35.978,19.238 33.721,20.369 31.618,21.806 C27.648,24.521 23.649,27.244 18.792,29.421 C16.372,30.507 13.763,31.737 11.177,31.96 C9.97,32.064 8.308,31.806 8.238,31.158 C8.111,29.986 13.209,28.773 13.983,28.487 C20.176,26.196 25.354,22.996 30.149,19.535 C27.288,18.97 25.746,17.438 22.667,17.263 C18.263,17.015 13.743,18.819 10.108,19.802 C8.914,20.125 7.346,20.734 6.367,19.669 C7.131,17.596 9.794,16.853 12.112,16.195 C17.993,14.524 24.775,14.09 32.286,13.523 C34.415,13.363 36.349,12.737 37.631,13.656 C42.725,11.867 47.125,7.465 54.197,8.045 C55.365,8.141 57.797,8.552 57.671,9.648 C57.515,10.999 52.943,10.48 51.392,10.584 C49.107,10.737 47.892,11.284 46.315,12.053 C46.339,12.167 46.262,12.179 46.181,12.187 z" fill="#0067AB"/>
    <path d="M217.486,149.914 C213.706,149.326 207.132,148.803 202.788,148.37 C200.98,148.189 199.27,147.636 197.862,147.981 C194.69,148.758 194.429,153.101 198.933,153.481 C200.436,153.608 202.331,153.191 204.173,153.015 C207.739,152.671 211.233,152.308 214.553,151.927 C216.257,151.731 218.184,151.92 219.396,150.848 C219.248,149.95 218.365,150.052 217.486,149.914 M221.276,150.061 C220.716,153.105 226.685,154.481 227.528,151.655 C228.137,149.611 226.216,148.51 224.407,148.354 C222.579,148.199 221.504,148.825 221.276,150.061 M257.426,148.655 C257.975,148.492 258.174,149.109 258.174,149.474 C258.174,151.548 254.879,151.056 253.323,151.21 C254.262,152.46 257.815,152.615 257.96,150.482 C260.179,153.272 254.652,153.468 252.696,152.921 C252.016,152.732 251.553,152.203 251.038,152.042 C249.4,151.529 247.339,151.924 245.528,151.924 C241.938,151.925 238.428,151.861 234.858,151.895 C232.975,151.914 230.918,151.755 229.644,152.237 C227.405,153.084 227.257,155.227 224.002,154.595 C222.689,154.341 221.994,153.439 220.885,153.142 C219.019,152.641 217.024,153.361 215.267,153.528 C213.198,153.726 211.491,153.893 209.748,154.068 C205.848,154.461 202.307,155.259 198.836,155.174 C193.425,155.042 192.077,148.347 196.842,146.579 C199.398,145.63 205.019,146.829 208.315,147.173 C210.28,147.378 212.411,147.687 214.349,147.929 C216.385,148.183 218.575,148.731 220.157,148.505 C222.122,148.225 222.902,146.274 225.612,147.03 C227.111,147.447 227.47,148.6 228.848,149.168 C230.535,149.862 232.463,149.706 234.378,149.816 C238.115,150.031 241.664,150.209 245.318,150.43 C248.145,150.601 250.86,151.361 252.656,150.013 C254.434,149.907 256.885,150.835 257.498,148.934 C257.55,148.792 257.518,148.704 257.426,148.655" fill="#0067AB"/>
    <path d="M64.076,119.725 C63.487,119.695 63.071,119.201 62.53,119.04 C64.816,113.143 68.526,107.779 70.757,101.862 C71.753,101.655 72.378,102.441 73.106,102.953 C69.739,108.41 67.101,114.14 64.076,119.725" fill="#0067AB"/>
    <path d="M60.062,102.104 C60.566,101.905 61.005,101.679 61.281,101.394 C60.967,96.151 60.562,90.874 60.279,85.643 C60.976,85.685 62.341,85.272 62.021,84.385 C61.424,83.62 60.393,84.013 59.661,83.608 C59.378,80.215 59.246,76.878 58.524,73.321 C58.997,72.897 59.397,72.446 59.394,71.844 C58.566,70.389 55.646,70.896 55.222,72.51 C55.466,73.274 56.03,73.184 56.373,73.684 C55.72,76.903 56.65,80.715 56.313,84.053 C55.778,83.935 54.431,84.389 54.268,84.985 C54.733,86.01 55.71,85.666 56.431,86.006 C56.592,91.157 56.875,96.353 57.375,101.63 C57.654,102.207 58.285,101.845 58.608,102.303 L59.5,107.812 L59.64,107.812 L60.583,117.476 L59.953,107.812 L60.062,107.812 z" fill="#0067AB"/>
    <path d="M33.502,162.087 C32.16,165.89 32.498,173.441 35.255,178.078 C35.796,178.987 36.839,180.285 37.955,180.694 C40.793,181.736 44.927,178.574 44.319,175.815 C43.904,173.929 42.22,172.47 40.967,170.824 C39.758,169.235 38.262,167.213 37.748,165.475 C36.85,162.442 38.734,159.282 41.658,157.865 C42.586,157.415 47.508,156.687 46.941,154.824 C46.238,152.509 39.989,155.335 38.631,156.143 C35.776,157.843 34.283,159.876 33.502,162.087 M68.541,139.172 C68.314,139.291 68.838,139.614 69.013,139.547 C69.034,139.99 68.53,139.61 68.278,139.888 C68.4,140.108 68.548,140.261 68.75,140.265 C68.813,140.672 68.322,140.374 68.137,140.548 C68.26,140.769 68.407,140.92 68.609,140.925 C68.672,141.332 68.182,141.034 67.997,141.208 C67.731,141.435 68.375,141.429 68.403,141.764 C68.131,141.951 68.033,141.664 67.734,141.924 C67.857,142.145 68.004,142.297 68.206,142.301 C68.236,142.637 67.622,142.448 67.415,142.519 C67.548,142.892 67.865,142.767 68,143.141 C67.781,143.09 67.492,143.229 67.274,143.179 C67.007,143.405 67.652,143.4 67.68,143.734 C67.032,143.76 66.96,143.956 67.417,144.45 C67.198,144.4 66.91,144.54 66.691,144.489 C66.814,144.71 66.961,144.861 67.163,144.866 C67.225,145.273 66.735,144.975 66.55,145.149 C66.284,145.376 66.93,145.371 66.957,145.705 C66.661,145.865 66.488,145.688 66.231,145.743 C66.004,145.784 66.453,146.194 66.581,146.176 C66.643,146.583 66.152,146.286 65.968,146.46 C65.702,146.686 66.347,146.681 66.374,147.015 C66.155,146.965 65.867,147.104 65.648,147.054 C65.707,147.447 65.968,147.291 66.054,147.609 C64.889,147.625 66.2,148.432 65.065,148.365 C65.188,148.585 65.335,148.736 65.538,148.741 C65.6,149.148 65.109,148.85 64.925,149.024 C64.658,149.252 65.303,149.246 65.331,149.581 C65.074,149.635 64.901,149.458 64.606,149.618 C64.333,149.786 64.828,150.07 64.955,150.051 C64.998,150.436 64.467,150.126 64.285,150.212 C64.013,150.38 64.508,150.663 64.635,150.646 C64.632,151.069 64.047,150.804 63.843,150.863 C63.978,151.236 64.295,151.112 64.429,151.485 C64.171,151.54 63.999,151.364 63.703,151.524 C63.476,151.565 63.925,151.974 64.052,151.956 C64.095,152.34 63.565,152.03 63.383,152.118 C63.11,152.285 63.605,152.568 63.732,152.551 C63.762,152.886 63.148,152.697 62.941,152.768 C63.063,152.989 63.211,153.14 63.413,153.145 C63.475,153.551 62.985,153.254 62.8,153.428 C62.573,153.469 63.023,153.879 63.15,153.861 C63.246,154.1 62.648,153.975 62.481,154.023 C62.208,154.19 62.704,154.474 62.83,154.456 C62.873,154.839 62.343,154.529 62.161,154.616 C61.85,154.887 62.463,154.852 62.444,155.229 C62.226,155.178 61.938,155.318 61.719,155.268 C61.778,155.661 62.039,155.504 62.125,155.823 C61.906,155.773 61.618,155.911 61.399,155.861 C61.133,156.088 61.778,156.083 61.805,156.416 C61.51,156.576 61.337,156.4 61.079,156.455 C60.853,156.497 61.302,156.907 61.428,156.888 C61.472,157.273 60.942,156.962 60.76,157.049 C60.449,157.32 61.061,157.284 61.044,157.661 C60.833,157.682 60.651,157.623 60.44,157.644 C60.201,157.648 60.509,158.313 60.667,158.133 C60.733,158.372 60.095,158.247 59.941,158.171 C59.667,158.274 60.088,158.632 60.103,158.841 C59.882,158.794 59.639,158.81 59.442,158.701 C59.241,158.83 59.261,159.04 59.424,159.303 C59.104,159.437 59.028,158.907 58.708,159.04 C58.635,159.184 58.626,159.349 58.633,159.522 C58.432,159.517 58.284,159.366 58.162,159.145 C57.884,159.247 57.818,159.426 57.965,159.682 C57.645,159.815 57.556,159.317 57.314,159.24 C56.974,159.353 57.437,159.76 56.994,159.835 C56.864,159.267 56.549,159.201 56.229,159.147 C55.913,159.268 55.933,159.513 55.91,159.741 C51.329,159.643 47.518,158.474 43.225,159.964 C40.185,161.019 39.041,163.606 40.614,166.526 C42.668,170.343 44.569,171.024 45.911,175.077 C46.992,178.34 45.221,180.907 42.555,182.282 C36.884,185.205 34.471,182.15 32.294,176.177 C29.228,167.762 29.723,158.456 37.488,153.997 C39.549,152.813 41.413,152.193 43.44,150.794 C45.944,151.865 49.741,150.899 52.136,148.701 C53.312,147.621 54.475,144.941 55.814,142.835 C57.16,140.717 58.354,138.336 59.492,136.969 C60.788,135.411 63.481,136.287 65.004,136.349 C66.387,136.405 67.585,136.326 68.981,136.589 C68.962,136.818 68.669,136.949 68.482,137.118 C68.653,137.389 69.013,137.148 69.133,137.56 C68.969,137.636 68.807,137.711 68.643,137.787 C68.374,138.102 69.146,137.86 69.172,138.286 C68.906,138.456 68.692,138.483 68.502,138.446 C68.661,138.752 68.925,138.771 69.153,138.888 C69.262,139.17 68.772,138.873 68.541,139.172" fill="#0067AB"/>
    <path d="M44.177,57.511 C43.946,61.314 50.862,63.343 53.262,60.317 C55.182,55.04 44.48,52.531 44.177,57.511 M48.987,46.422 C48.969,48.711 51.792,50.088 53.663,50.296 C55.352,50.484 57.336,50.148 57.671,48.826 C58.502,45.556 53.648,43.627 51.125,44.151 C49.665,44.453 48.996,45.209 48.987,46.422 M47.25,47.758 C48.302,46.625 48.102,44.829 49.12,43.884 C52.229,40.999 58.69,44.461 58.606,48.159 C58.473,54.05 48.176,49.799 44.845,48.96 C42.309,48.322 39.927,47.979 37.364,47.223 C36.649,47.013 35.907,46.384 35.092,46.689 C36.211,47.749 37.858,48.118 39.367,48.826 C42.086,50.104 44.986,51.604 47.918,52.969 C50.576,54.205 54.026,55.161 54.331,58.579 C54.934,65.337 43.054,63.385 43.375,57.511 C43.462,55.935 44.412,55.374 44.712,53.77 C43.933,52.609 42.404,52.109 41.104,51.499 C39.834,50.902 38.416,50.359 37.096,49.762 C34.459,48.569 31.802,46.941 29.214,46.155 C27.191,45.54 24.669,46.289 22.266,46.823 C18.746,47.605 15.39,48.405 11.845,49.228 C10.156,49.62 8.393,50.376 6.635,49.896 C10.49,48.184 14.872,46.999 18.927,45.487 C15.034,45.059 10.064,45.709 6.368,45.086 C7.149,43.757 9.14,44.116 10.51,44.017 C15.168,43.678 20.871,42.944 25.34,42.681 C26.475,42.615 27.611,42.538 28.546,42.681 C29.285,42.795 29.874,43.332 30.683,43.616 C32.845,44.376 35.405,44.88 37.631,45.487 C40.892,46.376 44.103,47.24 47.25,47.758" fill="#0067AB"/>
    <path d="M71.038,170.339 L70.1,170.339 L70.1,169.401 L71.038,169.401 z M71.038,169.401 M70.1,168.246 L71.038,168.246 L71.038,169.184 L70.1,169.184 z M71.3,169.401 L72.238,169.401 L72.238,170.339 L71.3,170.339 z M71.3,168.246 L72.238,168.246 L72.238,169.184 L71.3,169.184 z M72.5,169.401 L73.438,169.401 L73.438,170.339 L72.5,170.339 z M72.5,168.246 L73.438,168.246 L73.438,169.184 L72.5,169.184 z M73.701,169.401 L74.639,169.401 L74.639,170.339 L73.701,170.339 z M73.701,168.246 L74.639,168.246 L74.639,169.184 L73.701,169.184 z M74.9,169.401 L75.838,169.401 L75.838,170.339 L74.9,170.339 z M74.9,168.246 L75.838,168.246 L75.838,169.184 L74.9,169.184 z M76.101,169.401 L77.039,169.401 L77.039,170.339 L76.101,170.339 z M76.101,168.246 L77.039,168.246 L77.039,169.184 L76.101,169.184 z M77.301,169.401 L78.239,169.401 L78.239,170.339 L77.301,170.339 z M77.301,168.246 L78.239,168.246 L78.239,169.184 L77.301,169.184 z M78.5,169.401 L79.438,169.401 L79.438,170.339 L78.5,170.339 z M78.5,168.246 L79.438,168.246 L79.438,169.184 L78.5,169.184 z M79.701,169.401 L80.639,169.401 L80.639,170.339 L79.701,170.339 z M79.701,168.246 L80.639,168.246 L80.639,169.184 L79.701,169.184 z M80.901,169.401 L81.839,169.401 L81.839,170.339 L80.901,170.339 z M80.901,168.246 L81.839,168.246 L81.839,169.184 L80.901,169.184 z M67.75,174.25 L82.375,174.25 L82.375,166.75 L67.75,166.75 z" fill="#FFFFFF"/>
    <path d="M113.469,172.528 L114.913,172.528 L114.913,173.972 L113.469,173.972 z M113.469,170.748 L114.913,170.748 L114.913,172.192 L113.469,172.192 z M113.469,168.968 L114.913,168.968 L114.913,170.412 L113.469,170.412 z M115.317,172.528 L116.761,172.528 L116.761,173.972 L115.317,173.972 z M115.317,170.748 L116.761,170.748 L116.761,172.192 L115.317,172.192 z M115.317,168.968 L116.761,168.968 L116.761,170.412 L115.317,170.412 z M117.165,172.528 L118.609,172.528 L118.609,173.972 L117.165,173.972 z M117.165,170.748 L118.609,170.748 L118.609,172.192 L117.165,172.192 z M117.165,168.968 L118.609,168.968 L118.609,170.412 L117.165,170.412 z M119.014,172.528 L120.458,172.528 L120.458,173.972 L119.014,173.972 z M119.014,170.748 L120.458,170.748 L120.458,172.192 L119.014,172.192 z M119.014,168.968 L120.458,168.968 L120.458,170.412 L119.014,170.412 z M120.862,172.528 L122.306,172.528 L122.306,173.972 L120.862,173.972 z M120.862,170.748 L122.306,170.748 L122.306,172.192 L120.862,172.192 z M120.862,168.968 L122.306,168.968 L122.306,170.412 L120.862,170.412 z M112.375,177 L125.466,177 L125.466,165.375 L112.375,165.375 z" fill="#FFFFFF"/>
    <path d="M108.508,163.354 L106.904,163.354 L106.904,161.75 L108.508,161.75 z M108.508,165.332 L106.904,165.332 L106.904,163.728 L108.508,163.728 z M108.508,167.309 L106.904,167.309 L106.904,165.705 L108.508,165.705 z M106.455,163.354 L104.851,163.354 L104.851,161.75 L106.455,161.75 z M106.455,165.332 L104.851,165.332 L104.851,163.728 L106.455,163.728 z M106.455,167.309 L104.851,167.309 L104.851,165.705 L106.455,165.705 z M106.25,172 L103.5,172 L103.5,173.75 L91.5,173.75 L91.5,172 L88.75,172 L88.75,169 L106.25,169 z M88.42,165.705 L90.024,165.705 L90.024,167.309 L88.42,167.309 z M87.971,163.354 L86.367,163.354 L86.367,161.75 L87.971,161.75 z M87.971,165.332 L86.367,165.332 L86.367,163.728 L87.971,163.728 z M87.971,167.309 L86.367,167.309 L86.367,165.705 L87.971,165.705 z M88.42,163.727 L90.024,163.727 L90.024,165.331 L88.42,165.331 z M88.42,161.75 L90.024,161.75 L90.024,163.354 L88.42,163.354 z M90.474,165.705 L92.078,165.705 L92.078,167.309 L90.474,167.309 z M90.474,163.727 L92.078,163.727 L92.078,165.331 L90.474,165.331 z M90.474,161.75 L92.078,161.75 L92.078,163.354 L90.474,163.354 z M92.528,165.705 L94.132,165.705 L94.132,167.309 L92.528,167.309 z M92.528,163.727 L94.132,163.727 L94.132,165.331 L92.528,165.331 z M92.528,161.75 L94.132,161.75 L94.132,163.354 L92.528,163.354 z M94.582,165.705 L96.186,165.705 L96.186,167.309 L94.582,167.309 z M94.582,163.727 L96.186,163.727 L96.186,165.331 L94.582,165.331 z M94.582,161.75 L96.186,161.75 L96.186,163.354 L94.582,163.354 z M96.635,165.705 L98.239,165.705 L98.239,167.309 L96.635,167.309 z M96.635,163.727 L98.239,163.727 L98.239,165.331 L96.635,165.331 z M96.635,161.75 L98.239,161.75 L98.239,163.354 L96.635,163.354 z M98.689,165.705 L100.293,165.705 L100.293,167.309 L98.689,167.309 z M98.689,163.727 L100.293,163.727 L100.293,165.331 L98.689,165.331 z M98.689,161.75 L100.293,161.75 L100.293,163.354 L98.689,163.354 z M100.743,165.705 L102.347,165.705 L102.347,167.309 L100.743,167.309 z M100.743,163.727 L102.347,163.727 L102.347,165.331 L100.743,165.331 z M100.743,161.75 L102.347,161.75 L102.347,163.354 L100.743,163.354 z M102.796,165.705 L104.4,165.705 L104.4,167.309 L102.796,167.309 z M102.796,163.727 L104.4,163.727 L104.4,165.331 L102.796,165.331 z M102.796,161.75 L104.4,161.75 L104.4,163.354 L102.796,163.354 z M111.875,164.875 L111.875,157.875 L109.5,157.875 L109.5,154.75 L106.25,154.75 L106.25,157.875 L104.75,157.875 L104.75,156.125 L102.625,156.125 L102.625,157.875 L100.75,157.875 L100.75,156.125 L98.625,156.125 L98.625,157.875 L82.875,157.875 L82.875,166.25 L82.875,174.75 L82.875,177 L96.466,177 L111.875,177 z" fill="#FFFFFF"/>
    <path d="M204.746,30.837 L192.656,30.837 L193.689,29.127 L184.372,29.127 L186.187,27.093 L211.215,27.093 L213.03,29.127 L203.713,29.127 z M183.836,6.891 L213.979,6.891 L213.979,24.356 L183.836,24.356 z M215.979,5.891 C215.979,5.338 215.532,4.891 214.979,4.891 L182.836,4.891 C182.284,4.891 181.836,5.338 181.836,5.891 L181.836,26.356 L176.588,31.899 L176.588,33.083 L221.227,33.083 L221.227,31.899 L215.979,26.356 z" fill="#FFFFFF"/>
    <path d="M37,83.75 L23.562,83.75 L23.562,82.687 L37,82.687 z M27.063,77.937 L29.063,77.937 L29.063,79.937 L27.063,79.937 z M27.063,75.437 L29.063,75.437 L29.063,77.437 L27.063,77.437 z M29.541,77.937 L31.541,77.937 L31.541,79.937 L29.541,79.937 z M29.541,75.437 L31.541,75.437 L31.541,77.437 L29.541,77.437 z M32.188,77.937 L34.188,77.937 L34.188,79.937 L32.188,79.937 z M32.188,75.437 L34.188,75.437 L34.188,77.437 L32.188,77.437 z M34.666,77.937 L36.666,77.937 L36.666,79.937 L34.666,79.937 z M34.666,75.437 L36.666,75.437 L36.666,77.437 L34.666,77.437 z M6.719,70.985 L6.719,72.875 L7.934,72.875 L13.031,87.812 L21.844,87.812 L28.781,87.812 L37.594,87.812 L42.691,72.875 L43.906,72.875 L43.906,70.985 z" fill="#FFFFFF"/>
    <path d="M274.05,53.958 C273.981,54.666 274.137,55.593 274.62,55.954 C275.763,56.806 283.167,56.827 281.748,53.958 C279.508,53.721 276.29,53.721 274.05,53.958 M269.774,50.394 C269.674,53.386 274.244,52.389 278.042,52.389 C281.611,52.389 286.593,53.326 286.025,50.108 C280.987,49.777 275.334,50.061 270.058,49.965 C269.879,50.024 269.767,50.15 269.774,50.394 M269.488,48.255 C271.896,48.72 275.798,48.541 279.182,48.541 C282.16,48.541 287.268,49.699 286.881,46.117 L269.061,46.117 C268.645,46.822 269.034,47.945 269.488,48.255 M268.775,44.406 C274.98,44.707 280.981,44.521 286.881,44.549 C287.384,44.007 287.91,43.486 287.736,42.268 L268.205,42.268 C267.775,43.035 268.296,44.074 268.775,44.406 M285.312,41.127 C285.336,40.837 284.587,40.221 284.884,40.556 C285.332,41 284.961,42.576 285.312,41.127 M287.736,38.989 C286.911,38.913 287.242,39.243 287.879,39.131 C287.994,38.88 288.87,38.146 288.448,38.276 C288.158,38.46 288.089,38.866 287.736,38.989 M292.726,33.857 C292.385,33.792 291.879,32.618 291.728,33.287 C292.268,33.181 292.369,34.25 292.726,33.857 M260.507,36.851 L262.788,36.851 L262.788,30.15 L260.507,30.15 z M260.507,30.15 M293.01,30.15 C292.889,32.178 293.082,34.474 293.01,36.851 L295.292,36.851 L295.292,30.15 C294.191,30.101 293.738,29.887 293.01,30.15 M264.498,37.706 C266.357,37.757 267.835,37.686 269.916,37.706 C270.539,37.069 271.264,36.308 271.912,35.567 C272.538,34.852 273.014,33.747 273.908,33.714 C274.506,35.63 271.569,36.667 271.769,37.706 L282.888,37.706 C284.275,36.431 285.274,34.769 286.738,33.572 C287.812,35.449 284.493,36.674 284.742,37.706 C287.106,37.874 288.571,37.653 291.3,37.706 C291.519,34.694 291.714,31.657 291.87,28.582 L263.928,28.582 C264.097,31.644 264.24,34.733 264.498,37.706 M291.443,26.586 C292.166,27.24 293.371,27.414 293.01,29.152 C294.507,29.225 296.439,28.861 297.145,29.722 C297.195,32.023 297.81,36.077 296.717,37.706 C295.771,37.995 294.325,37.785 293.154,37.847 C292.821,42.694 293.106,48.16 293.01,53.245 L287.879,53.245 C287.629,53.972 287.658,55.648 287.879,56.381 C288.591,57.617 291.251,56.905 293.01,57.094 C293.215,59.246 292.301,60.282 290.159,60.087 C289.915,61.031 289.674,61.978 289.589,63.082 L284.172,63.082 L284.172,60.229 C280.274,59.899 275.762,60.181 271.626,60.087 L271.626,63.082 L266.21,63.082 C266.158,62.04 265.811,61.292 265.781,60.229 C263.832,60.137 262.434,59.491 262.788,57.094 C264.56,56.965 266.978,57.482 267.92,56.524 C268.203,55.666 268.004,54.326 268.062,53.245 L262.788,53.245 L262.788,37.847 C261.333,37.735 259.289,38.21 258.654,37.278 C258.412,35.08 258.424,31.922 258.654,29.722 C259.298,28.846 261.203,29.231 262.645,29.152 C262.723,27.852 263.209,26.959 264.356,26.729 C263.963,23.625 264.838,20.676 267.92,20.171 C270.434,19.759 274.009,20.171 277.899,20.171 C285.226,20.171 292.715,18.632 291.443,26.586" fill="#0067AB"/>
    <path d="M239.004,249.264 C240.129,249.339 239.647,248.154 239.004,248.064 C239.173,248.802 239.173,248.525 239.004,249.264 M240.925,246.144 C241.128,245.787 241.697,245.796 242.124,245.663 C241.949,245.118 242.557,243.791 241.645,243.984 C241.647,244.798 240.388,245.591 240.925,246.144 M224.605,244.944 C224.631,242.896 224.768,240.036 224.364,238.464 C224.193,240.362 223.717,243.446 224.605,244.944 M224.605,237.984 C224.781,237.344 225.124,234.638 224.605,234.865 C224.867,236.018 223.863,237.15 224.605,237.984 M239.484,243.264 C240.994,240.092 240.338,236.604 239.484,232.944 C239.942,236.07 238.775,240.382 239.484,243.264 M241.885,215.664 C241.374,217.394 240.061,218.321 240.204,220.704 C239.568,220.708 238.791,220.571 238.765,221.184 C241.489,222.78 243.299,225.29 243.324,229.584 C244.146,229.043 246.488,227.951 248.605,227.905 C246.022,225.661 248.007,221.672 249.565,218.785 C251.915,218.819 252.831,218.847 254.845,219.264 C256.753,222.639 257.843,226.7 259.645,229.584 C258.963,230.446 259.366,231.636 260.124,232.704 C258.897,233.21 259.662,234.249 258.685,234.865 C258.813,242.273 256.437,247.176 255.805,253.824 C255.342,253.921 255.615,254.754 254.845,254.544 C252.975,260.515 252.602,267.981 252.204,275.423 C252.016,276.413 253.354,275.874 253.164,276.864 C250.62,278.003 249.017,276.294 246.925,275.663 C247.962,265.335 244.359,258.245 242.364,250.224 C241.166,250.146 240.931,251.031 239.484,250.704 C238.483,256.458 236.142,262.608 236.124,268.944 C236.117,271.43 237.235,273.976 236.605,276.384 C235.531,276.479 234.601,276.851 234.204,276.144 C233.975,276.954 233.309,277.328 232.525,277.583 C230.309,276.84 225.367,274.875 229.404,272.785 C226.116,266.552 226.477,256.671 224.845,248.785 C224.103,248.841 225.22,250.759 224.124,250.464 C224.13,249.416 223.711,250.423 223.885,250.944 C222.695,250.614 222.347,249.442 221.484,248.785 C222.408,245.11 221.064,240.909 221.244,236.785 C221.303,235.461 221.894,234.247 221.965,232.944 C222.062,231.161 221.318,229.335 221.484,227.664 C221.733,225.173 223.523,223.115 224.364,221.184 C226.585,219.885 230.347,220.127 231.565,217.825 C232.202,217.822 232.936,217.915 233.244,217.584 C232.652,215.436 233.744,213.425 234.444,211.825 C238.317,210.431 241.123,212.543 241.885,215.664" fill="#FFFFFF"/>
    <path d="M151.271,272.669 C151.717,273.902 152.561,274.739 153.911,275.068 C152.023,276.281 150.187,274.027 149.111,272.909 C148.394,273.334 151.031,274.688 149.831,274.829 C147.428,274.031 146.4,271.859 144.79,270.27 C144.28,270.348 144.829,271.316 145.031,271.469 C143.312,270.707 142.176,267.283 140.951,265.229 C140.753,266.231 141.344,268.511 141.911,269.549 C138.557,265.794 137.823,259.651 138.311,251.789 C139.195,237.562 145.299,226.143 159.43,224.669 C163.527,224.242 165.973,225.564 168.551,227.309 C170.88,226.434 174.094,228.828 175.751,230.669 C177.195,232.275 178.667,235.532 179.831,238.829 C181.307,243.015 183.109,246.436 183.191,250.829 C183.396,261.93 177.48,269.316 172.391,274.35 C173.012,273.656 172.283,272.861 172.391,271.949 C171.098,273.537 170.305,275.624 167.59,275.789 C168.042,274.08 170.23,274.108 169.991,271.709 C168.628,272.986 167.535,274.533 165.43,275.068 C166.178,272.136 168.648,270.926 170.23,268.829 L168.07,268.829 C168.301,268.1 169.467,268.307 169.991,267.869 C172.661,264.82 175.557,260.043 176.23,255.148 C177.249,247.74 173.014,242.061 170.471,237.389 C168.034,240.154 168.531,244.252 166.15,246.749 C163.644,249.379 159.452,249.86 155.59,251.309 C155.59,250.428 156.43,250.389 156.79,249.869 C153.01,251.549 146.366,252.59 145.991,257.789 C145.538,264.073 151.148,268.311 152.951,273.389 C152.413,273.127 151.749,272.992 151.271,272.669" fill="#0067AB"/>
  </g>
</svg>
