<?xml version="1.0" encoding="UTF-8"?>
<!DOCTYPE svg PUBLIC "-//W3C//DTD SVG 1.1//EN" "http://www.w3.org/Graphics/SVG/1.1/DTD/svg11.dtd">
<svg version="1.1" xmlns="http://www.w3.org/2000/svg" xmlns:xlink="http://www.w3.org/1999/xlink" x="0" y="0" width="300" height="300" viewBox="0, 0, 300, 300">
  <g id="Layer_1">
    <path d="M239.988,41 C250.488,41 259,49.512 259,60.012 L259,239.988 C259,250.488 250.488,259 239.988,259 L60.012,259 C49.512,259 41,250.488 41,239.988 L41,60.012 C41,49.512 49.512,41 60.012,41 L239.988,41 z M234,223 L66,223 L66,227 L234,227 L234,223 z M234,207 L66,207 L66,211 L234,211 L234,207 z M234,191 L66,191 L66,195 L234,195 L234,191 z M234,172 L155,172 L155,176 L234,176 L234,172 z M143,124 L66,124 L66,176 L143,176 L143,124 z M234,156 L155,156 L155,160 L234,160 L234,156 z M234,140 L155,140 L155,144 L234,144 L234,140 z M234,124 L155,124 L155,128 L234,128 L234,124 z M207,94 L66,94 L66,109 L207,109 L207,94 z M234,70 L66,70 L66,85 L234,85 L234,70 z" fill="#FFFFFF"/>
  </g>
</svg>
