<?xml version="1.0" encoding="UTF-8"?>
<!DOCTYPE svg PUBLIC "-//W3C//DTD SVG 1.1//EN" "http://www.w3.org/Graphics/SVG/1.1/DTD/svg11.dtd">
<svg version="1.1" xmlns="http://www.w3.org/2000/svg" xmlns:xlink="http://www.w3.org/1999/xlink" x="0" y="0" width="120" height="128" viewBox="0, 0, 120, 128">
  <g id="Layer_2">
    <path d="M-19.5,64.5 L149.476,64.5" fill-opacity="0" stroke="#000000" stroke-width="1" display="none"/>
    <path d="M60.5,-26.5 L60.5,155.5" fill-opacity="0" stroke="#000000" stroke-width="1" display="none"/>
  </g>
  <g id="Layer_1">
    <path d="M60,7 C63.823,7.097 64.605,7.038 69.137,7.691 C70.578,7.899 71.989,8.274 73.415,8.566 L68.67,30.945 L60.883,67.671 L104.429,42.375 L112.341,37.779 C117.576,46.669 119.741,56.78 120,67 C120,100.137 93.137,127 60,127 C26.863,127 0,100.137 0,67 C-0,33.863 26.863,7 60,7 z" fill="#FFFFFF"/>
    <path d="M80.415,-0.434 C96.734,3.022 111.395,14.151 119.341,28.779 L111.429,33.375 L67.883,58.671 L75.67,21.945 L80.415,-0.434 z" fill="#FFFFFF"/>
  </g>
</svg>
