<?xml version="1.0" encoding="UTF-8"?>
<!DOCTYPE svg PUBLIC "-//W3C//DTD SVG 1.1//EN" "http://www.w3.org/Graphics/SVG/1.1/DTD/svg11.dtd">
<svg version="1.1" xmlns="http://www.w3.org/2000/svg" xmlns:xlink="http://www.w3.org/1999/xlink" x="0" y="0" width="50" height="50" viewBox="0, 0, 50, 50">
  <g id="Layer_1">
    <path d="M33.881,34.118 L32.739,33 C34.835,30.972 36.145,28.14 36.145,25 C36.145,21.862 34.835,19.028 32.739,17 L33.881,15.883 C36.256,18.198 37.735,21.424 37.735,25 C37.735,28.576 36.256,31.803 33.881,34.118 M29.312,29.654 C30.568,28.492 31.368,26.843 31.368,25 C31.368,23.158 30.568,21.509 29.312,20.347 L30.457,19.229 C31.99,20.683 32.96,22.724 32.96,25 C32.96,27.278 31.99,29.319 30.457,30.772 z M27.036,27.43 L25.873,26.296 C26.298,26.01 26.592,25.55 26.592,25 C26.592,24.451 26.298,23.992 25.873,23.705 L27.036,22.571 C27.732,23.156 28.185,24.021 28.185,25 C28.185,25.98 27.732,26.845 27.036,27.43 M23.408,33.267 L16.723,28.332 L16.723,28.502 L12.265,28.502 L12.265,21.816 L16.723,21.816 L16.723,22.284 L23.408,17.347 z M25,-0 C11.215,-0 -0,11.216 -0,25 C-0,38.785 11.215,50 25,50 C38.785,50 50,38.785 50,25 C50,11.216 38.785,-0 25,-0" fill="#B3E3F6"/>
  </g>
</svg>
