<?xml version="1.0" encoding="UTF-8"?>
<!DOCTYPE svg PUBLIC "-//W3C//DTD SVG 1.1//EN" "http://www.w3.org/Graphics/SVG/1.1/DTD/svg11.dtd">
<svg version="1.1" xmlns="http://www.w3.org/2000/svg" xmlns:xlink="http://www.w3.org/1999/xlink" x="0" y="0" width="50" height="50" viewBox="0, 0, 50, 50">
  <g id="Layer_1">
    <path d="M16.723,21.815 L12.264,21.815 L12.264,28.501 L16.723,28.501 L16.723,28.331 L23.409,33.267 L23.409,17.347 L16.723,22.284 z" fill="#2DBAE8"/>
    <path d="M25.873,23.704 C26.297,23.992 26.592,24.451 26.592,25 C26.592,25.549 26.297,26.008 25.873,26.295 L27.035,27.431 C27.731,26.845 28.184,25.978 28.184,25 C28.184,24.019 27.731,23.153 27.035,22.569 z" fill="#2DBAE8"/>
    <path d="M30.456,19.229 L29.312,20.346 C30.568,21.508 31.368,23.156 31.368,25 C31.368,26.843 30.568,28.492 29.312,29.655 L30.456,30.771 C31.99,29.319 32.96,27.278 32.96,25 C32.96,22.725 31.99,20.683 30.456,19.229" fill="#2DBAE8"/>
    <path d="M32.738,16.999 C34.835,19.026 36.143,21.86 36.143,25 C36.143,28.14 34.835,30.972 32.738,33 L33.881,34.117 C36.256,31.803 37.736,28.574 37.736,25 C37.736,21.424 36.256,18.197 33.881,15.883 z" fill="#2DBAE8"/>
    <path d="M25,47.17 C12.775,47.17 2.83,37.224 2.83,25 C2.83,12.774 12.775,2.83 25,2.83 C37.225,2.83 47.17,12.774 47.17,25 C47.17,37.224 37.225,47.17 25,47.17 M25,0 C11.215,0 0,11.214 0,25 C0,38.784 11.215,50 25,50 C38.785,50 50,38.784 50,25 C50,11.214 38.785,0 25,0" fill="#2DBAE8"/>
  </g>
</svg>
