<?xml version="1.0" encoding="UTF-8"?>
<!DOCTYPE svg PUBLIC "-//W3C//DTD SVG 1.1//EN" "http://www.w3.org/Graphics/SVG/1.1/DTD/svg11.dtd">
<svg version="1.1" xmlns="http://www.w3.org/2000/svg" xmlns:xlink="http://www.w3.org/1999/xlink" x="0" y="0" width="50" height="50" viewBox="0, 0, 50, 50">
  <g id="Layer_1">
    <path d="M16.723,21.816 L12.265,21.816 L12.265,28.502 L16.723,28.502 L16.723,28.333 L23.408,33.268 L23.408,17.348 L16.723,22.284 z" fill="#B3E3F6"/>
    <path d="M25.873,23.705 C26.297,23.992 26.592,24.451 26.592,25 C26.592,25.55 26.297,26.01 25.873,26.296 L27.036,27.43 C27.731,26.845 28.185,25.98 28.185,25 C28.185,24.021 27.731,23.156 27.036,22.571 z" fill="#B3E3F6"/>
    <path d="M30.456,19.229 L29.311,20.347 C30.568,21.509 31.367,23.158 31.367,25 C31.367,26.843 30.568,28.492 29.311,29.654 L30.456,30.772 C31.99,29.319 32.959,27.278 32.959,25 C32.959,22.725 31.99,20.684 30.456,19.229" fill="#B3E3F6"/>
    <path d="M32.739,17 C34.835,19.028 36.145,21.862 36.145,25 C36.145,28.14 34.835,30.972 32.739,33 L33.881,34.118 C36.257,31.802 37.736,28.576 37.736,25 C37.736,21.424 36.257,18.198 33.881,15.882 z" fill="#B3E3F6"/>
    <path d="M25,47.17 C12.776,47.17 2.83,37.224 2.83,25 C2.83,12.776 12.776,2.83 25,2.83 C37.224,2.83 47.17,12.776 47.17,25 C47.17,37.224 37.224,47.17 25,47.17 M25,0 C11.215,0 0,11.215 0,25 C0,38.785 11.215,50 25,50 C38.785,50 50,38.785 50,25 C50,11.215 38.785,0 25,0" fill="#B3E3F6"/>
  </g>
</svg>
