<?xml version="1.0" encoding="UTF-8"?>
<!DOCTYPE svg PUBLIC "-//W3C//DTD SVG 1.1//EN" "http://www.w3.org/Graphics/SVG/1.1/DTD/svg11.dtd">
<svg version="1.1" xmlns="http://www.w3.org/2000/svg" xmlns:xlink="http://www.w3.org/1999/xlink" x="0" y="0" width="15" height="15" viewBox="0, 0, 15, 15">
  <g id="Layer_1">
    <path d="M7.5,0 C3.358,0 0,3.357 0,7.5 C0,11.641 3.358,15 7.5,15 C11.642,15 15,11.641 15,7.5 C15,3.357 11.642,0 7.5,0 M7.5,1.143 C11.005,1.143 13.857,3.996 13.857,7.5 C13.857,11.006 11.005,13.857 7.5,13.857 C3.995,13.857 1.143,11.006 1.143,7.5 C1.143,3.996 3.995,1.143 7.5,1.143" fill="#FFFFFF"/>
    <path d="M11.163,5.45 L9.548,3.835 L7.5,5.884 L5.451,3.835 L3.836,5.45 L5.885,7.499 L3.836,9.547 L5.451,11.162 L7.5,9.115 L9.548,11.162 L11.163,9.547 L9.115,7.499 z" fill="#FFFFFF"/>
  </g>
</svg>
