<?xml version="1.0" encoding="UTF-8"?>
<!DOCTYPE svg PUBLIC "-//W3C//DTD SVG 1.1//EN" "http://www.w3.org/Graphics/SVG/1.1/DTD/svg11.dtd">
<svg version="1.1" xmlns="http://www.w3.org/2000/svg" xmlns:xlink="http://www.w3.org/1999/xlink" x="0" y="0" width="30" height="30" viewBox="0, 0, 30, 30">
  <g id="Layer_1">
    <path d="M7.286,14.291 C7.268,14.318 7.251,14.348 7.233,14.374 C7.219,14.404 7.204,14.436 7.189,14.465 C7.181,14.479 7.169,14.496 7.166,14.516 C7.16,14.523 7.16,14.533 7.157,14.543 C7.142,14.572 7.134,14.606 7.122,14.641 C7.116,14.67 7.107,14.696 7.098,14.724 C7.09,14.756 7.087,14.787 7.084,14.82 C7.078,14.85 7.078,14.877 7.072,14.904 C7.069,14.938 7.069,14.975 7.072,15.008 C7.072,15.034 7.069,15.062 7.072,15.088 C7.072,15.126 7.081,15.161 7.087,15.194 C7.09,15.22 7.09,15.246 7.098,15.271 C7.107,15.305 7.116,15.341 7.128,15.373 C7.134,15.402 7.142,15.429 7.154,15.451 C7.16,15.463 7.16,15.476 7.166,15.49 C7.172,15.507 7.183,15.524 7.195,15.549 C7.207,15.571 7.219,15.597 7.233,15.624 C7.248,15.653 7.268,15.686 7.289,15.71 C7.304,15.736 7.321,15.758 7.336,15.778 C7.356,15.808 7.38,15.835 7.409,15.861 C7.418,15.876 7.43,15.888 7.444,15.9 L13.4,21.859 C13.898,22.358 14.701,22.358 15.199,21.859 C15.694,21.361 15.694,20.557 15.199,20.059 L11.414,16.273 L23.2,16.273 C23.64,16.273 24.026,16.052 24.258,15.714 C24.392,15.507 24.474,15.264 24.474,15 C24.474,14.648 24.334,14.331 24.102,14.101 C23.874,13.869 23.555,13.729 23.2,13.729 L11.414,13.729 L15.199,9.942 C15.694,9.442 15.694,8.637 15.199,8.142 C14.95,7.893 14.625,7.769 14.297,7.769 C13.974,7.769 13.649,7.893 13.4,8.141 L7.438,14.101 C7.43,14.113 7.418,14.128 7.406,14.14 C7.38,14.165 7.356,14.19 7.339,14.221 C7.321,14.243 7.304,14.27 7.286,14.291" fill="#FFFFFF"/>
    <path d="M15,2.191 C22.063,2.191 27.809,7.936 27.809,14.999 C27.809,22.059 22.063,27.806 15,27.806 C7.939,27.806 2.194,22.059 2.194,14.999 C2.194,7.936 7.939,2.191 15,2.191 M15,30 C23.285,30 30,23.285 30,15 C30,6.715 23.285,0 15,0 C6.715,0 0,6.715 0,15 C0,23.285 6.715,30 15,30" fill="#FFFFFF"/>
  </g>
</svg>
