<?xml version="1.0" encoding="UTF-8"?>
<!DOCTYPE svg PUBLIC "-//W3C//DTD SVG 1.1//EN" "http://www.w3.org/Graphics/SVG/1.1/DTD/svg11.dtd">
<svg version="1.1" xmlns="http://www.w3.org/2000/svg" xmlns:xlink="http://www.w3.org/1999/xlink" x="0" y="0" width="25" height="25" viewBox="0, 0, 25, 25">
  <g id="Layer_1">
    <path d="M8,5.75 C8,6.437 7.437,7 6.75,7 L4.25,7 C3.563,7 3,6.437 3,5.75 L3,3.25 C3,2.564 3.563,2 4.25,2 L6.75,2 C7.437,2 8,2.564 8,3.25 z" fill="#2DBAE8"/>
    <path d="M8,13.25 C8,13.937 7.437,14.5 6.75,14.5 L4.25,14.5 C3.563,14.5 3,13.937 3,13.25 L3,10.75 C3,10.064 3.563,9.5 4.25,9.5 L6.75,9.5 C7.437,9.5 8,10.064 8,10.75 z" fill="#2DBAE8"/>
    <path d="M8,20.75 C8,21.437 7.437,22 6.75,22 L4.25,22 C3.563,22 3,21.437 3,20.75 L3,18.25 C3,17.564 3.563,17 4.25,17 L6.75,17 C7.437,17 8,17.564 8,18.25 z" fill="#2DBAE8"/>
    <path d="M23,5.75 C23,6.437 22.437,7 21.75,7 L11.75,7 C11.063,7 10.5,6.437 10.5,5.75 L10.5,3.25 C10.5,2.564 11.063,2 11.75,2 L21.75,2 C22.437,2 23,2.564 23,3.25 z" fill="#2DBAE8"/>
    <path d="M23,13.25 C23,13.937 22.437,14.5 21.75,14.5 L11.75,14.5 C11.063,14.5 10.5,13.937 10.5,13.25 L10.5,10.75 C10.5,10.064 11.063,9.5 11.75,9.5 L21.75,9.5 C22.437,9.5 23,10.064 23,10.75 z" fill="#2DBAE8"/>
    <path d="M23,20.75 C23,21.437 22.437,22 21.75,22 L11.75,22 C11.063,22 10.5,21.437 10.5,20.75 L10.5,18.25 C10.5,17.564 11.063,17 11.75,17 L21.75,17 C22.437,17 23,17.564 23,18.25 z" fill="#2DBAE8"/>
  </g>
</svg>
