<?xml version="1.0" encoding="UTF-8"?>
<!DOCTYPE svg PUBLIC "-//W3C//DTD SVG 1.1//EN" "http://www.w3.org/Graphics/SVG/1.1/DTD/svg11.dtd">
<svg version="1.1" xmlns="http://www.w3.org/2000/svg" xmlns:xlink="http://www.w3.org/1999/xlink" x="0" y="0" width="15" height="15" viewBox="0, 0, 30, 30">
  <g id="Layer_1">
    <path d="M22.714,15.709 C22.732,15.682 22.749,15.652 22.767,15.626 C22.781,15.596 22.796,15.564 22.811,15.535 C22.819,15.521 22.831,15.504 22.834,15.484 C22.84,15.477 22.84,15.467 22.843,15.457 C22.858,15.428 22.866,15.394 22.878,15.359 C22.884,15.33 22.893,15.304 22.902,15.276 C22.91,15.244 22.913,15.213 22.916,15.18 C22.922,15.15 22.922,15.123 22.928,15.096 C22.931,15.062 22.931,15.025 22.928,14.992 C22.928,14.966 22.931,14.938 22.928,14.912 C22.928,14.874 22.919,14.839 22.913,14.806 C22.91,14.78 22.91,14.754 22.902,14.729 C22.893,14.695 22.884,14.659 22.872,14.627 C22.866,14.598 22.858,14.571 22.846,14.549 C22.84,14.537 22.84,14.524 22.834,14.51 C22.828,14.493 22.817,14.476 22.805,14.451 C22.793,14.429 22.781,14.403 22.767,14.376 C22.752,14.347 22.732,14.314 22.711,14.29 C22.696,14.264 22.679,14.242 22.664,14.222 C22.644,14.192 22.62,14.165 22.591,14.139 C22.582,14.124 22.57,14.112 22.556,14.1 L16.6,8.141 C16.102,7.642 15.299,7.642 14.801,8.141 C14.306,8.639 14.306,9.443 14.801,9.941 L18.586,13.727 L6.8,13.727 C6.36,13.727 5.974,13.948 5.742,14.286 C5.608,14.493 5.526,14.736 5.526,15 C5.526,15.352 5.666,15.669 5.898,15.899 C6.126,16.131 6.445,16.271 6.8,16.271 L18.586,16.271 L14.801,20.058 C14.306,20.558 14.306,21.363 14.801,21.858 C15.05,22.107 15.375,22.231 15.703,22.231 C16.026,22.231 16.351,22.107 16.6,21.859 L22.562,15.899 C22.57,15.887 22.582,15.872 22.594,15.86 C22.62,15.835 22.644,15.81 22.661,15.779 C22.679,15.757 22.696,15.73 22.714,15.709" fill="#FFFFFF"/>
    <path d="M15,27.809 C7.937,27.809 2.191,22.064 2.191,15.001 C2.191,7.941 7.937,2.194 15,2.194 C22.061,2.194 27.806,7.941 27.806,15.001 C27.806,22.064 22.061,27.809 15,27.809 M15,0 C6.715,0 0,6.715 0,15 C0,23.285 6.715,30 15,30 C23.285,30 30,23.285 30,15 C30,6.715 23.285,0 15,0" fill="#FFFFFF"/>
  </g>
</svg>
